# Blender v2.83.4 OBJ File: 'person.blend'
# www.blender.org
mtllib full_person.mtl
o body_Cube.002
v -0.093518 0.241745 0.183328
v -0.093518 0.241745 -0.183328
v 0.093518 0.241745 0.183328
v 0.093518 0.241745 -0.183328
v -0.093518 -0.135981 -0.183328
v 0.093518 -0.135981 0.183328
v -0.093518 -0.135981 0.183328
v 0.093518 -0.135981 -0.183328
v -0.093518 0.181309 0.183328
v -0.093518 0.181309 -0.183328
v 0.093518 0.181309 -0.183328
v 0.093518 0.181309 0.183328
v -0.093518 0.181309 0.283328
v -0.093518 0.241745 0.283328
v 0.093518 0.241745 0.283328
v 0.093518 0.181309 0.283328
v -0.093518 0.241745 -0.283328
v 0.093518 0.241745 -0.283328
v -0.093518 0.181309 -0.283328
v 0.093518 0.181309 -0.283328
v -0.093518 -0.241745 0.091664
v 0.093518 -0.135981 0.091664
v 0.093518 -0.241745 0.091664
v -0.093518 -0.135981 0.091664
v 0.093518 -0.241745 -0.091664
v -0.093518 -0.135981 -0.091664
v -0.093518 -0.241745 -0.091664
v 0.093518 -0.135981 -0.091664
vt 0.000000 0.411763
vt 0.059311 0.411763
vt 0.059311 0.500000
vt 0.000000 0.500000
vt 0.183553 0.588237
vt 0.000000 0.588237
vt 0.000000 0.500000
vt 0.183553 0.500000
vt 0.533800 0.088237
vt 0.845183 0.088237
vt 0.845183 0.169118
vt 0.845183 0.330882
vt 0.845183 0.411763
vt 0.533800 0.411763
vt 0.940689 0.665034
vt 1.000000 0.665034
vt 1.000000 0.830068
vt 0.940689 0.830068
vt 0.059311 0.088237
vt 0.000000 0.088237
vt 0.000000 0.000000
vt 0.059311 0.000000
vt 0.474489 0.411763
vt 0.533800 0.500000
vt 0.474489 0.500000
vt 0.752593 0.830068
vt 0.752593 0.665034
vt 0.850731 0.665034
vt 0.850731 0.830068
vt 0.924327 0.500000
vt 0.983639 0.500000
vt 0.983639 0.665034
vt 0.924328 0.665034
vt 0.474489 0.088237
vt 0.474489 0.000000
vt 0.533800 0.000000
vt 0.000000 0.911763
vt 0.183553 0.911763
vt 0.183553 1.000000
vt 0.000000 1.000000
vt 0.752593 0.665034
vt 0.752593 0.830068
vt 0.654454 0.830068
vt 0.654454 0.665034
vt 0.834370 0.665034
vt 0.730575 0.665034
vt 0.730575 0.500000
vt 0.834370 0.500000
vt 0.940689 0.665034
vt 0.940689 0.830068
vt 0.850731 0.830068
vt 0.850731 0.665034
vt 0.370694 0.088237
vt 0.370694 0.169118
vt 0.370694 0.330882
vt 0.370694 0.411763
vt 0.948978 0.169118
vt 0.948978 0.330882
vt 0.550660 0.500000
vt 0.550660 0.665034
vt 0.550660 0.830068
vt 0.550660 0.665034
vt 0.654454 0.665034
vt 0.654454 0.830068
vt 0.367107 0.500000
vt 0.550660 0.500000
vt 0.550660 0.779967
vt 0.367107 0.779967
vt 0.924327 0.500000
vt 0.924327 0.665034
vt 0.474489 0.169118
vt 0.474489 0.330882
vt 0.183553 0.500000
vt 0.367107 0.500000
vt 0.367107 0.779967
vt 0.183553 0.779967
vn 1.0000 0.0000 0.0000
vn 0.0000 1.0000 0.0000
vn -1.0000 0.0000 0.0000
vn 0.0000 0.0000 1.0000
vn 0.0000 -1.0000 0.0000
vn 0.0000 0.0000 -1.0000
usemtl body
s off
f 4/1/1 11/2/1 20/3/1 18/4/1
f 3/5/2 1/6/2 14/7/2 15/8/2
f 10/9/3 5/10/3 26/11/3 24/12/3 7/13/3 9/14/3
f 16/15/4 15/16/4 14/17/4 13/18/4
f 12/19/1 3/20/1 15/21/1 16/22/1
f 1/23/3 9/14/3 13/24/3 14/25/3
f 9/26/5 12/27/5 16/28/5 13/29/5
f 19/30/6 17/31/6 18/32/6 20/33/6
f 10/9/3 2/34/3 17/35/3 19/36/3
f 2/37/2 4/38/2 18/39/2 17/40/2
f 11/41/5 10/42/5 19/43/5 20/44/5
f 24/45/4 21/46/4 23/47/4 22/48/4
f 28/49/5 26/50/5 5/51/5 8/52/5
f 12/19/1 6/53/1 22/54/1 28/55/1 8/56/1 11/2/1
f 24/12/3 26/11/3 27/57/3 21/58/3
f 25/59/5 23/47/5 21/46/5 27/60/5
f 1/6/2 3/5/2 4/38/2 2/37/2
f 26/61/6 28/62/6 25/63/6 27/64/6
f 2/34/3 10/9/3 9/14/3 1/23/3
f 12/65/4 9/66/4 7/67/4 6/68/4
f 24/45/5 22/48/5 6/69/5 7/70/5
f 28/55/1 22/54/1 23/71/1 25/72/1
f 3/20/1 12/19/1 11/2/1 4/1/1
f 10/73/6 11/74/6 8/75/6 5/76/6
o head_Cube.003
v -0.113987 0.240461 0.113987
v -0.113987 0.468436 0.113987
v -0.113987 0.240461 -0.113987
v -0.113987 0.468436 -0.113987
v 0.113987 0.240461 0.113987
v 0.113987 0.468436 0.113987
v 0.113987 0.240461 -0.113987
v 0.113987 0.468436 -0.113987
vt 0.666667 0.333333
vt 0.333333 0.333333
vt 0.333333 0.000000
vt 0.666667 0.000000
vt 0.333333 0.666667
vt 0.000000 0.666667
vt 0.000000 0.333333
vt 0.333333 0.333333
vt 0.000000 0.000000
vt 0.333333 0.000000
vt 0.333333 0.666667
vt 0.333333 0.333333
vt 0.666667 0.333333
vt 0.666667 0.666667
vt 1.000000 0.333333
vt 0.666667 0.333333
vt 0.666667 0.000000
vt 1.000000 0.000000
vt 0.333333 0.666667
vt 0.333333 1.000000
vt 0.000000 1.000000
vt 0.000000 0.666667
vn -1.0000 0.0000 0.0000
vn 0.0000 0.0000 -1.0000
vn 1.0000 0.0000 0.0000
vn 0.0000 0.0000 1.0000
vn 0.0000 -1.0000 0.0000
vn 0.0000 1.0000 0.0000
usemtl head
s off
f 29/77/7 30/78/7 32/79/7 31/80/7
f 31/81/8 32/82/8 36/83/8 35/84/8
f 35/84/9 36/83/9 34/85/9 33/86/9
f 33/87/10 34/88/10 30/89/10 29/90/10
f 31/91/11 35/92/11 33/93/11 29/94/11
f 36/95/12 32/96/12 30/97/12 34/98/12
o right_arm_Cube
v -0.023012 -0.207805 -0.187706
v -0.023012 0.173986 -0.187706
v -0.023012 -0.207805 -0.248776
v -0.023012 0.173986 -0.248776
v 0.032844 -0.207805 -0.187706
v 0.032844 0.173986 -0.187706
v 0.032844 -0.207805 -0.248776
v 0.032844 0.173986 -0.248776
vt 0.000000 1.000000
vt 0.000000 0.000000
vt 0.210799 0.000000
vt 0.210799 1.000000
vt 0.614399 1.000000
vt 0.614399 0.000000
vt 0.807199 0.000000
vt 0.807199 1.000000
vt 0.421598 0.000000
vt 0.421598 1.000000
vt 0.210799 1.000000
vt 0.210799 0.000000
vt 0.421598 1.000000
vt 0.421598 0.000000
vt 0.614399 0.000000
vt 0.614399 1.000000
vt 1.000000 0.319913
vt 0.807199 0.319913
vt 0.807199 0.159956
vt 1.000000 0.159956
vt 1.000000 0.159956
vt 0.807199 0.159956
vt 0.807199 0.000000
vt 1.000000 0.000000
vn -1.0000 0.0000 0.0000
vn 0.0000 0.0000 -1.0000
vn 1.0000 0.0000 0.0000
vn 0.0000 0.0000 1.0000
vn 0.0000 -1.0000 0.0000
vn 0.0000 1.0000 0.0000
usemtl Material.001
s off
f 37/99/13 38/100/13 40/101/13 39/102/13
f 39/103/14 40/104/14 44/105/14 43/106/14
f 43/107/15 44/108/15 42/109/15 41/110/15
f 41/111/16 42/112/16 38/113/16 37/114/16
f 39/115/17 43/116/17 41/117/17 37/118/17
f 44/119/18 40/120/18 38/121/18 42/122/18
o left_arm_Cube.004
v -0.023012 -0.207805 0.258179
v -0.023012 0.173986 0.258179
v -0.023012 -0.207805 0.197109
v -0.023012 0.173986 0.197109
v 0.032844 -0.207805 0.258179
v 0.032844 0.173986 0.258179
v 0.032844 -0.207805 0.197109
v 0.032844 0.173986 0.197109
vt 0.000000 1.000000
vt 0.000000 0.000000
vt 0.210799 0.000000
vt 0.210799 1.000000
vt 0.614399 1.000000
vt 0.614399 0.000000
vt 0.807199 0.000000
vt 0.807199 1.000000
vt 0.421598 0.000000
vt 0.421598 1.000000
vt 0.210799 1.000000
vt 0.210799 0.000000
vt 0.421598 1.000000
vt 0.421598 0.000000
vt 0.614399 0.000000
vt 0.614399 1.000000
vt 1.000000 0.319913
vt 0.807199 0.319913
vt 0.807199 0.159956
vt 1.000000 0.159956
vt 1.000000 0.159956
vt 0.807199 0.159956
vt 0.807199 0.000000
vt 1.000000 0.000000
vn -1.0000 0.0000 0.0000
vn 0.0000 0.0000 -1.0000
vn 1.0000 0.0000 0.0000
vn 0.0000 0.0000 1.0000
vn 0.0000 -1.0000 0.0000
vn 0.0000 1.0000 0.0000
usemtl Material.002
s off
f 45/123/19 46/124/19 48/125/19 47/126/19
f 47/127/20 48/128/20 52/129/20 51/130/20
f 51/131/21 52/132/21 50/133/21 49/134/21
f 49/135/22 50/136/22 46/137/22 45/138/22
f 47/139/23 51/140/23 49/141/23 45/142/23
f 52/143/24 48/144/24 46/145/24 50/146/24
o left_leg_Cube.005
v -0.023012 -0.522799 0.156425
v -0.023012 -0.141008 0.156425
v -0.023012 -0.522799 0.095355
v -0.023012 -0.141008 0.095355
v 0.032844 -0.522799 0.156425
v 0.032844 -0.141008 0.156425
v 0.032844 -0.522799 0.095355
v 0.032844 -0.141008 0.095355
vt 0.000000 1.000000
vt 0.000000 0.000000
vt 0.210799 0.000000
vt 0.210799 1.000000
vt 0.614399 1.000000
vt 0.614399 0.000000
vt 0.807199 0.000000
vt 0.807199 1.000000
vt 0.421598 0.000000
vt 0.421598 1.000000
vt 0.210799 1.000000
vt 0.210799 0.000000
vt 0.421598 1.000000
vt 0.421598 0.000000
vt 0.614399 0.000000
vt 0.614399 1.000000
vt 1.000000 0.319913
vt 0.807199 0.319913
vt 0.807199 0.159956
vt 1.000000 0.159956
vt 1.000000 0.159956
vt 0.807199 0.159956
vt 0.807199 0.000000
vt 1.000000 0.000000
vn -1.0000 0.0000 0.0000
vn 0.0000 0.0000 -1.0000
vn 1.0000 0.0000 0.0000
vn 0.0000 0.0000 1.0000
vn 0.0000 -1.0000 0.0000
vn 0.0000 1.0000 0.0000
usemtl Material.003
s off
f 53/147/25 54/148/25 56/149/25 55/150/25
f 55/151/26 56/152/26 60/153/26 59/154/26
f 59/155/27 60/156/27 58/157/27 57/158/27
f 57/159/28 58/160/28 54/161/28 53/162/28
f 55/163/29 59/164/29 57/165/29 53/166/29
f 60/167/30 56/168/30 54/169/30 58/170/30
o right_leg_Cube.006
v -0.023012 -0.522799 -0.095638
v -0.023012 -0.141008 -0.095638
v -0.023012 -0.522799 -0.156708
v -0.023012 -0.141008 -0.156708
v 0.032844 -0.522799 -0.095638
v 0.032844 -0.141008 -0.095638
v 0.032844 -0.522799 -0.156708
v 0.032844 -0.141008 -0.156708
vt 0.000000 1.000000
vt 0.000000 0.000000
vt 0.210799 0.000000
vt 0.210799 1.000000
vt 0.614399 1.000000
vt 0.614399 0.000000
vt 0.807199 0.000000
vt 0.807199 1.000000
vt 0.421598 0.000000
vt 0.421598 1.000000
vt 0.210799 1.000000
vt 0.210799 0.000000
vt 0.421598 1.000000
vt 0.421598 0.000000
vt 0.614399 0.000000
vt 0.614399 1.000000
vt 1.000000 0.319913
vt 0.807199 0.319913
vt 0.807199 0.159956
vt 1.000000 0.159956
vt 1.000000 0.159956
vt 0.807199 0.159956
vt 0.807199 0.000000
vt 1.000000 0.000000
vn -1.0000 0.0000 0.0000
vn 0.0000 0.0000 -1.0000
vn 1.0000 0.0000 0.0000
vn 0.0000 0.0000 1.0000
vn 0.0000 -1.0000 0.0000
vn 0.0000 1.0000 0.0000
usemtl Material.004
s off
f 61/171/31 62/172/31 64/173/31 63/174/31
f 63/175/32 64/176/32 68/177/32 67/178/32
f 67/179/33 68/180/33 66/181/33 65/182/33
f 65/183/34 66/184/34 62/185/34 61/186/34
f 63/187/35 67/188/35 65/189/35 61/190/35
f 68/191/36 64/192/36 62/193/36 66/194/36
