# Blender v3.0.1 OBJ File: 'person.blend'
# www.blender.org
mtllib left_arm.mtl
o left_arm_left_arm_Cube.004
v -0.023012 -0.457805 0.198010
v -0.023012 -0.076014 0.183640
v -0.023012 -0.076014 0.122570
v -0.023012 -0.457805 0.136940
v 0.032844 -0.076014 0.122570
v 0.032844 -0.457805 0.136940
v 0.032844 -0.076014 0.183640
v 0.032844 -0.457805 0.198010
vt 0.000000 1.000000
vt 0.000000 0.000000
vt 0.210799 0.000000
vt 0.210799 1.000000
vt 0.614399 1.000000
vt 0.614399 0.000000
vt 0.807199 0.000000
vt 0.807199 1.000000
vt 0.421598 0.000000
vt 0.421598 1.000000
vt 0.210799 1.000000
vt 0.210799 0.000000
vt 0.421598 1.000000
vt 0.421598 0.000000
vt 0.614399 0.000000
vt 0.614399 1.000000
vt 1.000000 0.319913
vt 0.807199 0.319913
vt 0.807199 0.159956
vt 1.000000 0.159956
vt 1.000000 0.159956
vt 0.807199 0.159956
vt 0.807199 0.000000
vt 1.000000 0.000000
vn -1.0000 0.0000 0.0000
vn 0.0000 -0.0376 -0.9993
vn 1.0000 -0.0000 0.0000
vn 0.0000 0.0376 0.9993
vn 0.0000 -1.0000 0.0000
vn 0.0000 1.0000 0.0000
usemtl Material.002
s 1
f 1/1/1 2/2/1 3/3/1 4/4/1
f 4/5/2 3/6/2 5/7/2 6/8/2
f 6/9/3 5/10/3 7/11/3 8/12/3
f 8/13/4 7/14/4 2/15/4 1/16/4
f 4/17/5 6/18/5 8/19/5 1/20/5
f 5/21/6 3/22/6 2/23/6 7/24/6
