# Blender v3.0.1 OBJ File: 'doors.blend'
# www.blender.org
mtllib bulkhead_wall_track.mtl
o Bulkhead_wall_track_Cube.006
v 1.000000 -0.750674 -0.750000
v 1.000000 -0.750674 0.750000
v -1.000000 -0.750674 -0.750000
v -1.000000 -0.750674 0.750000
v -1.000000 0.999326 0.750000
v 1.000000 0.999326 -0.750000
v 1.000000 0.999326 0.750000
v -1.000000 0.999326 -0.750000
v 1.000000 0.999326 0.000000
v -1.000000 0.999326 0.000000
v -1.000000 -0.750674 0.500000
v 1.000000 0.999326 0.500000
v 1.000000 -0.750674 0.500000
v -1.000000 0.999326 0.500000
v 1.000000 -0.750674 -0.500000
v -1.000000 0.999326 -0.500000
v -1.000000 -0.750674 -0.500000
v 1.000000 0.999326 -0.500000
v 1.000000 0.124326 -0.750000
v 1.000000 0.124326 0.750000
v -1.000000 0.124326 -0.750000
v -1.000000 0.124326 0.750000
v -1.000000 0.124326 0.500000
v 1.000000 0.124326 0.500000
v 1.000000 0.124326 -0.500000
v -1.000000 0.124326 -0.500000
v -1.000000 0.628732 0.750000
v 1.000000 0.628732 -0.750000
v 1.000000 0.628732 0.750000
v -1.000000 0.628732 -0.750000
v 1.000000 0.628732 0.000000
v -1.000000 0.628732 0.000000
v -1.000000 0.628732 0.500000
v 1.000000 0.628732 0.500000
v 1.000000 0.628732 -0.500000
v -1.000000 0.628732 -0.500000
vt 0.956522 0.000000
vt 0.956522 0.347826
vt 0.913043 0.347826
vt 0.913043 0.000000
vt 0.652174 0.239897
vt 0.652174 0.304348
vt 0.608696 0.304348
vt 0.608696 0.239897
vt 0.064451 0.347826
vt 0.000000 0.347826
vt 0.000000 0.000000
vt 0.064451 0.000000
vt 0.043478 0.935549
vt 0.043478 1.000000
vt 0.000000 1.000000
vt 0.000000 0.935549
vt 0.368799 0.347826
vt 0.304348 0.347826
vt 0.304348 0.000000
vt 0.368799 0.000000
vt 0.869565 0.239897
vt 0.869565 0.304348
vt 0.826087 0.304348
vt 0.826087 0.239897
vt 0.608696 0.347826
vt 0.456522 0.347826
vt 0.456522 0.000000
vt 0.608696 0.000000
vt 0.913043 0.000000
vt 0.913043 0.347826
vt 0.869565 0.347826
vt 0.869565 0.000000
vt 0.260870 0.935549
vt 0.260870 1.000000
vt 0.217391 1.000000
vt 0.217391 0.935549
vt 0.588489 0.695652
vt 0.500766 0.695652
vt 0.500766 0.347826
vt 0.588489 0.347826
vt 0.740663 0.347826
vt 0.740663 0.695652
vt 0.348592 0.695652
vt 0.260870 0.695652
vt 0.260870 0.347826
vt 0.348592 0.347826
vt 0.500766 0.347826
vt 0.500766 0.695652
vt 0.869565 0.000000
vt 0.869565 0.152174
vt 0.826087 0.152174
vt 0.826087 0.000000
vt 0.260870 0.695652
vt 0.260870 0.847826
vt 0.217391 0.847826
vt 0.217391 0.695652
vt 0.739130 0.304348
vt 0.739130 0.239897
vt 0.304348 0.347826
vt 0.152174 0.347826
vt 0.152174 0.000000
vt 0.304348 0.000000
vt 0.043478 0.695652
vt 0.043478 0.847826
vt 0.000000 0.847826
vt 0.000000 0.695652
vt 0.652174 0.000000
vt 0.652174 0.152174
vt 0.608696 0.152174
vt 0.608696 0.000000
vt 0.043478 0.695652
vt 0.000000 0.695652
vt 0.000000 0.347826
vt 0.043478 0.347826
vt 0.130435 0.347826
vt 0.217391 0.347826
vt 0.260870 0.347826
vt 0.260870 0.695652
vt 0.217391 0.695652
vt 0.130435 0.695652
vt 0.130435 1.000000
vt 0.130435 0.935549
vt 0.827619 0.695652
vt 0.740663 0.695652
vt 0.740663 0.347826
vt 0.827619 0.347826
vt 0.914576 0.347826
vt 0.914576 0.695652
vn 0.0000 -1.0000 0.0000
vn -1.0000 0.0000 0.0000
vn 0.0000 0.0000 -1.0000
vn 1.0000 0.0000 0.0000
vn 0.0000 0.0000 1.0000
vn 0.0000 1.0000 0.0000
usemtl Material.010
s off
f 11/1/1 13/2/1 2/3/1 4/4/1
f 36/5/2 16/6/2 8/7/2 30/8/2
f 30/9/3 8/10/3 6/11/3 28/12/3
f 34/13/4 12/14/4 7/15/4 29/16/4
f 29/17/5 7/18/5 5/19/5 27/20/5
f 27/21/2 5/22/2 14/23/2 33/24/2
f 2/25/5 20/26/5 29/17/5 27/20/5 22/27/5 4/28/5
f 3/29/1 1/30/1 15/31/1 17/32/1
f 28/33/4 6/34/4 18/35/4 35/36/4
f 25/37/5 35/38/5 36/39/5 26/40/5 17/41/5 15/42/5
f 23/43/3 33/44/3 34/45/3 24/46/3 13/47/3 11/48/3
f 4/49/2 22/50/2 27/21/2 33/24/2 23/51/2 11/52/2
f 1/53/4 19/54/4 28/33/4 35/36/4 25/55/4 15/56/4
f 33/24/2 14/23/2 10/57/2 16/6/2 36/5/2 32/58/2
f 3/59/3 21/60/3 30/9/3 28/12/3 19/61/3 1/62/3
f 13/63/4 24/64/4 34/13/4 29/16/4 20/65/4 2/66/4
f 17/67/2 26/68/2 36/5/2 30/8/2 21/69/2 3/70/2
f 14/71/6 5/72/6 7/73/6 12/74/6 9/75/6 18/76/6 6/77/6 8/78/6 16/79/6 10/80/6
f 35/36/4 18/35/4 9/81/4 12/14/4 34/13/4 31/82/4
f 31/83/1 34/84/1 33/85/1 32/86/1 36/87/1 35/88/1
