# Blender v3.0.1 OBJ File: 'doors.blend'
# www.blender.org
mtllib bulkhead_floor_track.mtl
o bulkHead_floor_track_Cube.005
v 1.000000 -0.750674 -1.000000
v 1.000000 -0.750674 1.000000
v -1.000000 -0.750674 -1.000000
v -1.000000 -0.750674 1.000000
v -1.000000 -1.000674 1.000000
v 1.000000 -1.000674 -1.000000
v 1.000000 -1.000674 1.000000
v -1.000000 -1.000674 -1.000000
v 1.000000 -1.000674 -0.011649
v -1.000000 -1.000674 -0.011649
v 1.000000 -0.750674 0.494176
v 1.000000 -1.000674 0.494176
v -1.000000 -0.750674 0.494176
v -1.000000 -1.000674 0.494176
v -1.000000 -0.750674 -0.505824
v -1.000000 -1.000674 -0.505824
v 1.000000 -0.750674 -0.505824
v 1.000000 -1.000674 -0.505824
v 0.000000 -0.750674 0.494176
v 0.000000 -0.750674 -0.505824
v 0.500000 -0.750674 0.494176
v 0.500000 -0.750674 -0.505824
v -0.500000 -0.750674 0.494176
v -0.500000 -0.750674 -0.505824
v 0.750000 -0.918935 0.494176
v 0.750000 -0.918935 -0.505824
v -0.250000 -0.918935 0.494176
v -0.250000 -0.918935 -0.505824
v 0.250000 -0.918935 0.494176
v 0.250000 -0.918935 -0.505824
v -0.750000 -0.918935 0.494176
v -0.750000 -0.918935 -0.505824
vt 0.248544 1.000000
vt 0.186044 1.000000
vt 0.186044 0.500000
vt 0.248544 0.500000
vt 0.186044 0.623544
vt 0.123544 0.623544
vt 0.123544 0.500000
vt 0.186044 0.500000
vt 0.938956 0.126456
vt 0.876456 0.126456
vt 0.876456 0.000000
vt 0.938956 0.000000
vt 0.311044 1.000000
vt 0.248544 1.000000
vt 0.248544 0.500000
vt 0.311044 0.500000
vt 0.000000 0.373544
vt 0.500000 0.373544
vt 0.500000 0.500000
vt 0.000000 0.500000
vt 0.938956 0.252912
vt 0.938956 0.376456
vt 0.876456 0.376456
vt 0.186044 0.747088
vt 0.186044 0.873544
vt 0.123544 0.873544
vt 0.186044 1.000000
vt 0.123544 1.000000
vt 0.750000 0.125000
vt 0.500000 0.125000
vt 0.500000 0.062500
vt 0.750000 0.062500
vt 0.750000 0.500000
vt 0.750000 0.000000
vt 0.876456 0.000000
vt 0.876456 0.500000
vt 0.938956 0.500000
vt 0.876456 0.500000
vt 0.000000 0.000000
vt 0.500000 0.000000
vt 0.500000 0.123544
vt 0.000000 0.123544
vt 0.750000 0.312500
vt 0.500000 0.312500
vt 0.500000 0.250000
vt 0.750000 0.250000
vt 0.123544 0.500000
vt 0.123544 1.000000
vt 0.000000 1.000000
vt 0.000000 0.500000
vt 0.750000 0.187500
vt 0.500000 0.187500
vt 0.750000 0.437500
vt 0.500000 0.437500
vt 0.500000 0.375000
vt 0.750000 0.375000
vt 0.311044 0.562500
vt 0.353109 0.500000
vt 0.353109 0.625000
vt 0.437240 0.562500
vt 0.479305 0.500000
vt 0.479305 0.625000
vt 0.521371 0.562500
vt 0.563436 0.500000
vt 0.563436 0.625000
vt 0.605501 0.562500
vt 0.647567 0.500000
vt 0.647567 0.625000
vt 0.353109 0.562500
vt 0.395175 0.500000
vt 0.395175 0.625000
vt 0.479305 0.562500
vt 0.521371 0.500000
vt 0.521371 0.625000
vt 0.395175 0.562500
vt 0.437240 0.500000
vt 0.437240 0.625000
vt 0.563436 0.562500
vt 0.605501 0.500000
vt 0.605501 0.625000
vt 0.500000 0.000000
vt 0.750000 0.000000
vt 0.750000 0.500000
vt 0.500000 0.500000
vt 0.500000 0.247088
vt 0.000000 0.247088
vn 0.0000 0.0000 -1.0000
vn -1.0000 0.0000 0.0000
vn 1.0000 0.0000 0.0000
vn 0.0000 0.0000 1.0000
vn 0.0000 -1.0000 0.0000
vn 0.5584 0.8296 0.0000
vn 0.0000 1.0000 0.0000
vn -0.5584 0.8296 0.0000
usemtl Material.008
s off
f 8/1/1 3/2/1 1/3/1 6/4/1
f 16/5/2 15/6/2 3/7/2 8/8/2
f 12/9/3 11/10/3 2/11/3 7/12/3
f 7/13/4 2/14/4 4/15/4 5/16/4
f 14/17/5 12/18/5 7/19/5 5/20/5
f 9/21/3 18/22/3 17/23/3 11/10/3 12/9/3
f 10/24/2 14/25/2 13/26/2 15/6/2 16/5/2
f 5/27/2 4/28/2 13/26/2 14/25/2
f 22/29/6 21/30/6 25/31/6 26/32/6
f 4/33/7 2/34/7 11/35/7 13/36/7
f 6/37/3 1/38/3 17/23/3 18/22/3
f 8/39/5 6/40/5 18/41/5 16/42/5
f 28/43/8 27/44/8 19/45/8 20/46/8
f 15/47/7 17/48/7 1/49/7 3/50/7
f 30/51/8 29/52/8 21/30/8 22/29/8
f 32/53/8 31/54/8 23/55/8 24/56/8
f 19/45/6 29/52/6 30/51/6 20/46/6
f 32/57/4 24/58/4 15/59/4
f 24/56/6 23/55/6 27/44/6 28/43/6
f 30/60/4 22/61/4 20/62/4
f 28/63/4 20/64/4 24/65/4
f 26/66/4 17/67/4 22/68/4
f 25/69/1 21/70/1 11/71/1
f 29/72/1 19/73/1 21/74/1
f 27/75/1 23/76/1 19/77/1
f 31/78/1 13/79/1 23/80/1
f 11/81/8 17/82/8 26/32/8 25/31/8
f 31/54/6 32/53/6 15/83/6 13/84/6
f 16/42/5 18/41/5 9/85/5 12/18/5 14/17/5 10/86/5
