# Blender v3.0.1 OBJ File: 'doors.blend'
# www.blender.org
mtllib bulkhead_floor_flat.mtl
o bulkHead_floor_flat_Cube.003
v 1.000000 -0.750674 -1.000000
v 1.000000 -0.750674 1.000000
v -1.000000 -0.750674 -1.000000
v -1.000000 -0.750674 1.000000
v -1.000000 -1.000674 1.000000
v 1.000000 -1.000674 -1.000000
v 1.000000 -1.000674 1.000000
v -1.000000 -1.000674 -1.000000
vt 0.750000 0.500000
vt 0.687500 0.500000
vt 0.687500 0.000000
vt 0.750000 0.000000
vt 0.687500 0.500000
vt 0.625000 0.500000
vt 0.625000 0.000000
vt 0.687500 0.000000
vt 0.625000 0.500000
vt 0.562500 0.500000
vt 0.562500 0.000000
vt 0.625000 0.000000
vt 0.562500 0.500000
vt 0.500000 0.500000
vt 0.500000 0.000000
vt 0.562500 0.000000
vt 0.000000 0.000000
vt 0.500000 0.000000
vt 0.500000 0.500000
vt 0.000000 0.500000
vt 0.000000 0.500000
vt 0.500000 0.500000
vt 0.500000 1.000000
vt 0.000000 1.000000
vn 0.0000 0.0000 -1.0000
vn -1.0000 0.0000 0.0000
vn 1.0000 0.0000 0.0000
vn 0.0000 0.0000 1.0000
vn 0.0000 -1.0000 0.0000
vn 0.0000 1.0000 0.0000
usemtl Material.004
s off
f 8/1/1 3/2/1 1/3/1 6/4/1
f 5/5/2 4/6/2 3/7/2 8/8/2
f 6/9/3 1/10/3 2/11/3 7/12/3
f 7/13/4 2/14/4 4/15/4 5/16/4
f 8/17/5 6/18/5 7/19/5 5/20/5
f 1/21/6 3/22/6 4/23/6 2/24/6
