# Blender v3.0.1 OBJ File: 'missiles.blend'
# www.blender.org
mtllib missile1X3.mtl
o missile1X3_Cylinder
v 0.000000 -0.830422 -0.700000
v 0.000000 3.899553 -0.700000
v 0.136563 -0.830422 -0.686550
v 0.136563 3.899553 -0.686550
v 0.267878 -0.830422 -0.646716
v 0.267878 3.899553 -0.646716
v 0.388899 -0.830422 -0.582029
v 0.388899 3.899553 -0.582029
v 0.494975 -0.830422 -0.494975
v 0.494975 3.899553 -0.494975
v 0.582029 -0.830422 -0.388899
v 0.582029 3.899553 -0.388899
v 0.646716 -0.830422 -0.267878
v 0.646716 3.899553 -0.267878
v 0.686550 -0.830422 -0.136563
v 0.686550 3.899553 -0.136563
v 0.700000 -0.830422 0.000000
v 0.700000 3.899553 0.000000
v 0.686550 -0.830422 0.136563
v 0.686550 3.899553 0.136563
v 0.646716 -0.830422 0.267878
v 0.646716 3.899553 0.267878
v 0.582029 -0.830422 0.388899
v 0.582029 3.899553 0.388899
v 0.494975 -0.830422 0.494975
v 0.494975 3.899553 0.494975
v 0.388899 -0.830422 0.582029
v 0.388899 3.899553 0.582029
v 0.267878 -0.830422 0.646716
v 0.267878 3.899553 0.646716
v 0.136563 -0.830422 0.686550
v 0.136563 3.899553 0.686550
v -0.000000 -0.830422 0.700000
v -0.000000 3.899553 0.700000
v -0.136563 -0.830422 0.686550
v -0.136563 3.899553 0.686550
v -0.267878 -0.830422 0.646716
v -0.267878 3.899553 0.646716
v -0.388899 -0.830422 0.582029
v -0.388899 3.899553 0.582029
v -0.494975 -0.830422 0.494975
v -0.494975 3.899553 0.494975
v -0.582029 -0.830422 0.388899
v -0.582029 3.899553 0.388899
v -0.646716 -0.830422 0.267879
v -0.646716 3.899553 0.267879
v -0.686550 -0.830422 0.136563
v -0.686550 3.899553 0.136563
v -0.700000 -0.830422 -0.000000
v -0.700000 3.899553 -0.000000
v -0.686550 -0.830422 -0.136563
v -0.686550 3.899553 -0.136563
v -0.646716 -0.830422 -0.267879
v -0.646716 3.899553 -0.267879
v -0.582029 -0.830422 -0.388899
v -0.582029 3.899553 -0.388899
v -0.494975 -0.830422 -0.494975
v -0.494975 3.899553 -0.494975
v -0.388899 -0.830422 -0.582029
v -0.388899 3.899553 -0.582029
v -0.267878 -0.830422 -0.646716
v -0.267878 3.899553 -0.646716
v -0.136563 -0.830422 -0.686550
v -0.136563 3.899553 -0.686550
v 0.000000 5.169578 0.000000
v 0.000000 1.534566 -0.700000
v 0.136563 1.534566 -0.686550
v 0.267878 1.534566 -0.646716
v 0.388899 1.534566 -0.582029
v 0.494975 1.534566 -0.494975
v 0.582029 1.534566 -0.388899
v 0.646716 1.534566 -0.267878
v 0.686550 1.534566 -0.136563
v 0.700000 1.534566 0.000000
v 0.686550 1.534566 0.136563
v 0.646716 1.534566 0.267878
v 0.582029 1.534566 0.388899
v 0.494975 1.534566 0.494975
v 0.388899 1.534566 0.582029
v 0.267878 1.534566 0.646716
v 0.136563 1.534566 0.686550
v -0.000000 1.534566 0.700000
v -0.136563 1.534566 0.686550
v -0.267878 1.534566 0.646716
v -0.388899 1.534566 0.582029
v -0.494975 1.534566 0.494975
v -0.582029 1.534566 0.388899
v -0.646716 1.534566 0.267879
v -0.686550 1.534566 0.136563
v -0.700000 1.534566 -0.000000
v -0.686550 1.534566 -0.136563
v -0.646716 1.534566 -0.267879
v -0.582029 1.534566 -0.388899
v -0.494975 1.534566 -0.494975
v -0.388899 1.534566 -0.582029
v -0.267878 1.534566 -0.646716
v -0.136563 1.534566 -0.686550
v 0.136563 0.352072 -0.686550
v 0.267878 0.352072 -0.646716
v 0.388899 0.352072 -0.582029
v 0.494975 0.352072 -0.494975
v 0.582029 0.352072 -0.388899
v 0.646716 0.352072 -0.267878
v 0.686550 0.352072 -0.136563
v 0.700000 0.352072 0.000000
v 0.686550 0.352072 0.136563
v 0.646716 0.352072 0.267878
v 0.582029 0.352072 0.388899
v 0.494975 0.352072 0.494975
v 0.388899 0.352072 0.582029
v 0.267878 0.352072 0.646716
v 0.136563 0.352072 0.686550
v -0.000000 0.352072 0.700000
v -0.136563 0.352072 0.686550
v -0.267878 0.352072 0.646716
v -0.388899 0.352072 0.582029
v -0.494975 0.352072 0.494975
v -0.582029 0.352072 0.388899
v -0.646716 0.352072 0.267879
v -0.686550 0.352072 0.136563
v -0.700000 0.352072 -0.000000
v -0.686550 0.352072 -0.136563
v -0.646716 0.352072 -0.267879
v -0.582029 0.352072 -0.388899
v -0.494975 0.352072 -0.494975
v -0.388899 0.352072 -0.582029
v -0.267878 0.352072 -0.646716
v -0.136563 0.352072 -0.686550
v 0.000000 0.352072 -0.700000
v 0.000000 -0.830422 -0.700000
v 0.136563 -0.830422 -0.686550
v 0.136563 0.352072 -0.686550
v 0.700000 0.352072 0.000000
v 0.700000 -0.830422 0.000000
v 0.686550 -0.830422 0.136563
v 0.686550 0.352072 0.136563
v -0.000000 0.352072 0.700000
v -0.000000 -0.830422 0.700000
v -0.136563 -0.830422 0.686550
v -0.136563 0.352072 0.686550
v -0.700000 0.352072 -0.000000
v -0.700000 -0.830422 -0.000000
v -0.686550 -0.830422 -0.136563
v -0.686550 0.352072 -0.136563
v 0.000000 0.352072 -0.700000
v 0.045743 -0.830422 -1.164438
v 0.182306 -0.830422 -1.150988
v 1.164438 -0.830422 0.045743
v 1.150988 -0.830422 0.182306
v -0.045743 -0.830422 1.164438
v -0.182306 -0.830422 1.150988
v -1.164438 -0.830422 -0.045743
v -1.150988 -0.830422 -0.182307
vt 0.937500 0.750000
vt 0.937500 1.000000
vt 0.906250 1.000000
vt 0.906250 0.750000
vt 0.906250 0.625000
vt 0.906250 0.500000
vt 0.937500 0.500000
vt 0.937500 0.625000
vt 0.875000 1.000000
vt 0.875000 0.750000
vt 0.875000 0.625000
vt 0.875000 0.500000
vt 0.843750 1.000000
vt 0.843750 0.750000
vt 0.843750 0.625000
vt 0.843750 0.500000
vt 0.750000 0.750000
vt 0.750000 1.000000
vt 0.718750 1.000000
vt 0.718750 0.750000
vt 0.718750 0.625000
vt 0.750000 0.625000
vt 0.500000 0.750000
vt 0.500000 1.000000
vt 0.468750 1.000000
vt 0.468750 0.750000
vt 0.468750 0.625000
vt 0.500000 0.625000
vt 0.437500 0.750000
vt 0.437500 1.000000
vt 0.406250 1.000000
vt 0.406250 0.750000
vt 0.406250 0.625000
vt 0.406250 0.500000
vt 0.437500 0.500000
vt 0.437500 0.625000
vt 0.187500 0.750000
vt 0.187500 1.000000
vt 0.156250 1.000000
vt 0.156250 0.750000
vt 0.156250 0.625000
vt 0.156250 0.500000
vt 0.187500 0.500000
vt 0.187500 0.625000
vt 0.125000 1.000000
vt 0.125000 0.750000
vt 0.125000 0.625000
vt 0.125000 0.500000
vt 0.093750 1.000000
vt 0.093750 0.750000
vt 0.093750 0.625000
vt 0.093750 0.500000
vt 0.062500 1.000000
vt 0.062500 0.750000
vt 0.062500 0.625000
vt 0.062500 0.500000
vt 0.031250 1.000000
vt 0.031250 0.750000
vt 0.031250 0.625000
vt 0.031250 0.500000
vt 0.000000 1.000000
vt 0.000000 0.750000
vt 0.000000 0.625000
vt 0.000000 0.500000
vt 1.000000 0.750000
vt 1.000000 1.000000
vt 0.968750 1.000000
vt 0.968750 0.750000
vt 0.968750 0.625000
vt 1.000000 0.625000
vt 0.750000 0.490000
vt 0.796822 0.485388
vt 0.841844 0.471731
vt 0.883337 0.449553
vt 0.919706 0.419706
vt 0.949553 0.383337
vt 0.971731 0.341844
vt 0.985388 0.296822
vt 0.990000 0.250000
vt 0.985388 0.203178
vt 0.971731 0.158156
vt 0.949553 0.116663
vt 0.919706 0.080294
vt 0.883337 0.050447
vt 0.841844 0.028269
vt 0.796822 0.014612
vt 0.750000 0.010000
vt 0.703178 0.014612
vt 0.658156 0.028269
vt 0.616663 0.050447
vt 0.580294 0.080294
vt 0.550447 0.116663
vt 0.528269 0.158156
vt 0.514612 0.203178
vt 0.510000 0.250000
vt 0.514612 0.296822
vt 0.528269 0.341844
vt 0.550447 0.383337
vt 0.580294 0.419706
vt 0.616663 0.449553
vt 0.658156 0.471731
vt 0.703178 0.485388
vt 0.250000 0.490000
vt 0.250000 0.250000
vt 0.296822 0.485388
vt 0.341844 0.471731
vt 0.383337 0.449553
vt 0.419706 0.419706
vt 0.449553 0.383337
vt 0.471731 0.341844
vt 0.485388 0.296822
vt 0.490000 0.250000
vt 0.485388 0.203178
vt 0.471731 0.158156
vt 0.449553 0.116663
vt 0.419706 0.080294
vt 0.383337 0.050447
vt 0.341844 0.028269
vt 0.296822 0.014612
vt 0.250000 0.010000
vt 0.203178 0.014612
vt 0.158156 0.028269
vt 0.116663 0.050447
vt 0.080294 0.080294
vt 0.050447 0.116663
vt 0.028269 0.158156
vt 0.014612 0.203178
vt 0.010000 0.250000
vt 0.014612 0.296822
vt 0.028269 0.341844
vt 0.050447 0.383337
vt 0.080294 0.419706
vt 0.116663 0.449553
vt 0.158156 0.471731
vt 0.750000 0.490000
vt 0.796822 0.485388
vt 0.841844 0.471731
vt 0.883337 0.449553
vt 0.919706 0.419706
vt 0.949553 0.383337
vt 0.971731 0.341844
vt 0.985388 0.296822
vt 0.990000 0.250000
vt 0.985388 0.203178
vt 0.971731 0.158156
vt 0.949553 0.116663
vt 0.919706 0.080294
vt 0.883337 0.050447
vt 0.841844 0.028269
vt 0.796822 0.014612
vt 0.750000 0.010000
vt 0.703178 0.014612
vt 0.658156 0.028269
vt 0.616663 0.050447
vt 0.580294 0.080294
vt 0.550447 0.116663
vt 0.528269 0.158156
vt 0.514612 0.203178
vt 0.510000 0.250000
vt 0.514612 0.296822
vt 0.528269 0.341844
vt 0.550447 0.383337
vt 0.580294 0.419706
vt 0.616663 0.449553
vt 0.658156 0.471731
vt 0.703178 0.485388
vt 0.203178 0.485388
vt 0.968750 0.625000
vt 0.968750 0.500000
vt 1.000000 0.500000
vt 1.000000 0.625000
vt 0.812500 1.000000
vt 0.812500 0.750000
vt 0.812500 0.625000
vt 0.812500 0.500000
vt 0.781250 1.000000
vt 0.781250 0.750000
vt 0.781250 0.625000
vt 0.781250 0.500000
vt 0.750000 0.500000
vt 0.687500 1.000000
vt 0.687500 0.750000
vt 0.687500 0.625000
vt 0.687500 0.500000
vt 0.718750 0.500000
vt 0.750000 0.625000
vt 0.750000 0.500000
vt 0.656250 1.000000
vt 0.656250 0.750000
vt 0.656250 0.625000
vt 0.656250 0.500000
vt 0.625000 1.000000
vt 0.625000 0.750000
vt 0.625000 0.625000
vt 0.625000 0.500000
vt 0.593750 1.000000
vt 0.593750 0.750000
vt 0.593750 0.625000
vt 0.593750 0.500000
vt 0.562500 1.000000
vt 0.562500 0.750000
vt 0.562500 0.625000
vt 0.562500 0.500000
vt 0.531250 1.000000
vt 0.531250 0.750000
vt 0.531250 0.625000
vt 0.531250 0.500000
vt 0.500000 0.500000
vt 0.000000 0.625000
vt 0.000000 0.500000
vt 0.375000 1.000000
vt 0.375000 0.750000
vt 0.375000 0.625000
vt 0.375000 0.500000
vt 0.468750 0.500000
vt 0.343750 1.000000
vt 0.343750 0.750000
vt 0.343750 0.625000
vt 0.343750 0.500000
vt 0.312500 1.000000
vt 0.312500 0.750000
vt 0.312500 0.625000
vt 0.312500 0.500000
vt 0.281250 1.000000
vt 0.281250 0.750000
vt 0.281250 0.625000
vt 0.281250 0.500000
vt 0.250000 1.000000
vt 0.250000 0.750000
vt 0.250000 0.625000
vt 0.250000 0.500000
vt 0.218750 0.750000
vt 0.218750 1.000000
vt 0.218750 0.500000
vt 0.218750 0.625000
vt 0.218750 0.500000
vt 0.218750 0.625000
vt 0.968750 0.500000
vt 0.500000 0.500000
vt 0.500000 0.625000
vt 0.500000 0.500000
vt 0.718750 0.625000
vt 0.718750 0.500000
vt 0.718750 0.500000
vt 0.000000 0.500000
vt 0.750000 0.500000
vt 0.990000 0.250000
vt 0.985388 0.203178
vt 0.968750 0.500000
vt 0.468750 0.625000
vt 0.468750 0.500000
vt 0.218750 0.500000
vt 0.250000 0.500000
vt 0.250000 0.625000
vt 0.750000 0.010000
vt 0.703178 0.014612
vt 0.250000 0.500000
vt 0.510000 0.250000
vt 0.514612 0.296822
vt 0.468750 0.500000
vt 0.750000 0.490000
vt 0.796822 0.485388
vt 0.750000 0.010000
vt 0.703178 0.014612
vt 0.750000 0.490000
vt 0.796822 0.485388
vt 0.510000 0.250000
vt 0.514612 0.296822
vt 0.990000 0.250000
vt 0.985388 0.203178
vn 0.4714 0.0000 -0.8819
vn 0.6344 0.0000 -0.7730
vn 0.7730 0.0000 -0.6344
vn 0.9952 0.0000 0.0980
vn -0.0980 0.0000 0.9952
vn -0.4714 0.0000 0.8819
vn -0.8819 0.0000 -0.4714
vn -0.7730 0.0000 -0.6344
vn -0.6344 0.0000 -0.7730
vn -0.4714 0.0000 -0.8819
vn -0.2903 0.0000 -0.9569
vn -0.0980 0.0000 -0.9952
vn 0.0980 0.0000 -0.9952
vn 0.0000 -1.0000 0.0000
vn 0.0859 0.4809 -0.8725
vn 0.2545 0.4809 -0.8390
vn 0.4133 0.4809 -0.7732
vn 0.5562 0.4809 -0.6777
vn 0.6777 0.4809 -0.5562
vn 0.7732 0.4809 -0.4133
vn 0.8390 0.4809 -0.2545
vn 0.8725 0.4809 -0.0859
vn 0.8725 0.4809 0.0859
vn 0.8390 0.4809 0.2545
vn 0.7732 0.4809 0.4133
vn 0.6777 0.4809 0.5562
vn 0.5562 0.4809 0.6777
vn 0.4133 0.4809 0.7732
vn 0.2545 0.4809 0.8390
vn 0.0859 0.4809 0.8725
vn -0.0859 0.4809 0.8725
vn -0.2545 0.4809 0.8390
vn -0.4133 0.4809 0.7732
vn -0.5562 0.4809 0.6777
vn -0.6777 0.4809 0.5562
vn -0.7732 0.4809 0.4133
vn -0.8390 0.4809 0.2545
vn -0.8725 0.4809 0.0859
vn -0.8725 0.4809 -0.0859
vn -0.8390 0.4809 -0.2545
vn -0.7732 0.4809 -0.4133
vn -0.6777 0.4809 -0.5562
vn -0.5562 0.4809 -0.6777
vn -0.4133 0.4809 -0.7732
vn -0.2545 0.4809 -0.8390
vn -0.0859 0.4809 -0.8725
vn 0.0912 0.3671 -0.9257
vn 0.8819 0.0000 -0.4714
vn 0.9569 0.0000 -0.2903
vn 0.9952 0.0000 -0.0980
vn 0.9569 0.0000 0.2903
vn 0.0000 0.0000 1.0000
vn 0.8819 0.0000 0.4714
vn 0.7730 0.0000 0.6344
vn 0.6344 0.0000 0.7730
vn 0.4714 0.0000 0.8819
vn 0.2903 0.0000 0.9569
vn 0.0980 0.0000 0.9952
vn -0.6344 0.0000 0.7730
vn -0.2903 0.0000 0.9569
vn -0.7730 0.0000 0.6344
vn -0.8819 0.0000 0.4714
vn -0.9569 0.0000 0.2903
vn -0.9952 0.0000 0.0980
vn -0.9569 0.0000 -0.2903
vn 0.2903 0.0000 -0.9569
vn -0.9952 0.0000 -0.0980
vn 0.9257 0.3671 0.0912
vn -0.0912 0.3671 0.9257
vn -0.9257 0.3671 -0.0912
usemtl Material.002
s off
f 68/1/1 6/2/1 8/3/1 69/4/1 100/5/1 7/6/1 5/7/1 99/8/1
f 69/4/2 8/3/2 10/9/2 70/10/2 101/11/2 9/12/2 7/6/2 100/5/2
f 9/12/3 101/11/3 70/10/3 10/9/3 12/13/3 71/14/3 102/15/3 11/16/3
f 74/17/4 18/18/4 20/19/4 75/20/4 106/21/4 105/22/4
f 82/23/5 34/24/5 36/25/5 83/26/5 114/27/5 113/28/5
f 84/29/6 38/30/6 40/31/6 85/32/6 116/33/6 39/34/6 37/35/6 115/36/6
f 92/37/7 54/38/7 56/39/7 93/40/7 124/41/7 55/42/7 53/43/7 123/44/7
f 93/40/8 56/39/8 58/45/8 94/46/8 125/47/8 57/48/8 55/42/8 124/41/8
f 94/46/9 58/45/9 60/49/9 95/50/9 126/51/9 59/52/9 57/48/9 125/47/9
f 95/50/10 60/49/10 62/53/10 96/54/10 127/55/10 61/56/10 59/52/10 126/51/10
f 96/54/11 62/53/11 64/57/11 97/58/11 128/59/11 63/60/11 61/56/11 127/55/11
f 63/60/12 128/59/12 97/58/12 64/57/12 2/61/12 66/62/12 129/63/12 1/64/12
f 66/65/13 2/66/13 4/67/13 67/68/13 98/69/13 129/70/13
f 1/71/14 3/72/14 5/73/14 7/74/14 9/75/14 11/76/14 13/77/14 15/78/14 17/79/14 19/80/14 21/81/14 23/82/14 25/83/14 27/84/14 29/85/14 31/86/14 33/87/14 35/88/14 37/89/14 39/90/14 41/91/14 43/92/14 45/93/14 47/94/14 49/95/14 51/96/14 53/97/14 55/98/14 57/99/14 59/100/14 61/101/14 63/102/14
f 2/103/15 65/104/15 4/105/15
f 4/105/16 65/104/16 6/106/16
f 6/106/17 65/104/17 8/107/17
f 8/107/18 65/104/18 10/108/18
f 10/108/19 65/104/19 12/109/19
f 12/109/20 65/104/20 14/110/20
f 14/110/21 65/104/21 16/111/21
f 16/111/22 65/104/22 18/112/22
f 18/112/23 65/104/23 20/113/23
f 20/113/24 65/104/24 22/114/24
f 22/114/25 65/104/25 24/115/25
f 24/115/26 65/104/26 26/116/26
f 26/116/27 65/104/27 28/117/27
f 28/117/28 65/104/28 30/118/28
f 30/118/29 65/104/29 32/119/29
f 32/119/30 65/104/30 34/120/30
f 34/120/31 65/104/31 36/121/31
f 36/121/32 65/104/32 38/122/32
f 38/122/33 65/104/33 40/123/33
f 40/123/34 65/104/34 42/124/34
f 42/124/35 65/104/35 44/125/35
f 44/125/36 65/104/36 46/126/36
f 46/126/37 65/104/37 48/127/37
f 48/127/38 65/104/38 50/128/38
f 50/128/39 65/104/39 52/129/39
f 52/129/40 65/104/40 54/130/40
f 54/130/41 65/104/41 56/131/41
f 56/131/42 65/104/42 58/132/42
f 58/132/43 65/104/43 60/133/43
f 60/133/44 65/104/44 62/134/44
f 2/135/14 4/136/14 6/137/14 8/138/14 10/139/14 12/140/14 14/141/14 16/142/14 18/143/14 20/144/14 22/145/14 24/146/14 26/147/14 28/148/14 30/149/14 32/150/14 34/151/14 36/152/14 38/153/14 40/154/14 42/155/14 44/156/14 46/157/14 48/158/14 50/159/14 52/160/14 54/161/14 56/162/14 58/163/14 60/164/14 62/165/14 64/166/14
f 62/134/45 65/104/45 64/167/45
f 64/167/46 65/104/46 2/103/46
f 132/168/47 147/169/47 146/170/47 145/171/47 129/70/47 98/69/47
f 71/14/48 12/13/48 14/172/48 72/173/48 103/174/48 13/175/48 11/16/48 102/15/48
f 72/173/49 14/172/49 16/176/49 73/177/49 104/178/49 15/179/49 13/175/49 103/174/49
f 73/177/50 16/176/50 18/18/50 74/17/50 105/22/50 17/180/50 15/179/50 104/178/50
f 75/20/51 20/19/51 22/181/51 76/182/51 107/183/51 21/184/51 19/185/51 106/21/51
f 17/180/52 105/22/52 133/186/52 134/187/52
f 76/182/53 22/181/53 24/188/53 77/189/53 108/190/53 23/191/53 21/184/53 107/183/53
f 77/189/54 24/188/54 26/192/54 78/193/54 109/194/54 25/195/54 23/191/54 108/190/54
f 78/193/55 26/192/55 28/196/55 79/197/55 110/198/55 27/199/55 25/195/55 109/194/55
f 79/197/56 28/196/56 30/200/56 80/201/56 111/202/56 29/203/56 27/199/56 110/198/56
f 80/201/57 30/200/57 32/204/57 81/205/57 112/206/57 31/207/57 29/203/57 111/202/57
f 81/205/58 32/204/58 34/24/58 82/23/58 113/28/58 33/208/58 31/207/58 112/206/58
f 1/64/52 129/63/52 145/209/52 130/210/52
f 85/32/59 40/31/59 42/211/59 86/212/59 117/213/59 41/214/59 39/34/59 116/33/59
f 83/26/60 36/25/60 38/30/60 84/29/60 115/36/60 37/35/60 35/215/60 114/27/60
f 86/212/61 42/211/61 44/216/61 87/217/61 118/218/61 43/219/61 41/214/61 117/213/61
f 87/217/62 44/216/62 46/220/62 88/221/62 119/222/62 45/223/62 43/219/62 118/218/62
f 88/221/63 46/220/63 48/224/63 89/225/63 120/226/63 47/227/63 45/223/63 119/222/63
f 89/225/64 48/224/64 50/228/64 90/229/64 121/230/64 49/231/64 47/227/64 120/226/64
f 91/232/65 52/233/65 54/38/65 92/37/65 123/44/65 53/43/65 51/234/65 122/235/65
f 122/235/52 51/234/52 143/236/52 144/237/52
f 67/68/66 4/67/66 6/2/66 68/1/66 99/8/66 5/7/66 3/238/66 98/69/66
f 138/239/4 137/240/4 150/241/4
f 136/242/5 135/243/5 149/244/5
f 130/210/67 145/209/67 146/245/67
f 136/242/68 149/244/68 148/246/68 133/186/68 105/22/68 106/21/68
f 19/80/52 17/79/52 134/247/52 135/248/52
f 98/69/52 3/238/52 131/249/52 132/168/52
f 140/250/69 151/251/69 150/241/69 137/240/69 113/28/69 114/27/69
f 33/208/52 113/28/52 137/240/52 138/239/52
f 144/237/70 153/252/70 152/253/70 141/254/70 121/230/70 122/235/70
f 35/88/52 33/87/52 138/255/52 139/256/52
f 106/21/52 19/185/52 135/243/52 136/242/52
f 49/231/52 121/230/52 141/254/52 142/257/52
f 51/96/52 49/95/52 142/258/52 143/259/52
f 114/27/52 35/215/52 139/260/52 140/250/52
f 3/72/52 1/71/52 130/261/52 131/262/52
f 139/256/14 138/255/14 150/263/14 151/264/14
f 140/250/67 139/260/67 151/251/67
f 131/262/14 130/261/14 146/265/14 147/266/14
f 142/257/5 141/254/5 152/253/5
f 132/168/4 131/249/4 147/169/4
f 143/259/14 142/258/14 152/267/14 153/268/14
f 134/187/13 133/186/13 148/246/13
f 144/237/13 143/236/13 153/252/13
f 135/248/14 134/247/14 148/269/14 149/270/14
f 90/229/67 50/228/67 52/233/67 91/232/67 122/235/67 121/230/67
