# Blender v3.0.1 OBJ File: 'rail.blend'
# www.blender.org
mtllib flat_cart.mtl
o flat_cart_Cube.014
v -1.000000 -0.079900 1.000000
v -1.000000 -0.079900 -1.000000
v 1.000000 -0.079900 1.000000
v 1.000000 -0.079900 -1.000000
v -1.000000 0.036047 1.000000
v -1.000000 0.036047 -1.000000
v 1.000000 0.036047 -1.000000
v 1.000000 0.036047 1.000000
v -1.000000 -0.079900 0.000000
v 1.000000 -0.079900 0.000000
v -1.000000 -0.079900 -0.250000
v 1.000000 -0.079900 -0.250000
v 1.000000 -0.079900 0.250000
v -1.000000 -0.079900 0.250000
v -1.000000 -0.385749 -0.250000
v -1.000000 -0.385749 0.000000
v 1.000000 -0.385749 0.250000
v 1.000000 -0.385749 0.000000
v 1.000000 -0.385749 -0.250000
v -1.000000 -0.385749 0.250000
vt 0.412360 1.000000
vt 0.383373 1.000000
vt 0.383373 0.500000
vt 0.412360 0.500000
vt 0.441347 1.000000
vt 0.412360 1.000000
vt 0.412360 0.500000
vt 0.441347 0.500000
vt 0.125000 0.500000
vt 0.125000 1.000000
vt 0.062500 1.000000
vt 0.000000 1.000000
vt 0.000000 0.500000
vt 0.062500 0.500000
vt 0.903987 0.312500
vt 0.903987 0.250000
vt 0.903987 0.187500
vt 0.980449 0.187500
vt 0.980449 0.250000
vt 0.980449 0.312500
vt 0.500000 0.500000
vt 0.500000 0.000000
vt 0.687500 0.000000
vt 0.687500 0.500000
vt 0.125000 0.500000
vt 0.153987 0.500000
vt 0.153987 0.687500
vt 0.153987 0.750000
vt 0.153987 0.812500
vt 0.153987 1.000000
vt 0.125000 1.000000
vt 0.875000 0.000000
vt 0.903987 0.000000
vt 0.903987 0.500000
vt 0.875000 0.500000
vt 0.230449 0.687500
vt 0.230449 0.750000
vt 0.230449 0.812500
vt 0.306911 1.000000
vt 0.306911 0.500000
vt 0.383373 0.500000
vt 0.383373 1.000000
vt 0.230449 1.000000
vt 0.230449 0.500000
vt 0.306911 0.500000
vt 0.306911 1.000000
vt 0.000000 0.500000
vt 0.000000 0.000000
vt 0.500000 0.000000
vt 0.500000 0.500000
vt 0.875000 0.000000
vt 0.875000 0.500000
vt 0.687500 0.500000
vt 0.687500 0.000000
vn 0.0000 0.0000 -1.0000
vn 0.0000 0.0000 1.0000
vn 0.0000 -1.0000 0.0000
vn -1.0000 0.0000 0.0000
vn 1.0000 0.0000 0.0000
vn 0.0000 1.0000 0.0000
usemtl Material.012
s off
f 2/1/1 6/2/1 7/3/1 4/4/1
f 3/5/2 8/6/2 5/7/2 1/8/2
f 15/9/3 19/10/3 18/11/3 17/12/3 20/13/3 16/14/3
f 14/15/4 9/16/4 11/17/4 15/18/4 16/19/4 20/20/4
f 3/21/3 1/22/3 14/23/3 13/24/3
f 8/25/5 3/26/5 13/27/5 10/28/5 12/29/5 4/30/5 7/31/5
f 6/32/4 2/33/4 11/17/4 9/16/4 14/15/4 1/34/4 5/35/4
f 10/28/5 13/27/5 17/36/5 18/37/5 19/38/5 12/29/5
f 13/39/2 14/40/2 20/41/2 17/42/2
f 11/43/1 12/44/1 19/45/1 15/46/1
f 8/47/6 7/48/6 6/49/6 5/50/6
f 2/51/3 4/52/3 12/53/3 11/54/3
