# Blender v3.0.1 OBJ File: 'aircraft.blend'
# www.blender.org
mtllib thopter_wing_br.mtl
o large_wing.BR_Cylinder.003
v 2.963672 1.391240 -5.041508
v 2.963672 1.307759 -5.041508
v 2.951099 1.391240 -6.236288
v 2.951099 1.307759 -6.236288
v 2.778928 1.391240 -6.891926
v 2.778928 1.307759 -6.891926
v 2.579005 1.391240 -7.453955
v 2.579005 1.307759 -7.453955
v 2.319766 1.391240 -7.453955
v 2.319766 1.307759 -7.453955
v 1.992136 1.391240 -6.891926
v 1.992136 1.307759 -6.891926
v 1.765409 1.391240 -6.236288
v 1.765409 1.307759 -6.236288
v 1.684490 1.391240 -5.041508
v 1.684490 1.307759 -5.041508
v 1.765408 1.391240 -3.496098
v 1.765408 1.307759 -3.496098
v 1.992136 1.391240 -2.131222
v 1.992136 1.307759 -2.131222
v 2.359100 1.391240 -1.063094
v 2.359100 1.307758 -1.063094
v 2.644073 1.391240 -1.063094
v 2.644073 1.307758 -1.063094
v 2.778928 1.391240 -2.131222
v 2.778928 1.307759 -2.131222
v 2.951099 1.391240 -3.496098
v 2.951099 1.307759 -3.496098
v 2.991558 1.391240 -5.831675
v 2.991558 1.307759 -5.831675
v 3.084378 1.349500 -5.041508
v 3.059851 1.349500 -6.236288
v 2.851925 1.391240 -6.571960
v 2.851925 1.307759 -6.571960
v 2.854187 1.349500 -6.891926
v 2.742821 1.391240 -7.187130
v 2.742821 1.307759 -7.187130
v 2.605865 1.349500 -7.453954
v 2.501587 1.391240 -7.638421
v 2.501587 1.307759 -7.638421
v 2.292906 1.349500 -7.453954
v 2.155951 1.391240 -7.187130
v 2.155951 1.307759 -7.187130
v 1.916877 1.349500 -6.891926
v 1.878772 1.391240 -6.571960
v 1.878772 1.307759 -6.571960
v 1.656656 1.349500 -6.236288
v 1.724950 1.391240 -5.831675
v 1.724950 1.307759 -5.831675
v 1.563785 1.349500 -5.041508
v 1.724949 1.391240 -4.268803
v 1.724949 1.307759 -4.268803
v 1.656656 1.349499 -3.496098
v 1.878772 1.391240 -2.813660
v 1.878772 1.307759 -2.813660
v 1.916877 1.349499 -2.131222
v 2.230724 1.391240 -1.597158
v 2.230724 1.307759 -1.597158
v 2.338051 1.349499 -1.063094
v 2.501587 1.391240 -1.063094
v 2.501587 1.307758 -1.063094
v 2.665123 1.349499 -1.063094
v 2.772450 1.391240 -1.597158
v 2.772450 1.307759 -1.597158
v 2.854187 1.349499 -2.131222
v 2.892292 1.391240 -2.813660
v 2.892292 1.307759 -2.813660
v 3.059851 1.349499 -3.496098
v 2.991558 1.391240 -4.268803
v 2.991558 1.307759 -4.268803
v 3.106287 1.349499 -4.268803
v 2.984297 1.349499 -2.813660
v 2.812463 1.349499 -1.597158
v 2.501587 1.349499 -1.063094
v 2.190711 1.349499 -1.597158
v 1.786767 1.349499 -2.813660
v 1.610220 1.349499 -4.268803
v 1.610220 1.349500 -5.831675
v 1.786767 1.349500 -6.571960
v 2.104892 1.349500 -7.187129
v 2.501587 1.349500 -7.638421
v 2.793880 1.349500 -7.187129
v 2.943930 1.349500 -6.571960
v 3.106287 1.349500 -5.831675
vt 0.144067 0.669614
vt 0.288134 0.672101
vt 0.288134 0.730605
vt 0.144067 0.728248
vt 0.144067 0.778570
vt 0.288134 0.780564
vt 0.288134 0.827718
vt 0.144067 0.826087
vt 0.144067 0.869439
vt 0.288134 0.870546
vt 0.288134 0.912100
vt 0.144067 0.911517
vt 0.432202 0.829726
vt 0.288134 0.829727
vt 0.288134 0.793565
vt 0.432202 0.791612
vt 0.432202 0.744756
vt 0.288134 0.748468
vt 0.288134 0.699841
vt 0.432202 0.694370
vt 0.432202 0.645114
vt 0.288134 0.651803
vt 0.288134 0.601811
vt 0.432202 0.593904
vt 0.432202 0.540203
vt 0.288134 0.548544
vt 0.288134 0.447322
vt 0.432202 0.438546
vt 0.432202 0.345814
vt 0.288134 0.354154
vt 0.288134 0.260986
vt 0.432202 0.253080
vt 0.432202 0.177658
vt 0.288134 0.184346
vt 0.288134 0.107706
vt 0.432202 0.102235
vt 0.432202 0.055715
vt 0.288134 0.058624
vt 0.288134 0.001530
vt 0.432202 0.000000
vt 0.976440 0.144067
vt 0.976440 0.288134
vt 0.955912 0.288134
vt 0.952880 0.144067
vt 0.144067 0.072872
vt 0.288134 0.073739
vt 0.288134 0.149664
vt 0.144067 0.148033
vt 0.947051 0.202001
vt 0.952880 0.260293
vt 0.948862 0.374130
vt 0.952880 0.485451
vt 0.947051 0.596773
vt 0.938579 0.695090
vt 0.922247 0.793407
vt 0.921314 0.870348
vt 0.902819 0.947289
vt 0.882291 0.947289
vt 0.861763 0.947289
vt 0.843269 0.870348
vt 0.808896 0.793407
vt 0.792564 0.695090
vt 0.776232 0.596773
vt 0.770403 0.485451
vt 0.764574 0.374130
vt 0.770403 0.260293
vt 0.776232 0.202001
vt 0.792564 0.153642
vt 0.808896 0.107545
vt 0.832496 0.065016
vt 0.856097 0.026576
vt 0.882291 0.000000
vt 0.893445 0.026576
vt 0.917045 0.065016
vt 0.922247 0.107545
vt 0.932763 0.153642
vt 0.144067 0.242410
vt 0.288134 0.244404
vt 0.288134 0.340328
vt 0.144067 0.337970
vt 0.144067 0.447018
vt 0.288134 0.449505
vt 0.288134 0.560163
vt 0.144067 0.557547
vt 0.580286 0.374130
vt 0.576269 0.260293
vt 0.582098 0.202001
vt 0.596385 0.153642
vt 0.606902 0.107545
vt 0.612104 0.065016
vt 0.635704 0.026576
vt 0.646858 0.000000
vt 0.673052 0.026576
vt 0.696652 0.065016
vt 0.720253 0.107545
vt 0.736585 0.153642
vt 0.752917 0.202001
vt 0.758745 0.260293
vt 0.764574 0.374130
vt 0.758745 0.485451
vt 0.752917 0.596773
vt 0.736585 0.695090
vt 0.720253 0.793407
vt 0.685880 0.870348
vt 0.667385 0.947289
vt 0.646858 0.947289
vt 0.626330 0.947289
vt 0.607835 0.870348
vt 0.606902 0.793407
vt 0.590570 0.695090
vt 0.582098 0.596773
vt 0.576269 0.485451
vt 0.000000 0.449505
vt 0.000000 0.560163
vt 0.000000 0.340328
vt 0.000000 0.244404
vt 0.000000 0.149664
vt 0.000000 0.073739
vt 0.000000 0.000456
vt 0.144067 0.000000
vt 0.288134 0.000456
vt 0.976440 0.000000
vt 0.955912 0.000000
vt 0.996967 0.000000
vt 1.000000 0.144067
vt 0.996967 0.288134
vt 0.576269 0.058624
vt 0.576269 0.001530
vt 0.576269 0.107706
vt 0.576269 0.184346
vt 0.576269 0.260986
vt 0.576269 0.354154
vt 0.576269 0.447322
vt 0.576269 0.548544
vt 0.576269 0.601811
vt 0.576269 0.651803
vt 0.576269 0.699841
vt 0.576269 0.748468
vt 0.576269 0.793565
vt 0.576269 0.829727
vt 0.000000 0.912100
vt 0.144067 0.940051
vt 0.000000 0.940051
vt 0.288134 0.940051
vt 0.000000 0.870546
vt 0.000000 0.827718
vt 0.000000 0.780564
vt 0.000000 0.730605
vt 0.000000 0.672101
vn 0.3497 -0.9361 -0.0375
vn 0.4437 -0.8890 -0.1128
vn 0.6585 -0.6147 -0.4342
vn -0.6706 -0.2157 -0.7098
vn -0.5238 -0.7926 -0.3121
vn -0.3803 -0.9145 -0.1379
vn -0.3341 -0.9423 -0.0184
vn -0.3499 -0.9366 0.0197
vn -0.4452 -0.8919 0.0794
vn -0.7902 -0.5780 0.2040
vn 0.0000 0.0000 1.0000
vn 0.5863 -0.8096 0.0265
vn -0.0000 -1.0000 -0.0000
vn 0.3837 -0.9227 0.0378
vn 0.3342 -0.9424 -0.0108
vn 0.0000 1.0000 0.0000
vn 0.3342 0.9424 -0.0108
vn 0.3499 0.9366 0.0197
vn 0.3499 -0.9366 0.0197
vn 0.3837 0.9227 0.0378
vn 0.4452 0.8919 0.0794
vn 0.4452 -0.8919 0.0794
vn 0.5863 0.8096 0.0265
vn 0.7902 0.5780 0.2040
vn 0.7902 -0.5780 0.2040
vn -0.7902 0.5780 0.2040
vn -0.5646 0.7796 0.2709
vn -0.5646 -0.7796 0.2709
vn -0.4452 0.8919 0.0794
vn -0.3831 0.9212 0.0683
vn -0.3831 -0.9212 0.0683
vn -0.3499 0.9366 0.0197
vn -0.3341 0.9423 0.0188
vn -0.3341 -0.9423 0.0188
vn -0.3341 0.9423 -0.0184
vn -0.3497 0.9361 -0.0375
vn -0.3497 -0.9361 -0.0375
vn -0.3803 0.9145 -0.1379
vn -0.4403 0.8821 -0.1675
vn -0.4403 -0.8821 -0.1675
vn -0.5238 0.7926 -0.3121
vn -0.6585 0.6147 -0.4342
vn -0.6585 -0.6147 -0.4342
vn -0.6706 0.2157 -0.7098
vn 0.8619 0.2773 -0.4245
vn 0.8619 -0.2773 -0.4245
vn 0.6585 0.6147 -0.4342
vn 0.5491 0.8309 -0.0897
vn 0.5491 -0.8309 -0.0897
vn 0.4437 0.8890 -0.1128
vn 0.3811 0.9164 -0.1221
vn 0.3811 -0.9164 -0.1221
vn 0.3497 0.9361 -0.0375
vn 0.3342 0.9425 0.0105
vn 0.3342 -0.9425 0.0105
usemtl Material.008
s off
f 84/1/1 30/2/1 4/3/1 32/4/1
f 83/5/2 34/6/2 6/7/2 35/8/2
f 82/9/3 37/10/3 8/11/3 38/12/3
f 81/13/4 40/14/4 10/15/4 41/16/4
f 80/17/5 43/18/5 12/19/5 44/20/5
f 79/21/6 46/22/6 14/23/6 47/24/6
f 78/25/7 49/26/7 16/27/7 50/28/7
f 77/29/8 52/30/8 18/31/8 53/32/8
f 76/33/9 55/34/9 20/35/9 56/36/9
f 75/37/10 58/38/10 22/39/10 59/40/10
f 74/41/11 61/42/11 24/43/11 62/44/11
f 73/45/12 64/46/12 26/47/12 65/48/12
f 4/49/13 30/50/13 2/51/13 70/52/13 28/53/13 67/54/13 26/55/13 64/56/13 24/57/13 61/58/13 22/59/13 58/60/13 20/61/13 55/62/13 18/63/13 52/64/13 16/65/13 49/66/13 14/67/13 46/68/13 12/69/13 43/70/13 10/71/13 40/72/13 8/73/13 37/74/13 6/75/13 34/76/13
f 72/77/14 67/78/14 28/79/14 68/80/14
f 71/81/15 70/82/15 2/83/15 31/84/15
f 1/85/16 29/86/16 3/87/16 33/88/16 5/89/16 36/90/16 7/91/16 39/92/16 9/93/16 42/94/16 11/95/16 45/96/16 13/97/16 48/98/16 15/99/16 51/100/16 17/101/16 54/102/16 19/103/16 57/104/16 21/105/16 60/106/16 23/107/16 63/108/16 25/109/16 66/110/16 27/111/16 69/112/16
f 69/113/17 71/81/17 31/84/17 1/114/17
f 27/115/18 68/80/18 71/81/18 69/113/18
f 68/80/19 28/79/19 70/82/19 71/81/19
f 66/116/20 72/77/20 68/80/20 27/115/20
f 25/117/21 65/48/21 72/77/21 66/116/21
f 65/48/22 26/47/22 67/78/22 72/77/22
f 63/118/23 73/45/23 65/48/23 25/117/23
f 23/119/24 62/120/24 73/45/24 63/118/24
f 62/120/25 24/121/25 64/46/25 73/45/25
f 60/122/11 74/41/11 62/44/11 23/123/11
f 21/124/11 59/125/11 74/41/11 60/122/11
f 59/125/11 22/126/11 61/42/11 74/41/11
f 57/127/26 75/37/26 59/40/26 21/128/26
f 19/129/27 56/36/27 75/37/27 57/127/27
f 56/36/28 20/35/28 58/38/28 75/37/28
f 54/130/29 76/33/29 56/36/29 19/129/29
f 17/131/30 53/32/30 76/33/30 54/130/30
f 53/32/31 18/31/31 55/34/31 76/33/31
f 51/132/32 77/29/32 53/32/32 17/131/32
f 15/133/33 50/28/33 77/29/33 51/132/33
f 50/28/34 16/27/34 52/30/34 77/29/34
f 48/134/35 78/25/35 50/28/35 15/133/35
f 13/135/36 47/24/36 78/25/36 48/134/36
f 47/24/37 14/23/37 49/26/37 78/25/37
f 45/136/38 79/21/38 47/24/38 13/135/38
f 11/137/39 44/20/39 79/21/39 45/136/39
f 44/20/40 12/19/40 46/22/40 79/21/40
f 42/138/41 80/17/41 44/20/41 11/137/41
f 9/139/42 41/16/42 80/17/42 42/138/42
f 41/16/43 10/15/43 43/18/43 80/17/43
f 39/140/44 81/13/44 41/16/44 9/139/44
f 7/141/45 38/12/45 81/142/45 39/143/45
f 38/12/46 8/11/46 40/144/46 81/142/46
f 36/145/47 82/9/47 38/12/47 7/141/47
f 5/146/48 35/8/48 82/9/48 36/145/48
f 35/8/49 6/7/49 37/10/49 82/9/49
f 33/147/50 83/5/50 35/8/50 5/146/50
f 3/148/51 32/4/51 83/5/51 33/147/51
f 32/4/52 4/3/52 34/6/52 83/5/52
f 29/149/53 84/1/53 32/4/53 3/148/53
f 1/114/54 31/84/54 84/1/54 29/149/54
f 31/84/55 2/83/55 30/2/55 84/1/55
