# Blender v3.0.1 OBJ File: 'vehicles2.blend'
# www.blender.org
mtllib car_platform.mtl
o car_platform_Cube
v -1.000000 -0.750181 3.000000
v 0.500000 -0.703098 2.750000
v -1.000000 -0.750181 -1.000000
v 0.500000 -0.703098 2.500000
v 1.000000 -0.750181 3.000000
v -0.500000 -0.701673 0.000000
v 1.000000 -0.750181 -1.000000
v -0.500000 -0.701673 2.750000
v -0.500000 -0.656015 0.000000
v -0.500000 -0.750181 0.000000
v -1.000000 -0.656015 0.000000
v -1.000000 -0.750181 0.000000
v -0.500000 -0.750181 -1.000000
v -0.500000 -0.750181 3.000000
v 0.500000 -0.703098 0.000000
v 0.500000 -0.703098 -0.545416
v 0.500000 -0.750181 -1.000000
v 0.500000 -0.750181 3.000000
v -0.500000 -0.701673 2.500000
v 0.500000 -0.703098 -0.772708
v -1.000000 -0.750181 2.500000
v -0.500000 -0.750181 2.500000
v -0.500000 -0.656015 2.500000
v -1.000000 -0.656015 2.500000
v -1.000000 -0.750181 2.750000
v -1.000000 -0.656015 2.750000
v -0.500000 -0.750181 2.750000
v -0.500000 -0.656015 2.750000
v -1.000000 -0.656015 -0.517074
v -0.500000 -0.656015 -0.517074
v -0.500000 -0.750181 -0.517074
v -1.000000 -0.750181 -0.517074
v -1.000000 -0.656015 -0.758537
v -0.500000 -0.656015 -0.758537
v -0.500000 -0.750181 -0.758537
v -1.000000 -0.750181 -0.758537
v 1.000000 -0.750181 0.000000
v 1.000000 -0.656015 0.000000
v 0.500000 -0.656015 0.000000
v 0.500000 -0.750181 0.000000
v 1.000000 -0.656015 2.500000
v 0.500000 -0.656015 2.500000
v 0.500000 -0.750181 2.500000
v 1.000000 -0.750181 2.500000
v 1.000000 -0.656015 2.750000
v 0.500000 -0.656015 2.750000
v 0.500000 -0.750181 2.750000
v 1.000000 -0.750181 2.750000
v 1.000000 -0.750181 -0.545416
v 1.000000 -0.656015 -0.545416
v 0.500000 -0.656015 -0.545416
v 0.500000 -0.750181 -0.545416
v 1.000000 -0.750181 -0.772708
v 1.000000 -0.656015 -0.772708
v 0.500000 -0.656015 -0.772708
v 0.500000 -0.750181 -0.772708
v -0.500000 -0.701673 -0.517074
v -0.500000 -0.701673 -0.758537
vt 0.797093 0.939634
vt 0.820635 0.939634
vt 0.797093 1.000000
vt 0.750010 0.125000
vt 0.761781 0.125000
vt 0.761781 0.750000
vt 0.750010 0.750000
vt 0.820635 0.937500
vt 0.844177 0.937500
vt 0.820635 1.000000
vt 0.761781 0.886354
vt 0.750010 0.886354
vt 0.375000 0.937500
vt 0.500000 0.937500
vt 0.500000 1.000000
vt 0.375000 1.000000
vt 0.625000 0.062429
vt 0.500000 0.062429
vt 0.500005 0.000000
vt 0.625005 0.000000
vt 0.000000 0.250000
vt 0.125000 0.250000
vt 0.125000 0.875000
vt 0.000000 0.875000
vt 0.785679 0.250000
vt 0.797093 0.250000
vt 0.797093 0.875000
vt 0.785679 0.875000
vt 0.797093 0.125000
vt 0.820635 0.125000
vt 0.820635 0.750000
vt 0.797093 0.750000
vt 0.625000 0.879194
vt 0.500000 0.879194
vt 0.500000 0.749926
vt 0.625000 0.749926
vt 0.880558 0.750875
vt 0.868431 0.750875
vt 0.868787 0.500881
vt 0.880558 0.500881
vt 0.000000 0.937500
vt 0.125000 0.937500
vt 0.125000 1.000000
vt 0.000000 1.000000
vt 0.000000 0.120731
vt 0.125000 0.120731
vt 0.785679 0.120731
vt 0.797093 0.120731
vt 0.880558 0.750856
vt 0.880558 0.500881
vt 0.892329 0.500881
vt 0.892685 0.750856
vt 0.750005 0.062429
vt 0.625005 0.062429
vt 0.625010 0.000000
vt 0.750010 0.000000
vt 0.750010 0.943177
vt 0.761781 0.943177
vt 0.773552 0.943177
vt 0.750010 1.000000
vt 0.773552 0.937500
vt 0.785679 0.937500
vt 0.797093 0.937500
vt 0.773552 1.000000
vt 0.797093 0.062500
vt 0.820635 0.062500
vt 0.500000 0.124929
vt 0.625000 0.124929
vt 0.797093 0.000000
vt 0.785679 0.060366
vt 0.797093 0.060366
vt 0.000000 0.060366
vt 0.125000 0.060366
vt 0.625000 0.939560
vt 0.500000 0.939560
vt 0.820635 0.879269
vt 0.797093 0.879269
vt 0.625005 0.999995
vt 0.500005 0.999996
vt 0.000000 0.000000
vt 0.125000 0.000000
vt 0.773552 0.000000
vt 0.773552 0.060366
vt 0.773552 0.125000
vt 0.773552 0.750000
vt 0.750005 0.886279
vt 0.625005 0.886280
vt 0.625005 0.749926
vt 0.750005 0.749926
vt 0.375000 0.113646
vt 0.500000 0.113646
vt 0.500000 0.250000
vt 0.375000 0.250000
vt 0.820635 0.113646
vt 0.844177 0.113646
vt 0.844177 0.250000
vt 0.820635 0.250000
vt 0.761781 0.062500
vt 0.773552 0.062500
vt 0.625005 0.124929
vt 0.750005 0.124929
vt 0.500000 0.875000
vt 0.375000 0.875000
vt 0.844177 0.875000
vt 0.820635 0.875000
vt 0.750010 0.000000
vt 0.750010 0.062500
vt 0.820635 0.056823
vt 0.844177 0.056823
vt 0.375000 0.056823
vt 0.500000 0.056823
vt 0.750005 0.943102
vt 0.625005 0.943102
vt 0.773552 0.886354
vt 0.750010 0.999995
vt 0.625010 0.999996
vt 0.375000 0.000000
vt 0.500000 0.000000
vt 0.820635 0.000000
vt 0.773552 0.120731
vt 0.773552 0.250000
vt 0.773552 0.875000
vt 0.906676 0.250000
vt 0.844177 0.250000
vt 0.844177 0.000000
vt 0.906676 0.000000
vt 0.844177 0.750956
vt 0.844177 0.500881
vt 0.855947 0.500881
vt 0.856304 0.750956
vt 0.868431 0.750900
vt 0.856304 0.750900
vt 0.856660 0.500881
vt 0.868431 0.500881
vt 0.847719 0.250806
vt 0.904536 0.250000
vt 0.904536 0.500026
vt 0.844177 0.500881
vn -1.0000 0.0000 0.0000
vn 1.0000 0.0000 0.0000
vn 0.0000 -1.0000 0.0000
vn 0.0000 0.9358 0.3525
vn 0.0000 1.0000 0.0000
vn 0.0000 0.0000 -1.0000
vn 0.0000 0.0000 1.0000
vn 0.0000 0.9317 -0.3633
vn 0.0000 0.9239 -0.3827
vn 0.0014 1.0000 0.0000
vn 0.0283 0.0000 0.9996
vn -0.0142 0.0000 -0.9999
usemtl Material.015
s off
f 36/1/1 33/2/1 3/3/1
f 43/4/1 4/5/1 15/6/1 40/7/1
f 48/8/2 45/9/2 5/10/2
f 40/7/1 15/6/1 16/11/1 52/12/1
f 47/13/3 48/14/3 5/15/3 18/16/3
f 28/17/4 26/18/4 1/19/4 14/20/4
f 12/21/3 10/22/3 22/23/3 21/24/3
f 6/25/2 9/26/2 23/27/2 19/28/2
f 21/29/1 24/30/1 11/31/1 12/32/1
f 30/33/5 29/34/5 11/35/5 9/36/5
f 22/37/6 19/38/6 4/39/6 43/40/6
f 25/41/3 27/42/3 14/43/3 1/44/3
f 32/45/3 31/46/3 10/22/3 12/21/3
f 57/47/2 30/48/2 9/26/2 6/25/2
f 27/49/7 47/50/7 2/51/7 8/52/7
f 45/53/4 46/54/4 18/55/4 5/56/4
f 56/57/1 20/58/1 55/59/1 17/60/1
f 27/61/2 8/62/2 28/63/2 14/64/2
f 25/65/1 26/66/1 24/30/1 21/29/1
f 9/36/5 11/35/5 24/67/5 23/68/5
f 1/69/1 26/66/1 25/65/1
f 19/28/2 23/27/2 28/63/2 8/62/2
f 21/24/3 22/23/3 27/42/3 25/41/3
f 23/68/5 24/67/5 26/18/5 28/17/5
f 58/70/2 34/71/2 30/48/2 57/47/2
f 36/72/3 35/73/3 31/46/3 32/45/3
f 34/74/5 33/75/5 29/34/5 30/33/5
f 12/32/1 11/31/1 29/76/1 32/77/1
f 13/78/8 3/79/8 33/75/8 34/74/8
f 3/80/3 13/81/3 35/73/3 36/72/3
f 13/82/2 34/71/2 58/70/2 35/83/2
f 32/77/1 29/76/1 33/2/1 36/1/1
f 4/5/1 42/84/1 39/85/1 15/6/1
f 50/86/5 51/87/5 39/88/5 38/89/5
f 52/90/3 49/91/3 37/92/3 40/93/3
f 49/94/2 50/95/2 38/96/2 37/97/2
f 2/98/1 46/99/1 42/84/1 4/5/1
f 38/89/5 39/88/5 42/100/5 41/101/5
f 40/93/3 37/92/3 44/102/3 43/103/3
f 37/97/2 38/96/2 41/104/2 44/105/2
f 18/106/1 46/99/1 2/98/1 47/107/1
f 41/101/5 42/100/5 46/54/5 45/53/5
f 43/103/3 44/102/3 48/14/3 47/13/3
f 44/105/2 41/104/2 45/9/2 48/8/2
f 53/108/2 54/109/2 50/95/2 49/94/2
f 56/110/3 53/111/3 49/91/3 52/90/3
f 54/112/5 55/113/5 51/87/5 50/86/5
f 15/6/1 39/85/1 51/114/1 16/11/1
f 7/115/9 17/116/9 55/113/9 54/112/9
f 17/117/3 7/118/3 53/111/3 56/110/3
f 7/119/2 54/109/2 53/108/2
f 16/11/1 51/114/1 55/59/1 20/58/1
f 27/42/3 22/23/3 43/103/3 47/13/3
f 31/46/3 35/73/3 56/110/3 52/90/3
f 31/120/2 57/47/2 6/25/2 10/121/2
f 10/121/2 6/25/2 19/28/2 22/122/2
f 2/123/10 4/124/10 19/125/10 8/126/10
f 31/127/11 52/128/11 16/129/11 57/130/11
f 35/131/12 58/132/12 20/133/12 56/134/12
f 16/135/10 20/136/10 58/137/10 57/138/10
