# Blender v3.0.1 OBJ File: 'vehicles2.blend'
# www.blender.org
mtllib search_light.mtl
o search_light_Cylinder.002
v 0.662736 1.009713 1.684206
v 0.682245 1.007791 1.684206
v 0.701004 1.002101 1.684206
v 0.718293 0.992860 1.684206
v 0.733447 0.980424 1.684206
v 0.745883 0.965270 1.684206
v 0.755124 0.947981 1.684206
v 0.760814 0.929222 1.684206
v 0.762736 0.909713 1.684206
v 0.760814 0.890204 1.684206
v 0.755124 0.871445 1.684206
v 0.745883 0.854156 1.684206
v 0.733447 0.839002 1.684206
v 0.718293 0.826566 1.684206
v 0.701004 0.817325 1.684206
v 0.682245 0.811634 1.684206
v 0.662736 0.809713 1.684206
v 0.643227 0.811634 1.684206
v 0.624467 0.817325 1.684206
v 0.607179 0.826566 1.684206
v 0.592025 0.839002 1.684206
v 0.579589 0.854156 1.684206
v 0.570348 0.871444 1.684206
v 0.564657 0.890204 1.684206
v 0.562736 0.909713 1.684206
v 0.564657 0.929222 1.684206
v 0.570348 0.947981 1.684206
v 0.579589 0.965270 1.684206
v 0.592025 0.980424 1.684206
v 0.607179 0.992860 1.684206
v 0.624467 1.002101 1.684206
v 0.643227 1.007791 1.684206
v 0.662736 0.976968 1.884207
v 0.662736 1.009713 1.851619
v 0.675857 0.975676 1.884207
v 0.682245 1.007791 1.851619
v 0.688473 0.971849 1.884207
v 0.701004 1.002101 1.851619
v 0.700101 0.965634 1.884207
v 0.718293 0.992860 1.851619
v 0.710292 0.957269 1.884207
v 0.733447 0.980424 1.851619
v 0.718656 0.947078 1.884207
v 0.745883 0.965270 1.851619
v 0.724872 0.935450 1.884207
v 0.755124 0.947981 1.851619
v 0.728699 0.922834 1.884207
v 0.760814 0.929222 1.851619
v 0.729991 0.909713 1.884207
v 0.762736 0.909713 1.851619
v 0.728699 0.896592 1.884207
v 0.760814 0.890204 1.851619
v 0.724872 0.883975 1.884207
v 0.755124 0.871445 1.851619
v 0.718656 0.872348 1.884207
v 0.745883 0.854156 1.851619
v 0.710292 0.862156 1.884207
v 0.733447 0.839002 1.851619
v 0.700101 0.853792 1.884207
v 0.718293 0.826566 1.851619
v 0.688473 0.847577 1.884207
v 0.701004 0.817325 1.851619
v 0.675857 0.843750 1.884207
v 0.682245 0.811634 1.851619
v 0.662736 0.842458 1.884207
v 0.662736 0.809713 1.851619
v 0.649615 0.843750 1.884207
v 0.643227 0.811634 1.851619
v 0.636998 0.847577 1.884207
v 0.624467 0.817325 1.851619
v 0.625371 0.853792 1.884207
v 0.607179 0.826566 1.851619
v 0.615179 0.862156 1.884207
v 0.592025 0.839002 1.851619
v 0.606815 0.872348 1.884207
v 0.579589 0.854156 1.851619
v 0.600600 0.883975 1.884207
v 0.570348 0.871444 1.851619
v 0.596773 0.896592 1.884207
v 0.564657 0.890204 1.851619
v 0.595481 0.909713 1.884207
v 0.562736 0.909713 1.851619
v 0.596773 0.922834 1.884207
v 0.564657 0.929222 1.851619
v 0.600600 0.935450 1.884207
v 0.570348 0.947981 1.851619
v 0.606815 0.947078 1.884207
v 0.579589 0.965270 1.851619
v 0.615179 0.957269 1.884207
v 0.592025 0.980424 1.851619
v 0.625371 0.965634 1.884207
v 0.607179 0.992860 1.851619
v 0.636998 0.971849 1.884207
v 0.624467 1.002101 1.851619
v 0.649615 0.975676 1.884207
v 0.643227 1.007791 1.851619
vt 0.436493 0.373954
vt 0.436493 0.060930
vt 0.472443 0.060930
vt 0.472443 0.373954
vt 0.545046 0.373954
vt 0.545046 0.060930
vt 0.578910 0.060930
vt 0.578910 0.373954
vt 0.609387 0.060930
vt 0.609387 0.373954
vt 0.635305 0.060930
vt 0.635305 0.373954
vt 0.898457 0.000000
vt 0.898457 0.313023
vt 0.867980 0.313023
vt 0.867980 0.000000
vt 0.834116 0.313023
vt 0.834116 0.000000
vt 0.798167 0.313023
vt 0.798167 0.000000
vt 0.761513 0.313023
vt 0.761513 0.000000
vt 0.725563 0.313023
vt 0.725563 0.000000
vt 0.691700 0.313023
vt 0.691700 0.000000
vt 0.661223 0.313023
vt 0.661223 0.000000
vt 0.635305 0.313023
vt 0.635305 0.000000
vt 0.635305 0.686977
vt 0.635305 1.000000
vt 0.604828 1.000000
vt 0.604828 0.686977
vt 0.570964 1.000000
vt 0.570964 0.686977
vt 0.535015 1.000000
vt 0.535015 0.686977
vt 0.498361 1.000000
vt 0.498361 0.686977
vt 0.462411 1.000000
vt 0.462411 0.686977
vt 0.428548 1.000000
vt 0.428548 0.686977
vt 0.398071 1.000000
vt 0.398071 0.686977
vt 0.372153 1.000000
vt 0.372153 0.686977
vt 0.635305 0.373954
vt 0.635305 0.686977
vt 0.604828 0.686977
vt 0.604828 0.373954
vt 0.570964 0.686977
vt 0.570964 0.373954
vt 0.535015 0.686977
vt 0.535015 0.373954
vt 0.498361 0.686977
vt 0.498361 0.373954
vt 0.462411 0.686977
vt 0.462411 0.373954
vt 0.428548 0.686977
vt 0.428548 0.373954
vt 0.398071 0.686977
vt 0.398071 0.373954
vt 0.372153 0.686977
vt 0.372153 0.373954
vt 0.372153 0.060930
vt 0.402629 0.060930
vt 0.402629 0.373954
vt 0.509097 0.060930
vt 0.509097 0.373954
vt 0.007151 0.612506
vt 0.000000 0.576556
vt 0.000000 0.539902
vt 0.007151 0.503953
vt 0.021178 0.470089
vt 0.041541 0.439613
vt 0.067460 0.413694
vt 0.097936 0.393331
vt 0.131800 0.379304
vt 0.167749 0.372153
vt 0.204403 0.372153
vt 0.240353 0.379304
vt 0.274217 0.393331
vt 0.304693 0.413694
vt 0.330611 0.439613
vt 0.350975 0.470089
vt 0.365002 0.503953
vt 0.372153 0.539902
vt 0.372153 0.576556
vt 0.365002 0.612506
vt 0.350975 0.646370
vt 0.330611 0.676846
vt 0.304693 0.702764
vt 0.274217 0.723128
vt 0.240353 0.737155
vt 0.204403 0.744306
vt 0.167749 0.744306
vt 0.131800 0.737155
vt 0.097936 0.723128
vt 0.067460 0.702764
vt 0.041541 0.676846
vt 0.021178 0.646370
vt 0.478444 0.000000
vt 0.503096 0.000000
vt 0.041541 0.304693
vt 0.021178 0.274217
vt 0.075173 0.245355
vt 0.088869 0.265852
vt 0.067460 0.330611
vt 0.106300 0.283284
vt 0.097936 0.350975
vt 0.126798 0.296979
vt 0.131800 0.365002
vt 0.149573 0.306413
vt 0.167750 0.372153
vt 0.173751 0.311223
vt 0.204403 0.372153
vt 0.198402 0.311223
vt 0.240353 0.365002
vt 0.222580 0.306413
vt 0.274217 0.350975
vt 0.245355 0.296979
vt 0.304693 0.330611
vt 0.265852 0.283284
vt 0.330611 0.304693
vt 0.283284 0.265852
vt 0.350975 0.274217
vt 0.296979 0.245355
vt 0.365002 0.240353
vt 0.306413 0.222580
vt 0.372153 0.204403
vt 0.311223 0.198402
vt 0.372153 0.167749
vt 0.311223 0.173751
vt 0.365002 0.131800
vt 0.306413 0.149573
vt 0.350975 0.097936
vt 0.296979 0.126797
vt 0.330611 0.067460
vt 0.283284 0.106300
vt 0.304693 0.041541
vt 0.265852 0.088869
vt 0.274217 0.021178
vt 0.245355 0.075173
vt 0.240353 0.007151
vt 0.222580 0.065740
vt 0.204403 0.000000
vt 0.198402 0.060930
vt 0.167750 0.000000
vt 0.173751 0.060930
vt 0.131800 0.007151
vt 0.149573 0.065740
vt 0.097936 0.021178
vt 0.126797 0.075173
vt 0.067460 0.041541
vt 0.106300 0.088869
vt 0.041541 0.067460
vt 0.088869 0.106300
vt 0.021178 0.097936
vt 0.075173 0.126797
vt 0.007151 0.131800
vt 0.065740 0.149573
vt 0.000000 0.167750
vt 0.060930 0.173751
vt 0.000000 0.204403
vt 0.060930 0.198402
vt 0.007151 0.240353
vt 0.065740 0.222580
vn -0.0980 0.9952 0.0000
vn 0.4714 0.8819 0.0000
vn 0.6344 0.7730 0.0000
vn 0.7730 0.6344 0.0000
vn 0.8819 0.4714 0.0000
vn 0.9569 0.2903 0.0000
vn 0.9952 0.0980 0.0000
vn 0.9952 -0.0980 0.0000
vn 0.9569 -0.2903 0.0000
vn 0.8819 -0.4714 0.0000
vn 0.7730 -0.6344 0.0000
vn 0.6344 -0.7730 0.0000
vn 0.4714 -0.8819 0.0000
vn 0.2903 -0.9569 0.0000
vn 0.0980 -0.9952 0.0000
vn -0.0980 -0.9952 0.0000
vn -0.2903 -0.9569 0.0000
vn -0.4714 -0.8819 0.0000
vn -0.6344 -0.7730 0.0000
vn -0.7730 -0.6344 0.0000
vn -0.8819 -0.4714 0.0000
vn -0.9569 -0.2903 0.0000
vn -0.9952 -0.0980 0.0000
vn -0.9952 0.0980 0.0000
vn -0.9569 0.2903 0.0000
vn -0.8819 0.4714 0.0000
vn -0.7730 0.6344 0.0000
vn -0.6344 0.7730 0.0000
vn -0.4714 0.8819 0.0000
vn -0.2903 0.9569 0.0000
vn 0.0980 0.9952 0.0000
vn 0.2903 0.9569 0.0000
vn -0.0000 0.0000 -1.0000
vn 0.0693 0.7037 0.7071
vn 0.2053 0.6767 0.7071
vn 0.3333 0.6236 0.7071
vn 0.4486 0.5466 0.7071
vn 0.5466 0.4486 0.7071
vn 0.6236 0.3333 0.7071
vn 0.6767 0.2053 0.7071
vn 0.7037 0.0693 0.7071
vn 0.7037 -0.0693 0.7071
vn 0.6767 -0.2053 0.7071
vn 0.6236 -0.3333 0.7071
vn 0.5466 -0.4486 0.7071
vn 0.4486 -0.5466 0.7071
vn 0.3333 -0.6236 0.7071
vn 0.2053 -0.6767 0.7071
vn 0.0693 -0.7037 0.7071
vn -0.0693 -0.7037 0.7071
vn -0.2053 -0.6767 0.7071
vn -0.3333 -0.6236 0.7071
vn -0.4486 -0.5466 0.7071
vn -0.5466 -0.4486 0.7071
vn -0.6236 -0.3333 0.7071
vn -0.6767 -0.2053 0.7071
vn -0.7037 -0.0693 0.7071
vn -0.7037 0.0693 0.7071
vn -0.6767 0.2053 0.7071
vn -0.6236 0.3333 0.7071
vn -0.5466 0.4486 0.7071
vn -0.4486 0.5466 0.7071
vn -0.3333 0.6236 0.7071
vn -0.2053 0.6767 0.7071
vn -0.0693 0.7037 0.7071
vn 0.0000 0.0000 1.0000
usemtl Material.019
s off
f 32/1/1 96/2/1 34/3/1 1/4/1
f 3/5/2 38/6/2 40/7/2 4/8/2
f 4/8/3 40/7/3 42/9/3 5/10/3
f 5/10/4 42/9/4 44/11/4 6/12/4
f 6/13/5 44/14/5 46/15/5 7/16/5
f 7/16/6 46/15/6 48/17/6 8/18/6
f 8/18/7 48/17/7 50/19/7 9/20/7
f 9/20/8 50/19/8 52/21/8 10/22/8
f 10/22/9 52/21/9 54/23/9 11/24/9
f 11/24/10 54/23/10 56/25/10 12/26/10
f 12/26/11 56/25/11 58/27/11 13/28/11
f 13/28/12 58/27/12 60/29/12 14/30/12
f 14/31/13 60/32/13 62/33/13 15/34/13
f 15/34/14 62/33/14 64/35/14 16/36/14
f 16/36/15 64/35/15 66/37/15 17/38/15
f 17/38/16 66/37/16 68/39/16 18/40/16
f 18/40/17 68/39/17 70/41/17 19/42/17
f 19/42/18 70/41/18 72/43/18 20/44/18
f 20/44/19 72/43/19 74/45/19 21/46/19
f 21/46/20 74/45/20 76/47/20 22/48/20
f 22/49/21 76/50/21 78/51/21 23/52/21
f 23/52/22 78/51/22 80/53/22 24/54/22
f 24/54/23 80/53/23 82/55/23 25/56/23
f 25/56/24 82/55/24 84/57/24 26/58/24
f 26/58/25 84/57/25 86/59/25 27/60/25
f 27/60/26 86/59/26 88/61/26 28/62/26
f 28/62/27 88/61/27 90/63/27 29/64/27
f 29/64/28 90/63/28 92/65/28 30/66/28
f 30/66/29 92/67/29 94/68/29 31/69/29
f 31/69/30 94/68/30 96/2/30 32/1/30
f 1/4/31 34/3/31 36/70/31 2/71/31
f 2/71/32 36/70/32 38/6/32 3/5/32
f 1/72/33 2/73/33 3/74/33 4/75/33 5/76/33 6/77/33 7/78/33 8/79/33 9/80/33 10/81/33 11/82/33 12/83/33 13/84/33 14/85/33 15/86/33 16/87/33 17/88/33 18/89/33 19/90/33 20/91/33 21/92/33 22/93/33 23/94/33 24/95/33 25/96/33 26/97/33 27/98/33 28/99/33 29/100/33 30/101/33 31/102/33 32/103/33
f 36/70/34 34/3/34 33/104/34 35/105/34
f 38/106/35 36/107/35 35/108/35 37/109/35
f 40/110/36 38/106/36 37/109/36 39/111/36
f 42/112/37 40/110/37 39/111/37 41/113/37
f 44/114/38 42/112/38 41/113/38 43/115/38
f 46/116/39 44/114/39 43/115/39 45/117/39
f 48/118/40 46/116/40 45/117/40 47/119/40
f 50/120/41 48/118/41 47/119/41 49/121/41
f 52/122/42 50/120/42 49/121/42 51/123/42
f 54/124/43 52/122/43 51/123/43 53/125/43
f 56/126/44 54/124/44 53/125/44 55/127/44
f 58/128/45 56/126/45 55/127/45 57/129/45
f 60/130/46 58/128/46 57/129/46 59/131/46
f 62/132/47 60/130/47 59/131/47 61/133/47
f 64/134/48 62/132/48 61/133/48 63/135/48
f 66/136/49 64/134/49 63/135/49 65/137/49
f 68/138/50 66/136/50 65/137/50 67/139/50
f 70/140/51 68/138/51 67/139/51 69/141/51
f 72/142/52 70/140/52 69/141/52 71/143/52
f 74/144/53 72/142/53 71/143/53 73/145/53
f 76/146/54 74/144/54 73/145/54 75/147/54
f 78/148/55 76/146/55 75/147/55 77/149/55
f 80/150/56 78/148/56 77/149/56 79/151/56
f 82/152/57 80/150/57 79/151/57 81/153/57
f 84/154/58 82/152/58 81/153/58 83/155/58
f 86/156/59 84/154/59 83/155/59 85/157/59
f 88/158/60 86/156/60 85/157/60 87/159/60
f 90/160/61 88/158/61 87/159/61 89/161/61
f 92/162/62 90/160/62 89/161/62 91/163/62
f 94/164/63 92/162/63 91/163/63 93/165/63
f 96/166/64 94/164/64 93/165/64 95/167/64
f 34/168/65 96/166/65 95/167/65 33/169/65
f 35/108/66 33/169/66 95/167/66 93/165/66 91/163/66 89/161/66 87/159/66 85/157/66 83/155/66 81/153/66 79/151/66 77/149/66 75/147/66 73/145/66 71/143/66 69/141/66 67/139/66 65/137/66 63/135/66 61/133/66 59/131/66 57/129/66 55/127/66 53/125/66 51/123/66 49/121/66 47/119/66 45/117/66 43/115/66 41/113/66 39/111/66 37/109/66
