# Blender v3.0.1 OBJ File: 'vehicles2.blend'
# www.blender.org
mtllib station_leaver.mtl
o leaver_Cube.015
v -2.344572 -0.745541 -0.315370
v -2.344572 -0.316613 -0.315370
v -2.344572 -0.745541 -0.877113
v -2.344572 -0.316613 -0.877113
v -1.655428 -0.745541 -0.315370
v -1.655428 -0.316613 -0.315370
v -1.655428 -0.745541 -0.877113
v -1.655428 -0.316613 -0.877113
v -1.815083 -0.184153 -0.508575
v -1.815083 -0.084937 -0.683908
v -1.753232 -0.084937 -0.683908
v -1.753232 -0.184153 -0.508575
v -2.344572 -0.293483 -0.315370
v -2.344572 0.024393 -0.877113
v -1.655428 0.024393 -0.877113
v -1.655428 -0.293483 -0.315370
v -1.790279 -0.085464 -0.549113
v -1.790279 -0.068872 -0.578434
v -1.778036 -0.068872 -0.578434
v -1.778036 -0.085464 -0.549113
v -1.815083 -0.126776 -0.476107
v -1.815083 -0.027560 -0.651440
v -1.753232 -0.027560 -0.651440
v -1.753232 -0.126776 -0.476107
v -1.790279 0.110237 -0.526029
v -1.790279 0.126829 -0.555350
v -1.778036 0.126829 -0.555350
v -1.778036 0.110237 -0.526029
vt 0.690095 0.380190
vt 0.690095 0.616823
vt 0.380190 0.616823
vt 0.380190 0.380190
vt 0.380190 0.000000
vt 0.380190 0.233741
vt 0.000000 0.233741
vt 0.000000 0.000000
vt 0.000000 0.844331
vt 0.000000 0.607698
vt 0.309905 0.607698
vt 0.309905 0.844331
vt 0.982618 0.380190
vt 0.748877 0.380190
vt 0.748877 0.000000
vt 0.982618 0.000000
vt 1.000000 0.380190
vt 1.000000 0.760381
vt 0.690095 0.760381
vt 0.690095 0.629584
vt 0.380190 0.804951
vt 0.378023 0.752994
vt 0.378023 0.787117
vt 0.343964 0.787117
vt 0.343964 0.752994
vt 0.736273 0.380190
vt 0.736273 0.000000
vt 0.380190 0.419570
vt 0.000000 0.419570
vt 0.309905 0.594938
vt 0.613802 0.292111
vt 0.502661 0.292111
vt 0.380190 0.000000
vt 0.502661 0.326234
vt 0.380190 0.380190
vt 0.613802 0.326234
vt 0.363412 0.419570
vt 0.370166 0.419570
vt 0.370166 0.528201
vt 0.363412 0.528201
vt 0.343964 0.752994
vt 0.343964 0.787117
vt 0.309905 0.787117
vt 0.309905 0.752994
vt 0.346275 0.419570
vt 0.346275 0.530711
vt 0.309905 0.530711
vt 0.309905 0.419570
vt 0.346275 0.530711
vt 0.346275 0.641853
vt 0.309905 0.641853
vt 0.309905 0.530711
vt 0.323589 0.688130
vt 0.323589 0.706717
vt 0.309905 0.752994
vt 0.330343 0.706717
vt 0.344028 0.752994
vt 0.330343 0.688130
vt 0.344028 0.641853
vt 0.370167 0.546787
vt 0.363413 0.546787
vt 0.363413 0.528201
vt 0.370167 0.528201
vt 0.346275 0.535479
vt 0.363413 0.542675
vt 0.363413 0.651389
vt 0.346275 0.644193
vt 0.363413 0.528284
vt 0.346275 0.535479
vt 0.346275 0.426766
vt 0.363413 0.419570
vt 0.370167 0.419570
vt 0.376920 0.419570
vt 0.376920 0.528201
vt 0.370167 0.528201
vn -1.0000 0.0000 0.0000
vn 0.0000 0.0000 -1.0000
vn 1.0000 0.0000 0.0000
vn 0.0000 0.0000 1.0000
vn 0.0000 -1.0000 0.0000
vn 0.0000 -0.4925 0.8703
vn 0.0000 0.8703 0.4925
vn 0.0000 0.1171 -0.9931
vn 0.0000 0.4925 -0.8703
vn 0.0000 -0.1171 0.9931
usemtl Material.014
s off
f 1/1/1 2/2/1 4/3/1 3/4/1
f 3/5/2 4/6/2 8/7/2 7/8/2
f 7/9/3 8/10/3 6/11/3 5/12/3
f 5/13/4 6/14/4 2/15/4 1/16/4
f 3/17/5 7/18/5 5/19/5 1/1/5
f 4/3/1 2/2/1 13/20/1 14/21/1
f 9/22/6 12/23/6 24/24/6 21/25/6
f 2/15/4 6/14/4 16/26/4 13/27/4
f 8/7/2 4/6/2 14/28/2 15/29/2
f 6/11/3 8/10/3 15/29/3 16/30/3
f 9/31/7 10/32/7 14/33/7 13/27/7
f 10/32/7 11/34/7 15/35/7 14/33/7
f 11/34/7 12/36/7 16/26/7 15/35/7
f 12/36/7 9/31/7 13/27/7 16/26/7
f 19/37/8 18/38/8 26/39/8 27/40/8
f 11/41/9 10/42/9 22/43/9 23/44/9
f 12/45/3 11/46/3 23/47/3 24/48/3
f 10/49/1 9/50/1 21/51/1 22/52/1
f 17/53/7 18/54/7 22/55/7 21/51/7
f 18/54/7 19/56/7 23/57/7 22/55/7
f 19/56/7 20/58/7 24/59/7 23/57/7
f 20/58/7 17/53/7 21/51/7 24/59/7
f 27/60/7 26/61/7 25/62/7 28/63/7
f 20/64/3 19/65/3 27/66/3 28/67/3
f 18/68/1 17/69/1 25/70/1 26/71/1
f 17/72/10 20/73/10 28/74/10 25/75/10
