# Blender v3.0.1 OBJ File: 'vehicles2.blend'
# www.blender.org
mtllib truck3_FRW.mtl
o truck3_wheelFR_Cube.013
v -0.488258 -0.285330 0.186689
v -0.422045 -0.285330 0.186689
v -0.488258 -0.314593 0.189571
v -0.422045 -0.314593 0.189571
v -0.488258 -0.342732 0.198107
v -0.422045 -0.342732 0.198107
v -0.488258 -0.368665 0.211969
v -0.422045 -0.368665 0.211969
v -0.488258 -0.391396 0.230623
v -0.422045 -0.391396 0.230623
v -0.488258 -0.410050 0.253354
v -0.422045 -0.410050 0.253354
v -0.488258 -0.423912 0.279287
v -0.422045 -0.423912 0.279287
v -0.488258 -0.432448 0.307426
v -0.422045 -0.432448 0.307426
v -0.488258 -0.435330 0.336689
v -0.422045 -0.435330 0.336689
v -0.488258 -0.432448 0.365953
v -0.422045 -0.432448 0.365953
v -0.488258 -0.423912 0.394092
v -0.422045 -0.423912 0.394092
v -0.488258 -0.410050 0.420025
v -0.422045 -0.410050 0.420025
v -0.488258 -0.391396 0.442755
v -0.422045 -0.391396 0.442755
v -0.488258 -0.368665 0.461409
v -0.422045 -0.368665 0.461409
v -0.488258 -0.342732 0.475271
v -0.422045 -0.342732 0.475271
v -0.488258 -0.314593 0.483807
v -0.422045 -0.314593 0.483807
v -0.488258 -0.285330 0.486689
v -0.422045 -0.285330 0.486689
v -0.488258 -0.256066 0.483807
v -0.422045 -0.256066 0.483807
v -0.488258 -0.227927 0.475271
v -0.422045 -0.227927 0.475271
v -0.488258 -0.201994 0.461409
v -0.422045 -0.201994 0.461409
v -0.488258 -0.179264 0.442755
v -0.422045 -0.179264 0.442755
v -0.488258 -0.160609 0.420025
v -0.422045 -0.160609 0.420025
v -0.488258 -0.146748 0.394092
v -0.422045 -0.146748 0.394092
v -0.488258 -0.138212 0.365953
v -0.422045 -0.138212 0.365953
v -0.488258 -0.135330 0.336689
v -0.422045 -0.135330 0.336689
v -0.488258 -0.138212 0.307426
v -0.422045 -0.138212 0.307426
v -0.488258 -0.146748 0.279287
v -0.422045 -0.146748 0.279287
v -0.488258 -0.160609 0.253354
v -0.422045 -0.160609 0.253354
v -0.488258 -0.179264 0.230623
v -0.422045 -0.179264 0.230623
v -0.488258 -0.201994 0.211969
v -0.422045 -0.201994 0.211969
v -0.488258 -0.227927 0.198107
v -0.422045 -0.227927 0.198107
v -0.488258 -0.256066 0.189571
v -0.422045 -0.256066 0.189571
v -0.488258 -0.285330 0.186689
v -0.422045 -0.285330 0.186689
v -0.488258 -0.314593 0.189571
v -0.422045 -0.314593 0.189571
v -0.488258 -0.342732 0.198107
v -0.422045 -0.342732 0.198107
v -0.488258 -0.368665 0.211969
v -0.422045 -0.368665 0.211969
v -0.488258 -0.391396 0.230623
v -0.422045 -0.391396 0.230623
v -0.488258 -0.410050 0.253354
v -0.422045 -0.410050 0.253354
v -0.488258 -0.423912 0.279287
v -0.422045 -0.423912 0.279287
v -0.488258 -0.432448 0.307426
v -0.422045 -0.432448 0.307426
v -0.488258 -0.435330 0.336689
v -0.422045 -0.435330 0.336689
v -0.488258 -0.432448 0.365953
v -0.422045 -0.432448 0.365953
v -0.488258 -0.423912 0.394092
v -0.422045 -0.423912 0.394092
v -0.488258 -0.410050 0.420025
v -0.422045 -0.410050 0.420025
v -0.488258 -0.391396 0.442755
v -0.422045 -0.391396 0.442755
v -0.488258 -0.368665 0.461409
v -0.422045 -0.368665 0.461409
v -0.488258 -0.342732 0.475271
v -0.422045 -0.342732 0.475271
v -0.488258 -0.314593 0.483807
v -0.422045 -0.314593 0.483807
v -0.488258 -0.285330 0.486689
v -0.422045 -0.285330 0.486689
v -0.488258 -0.256066 0.483807
v -0.422045 -0.256066 0.483807
v -0.488258 -0.227927 0.475271
v -0.422045 -0.227927 0.475271
v -0.488258 -0.201994 0.461409
v -0.422045 -0.201994 0.461409
v -0.488258 -0.179264 0.442755
v -0.422045 -0.179264 0.442755
v -0.488258 -0.160609 0.420025
v -0.422045 -0.160609 0.420025
v -0.488258 -0.146748 0.394092
v -0.422045 -0.146748 0.394092
v -0.488258 -0.138212 0.365953
v -0.422045 -0.138212 0.365953
v -0.488258 -0.135330 0.336689
v -0.422045 -0.135330 0.336689
v -0.488258 -0.138212 0.307426
v -0.422045 -0.138212 0.307426
v -0.488258 -0.146748 0.279287
v -0.422045 -0.146748 0.279287
v -0.488258 -0.160609 0.253354
v -0.422045 -0.160609 0.253354
v -0.488258 -0.179264 0.230623
v -0.422045 -0.179264 0.230623
v -0.488258 -0.201994 0.211969
v -0.422045 -0.201994 0.211969
v -0.488258 -0.227927 0.198107
v -0.422045 -0.227927 0.198107
v -0.488258 -0.256066 0.189571
v -0.422045 -0.256066 0.189571
vt 0.168177 0.860481
vt 0.084089 0.860481
vt 0.084089 0.823855
vt 0.168177 0.823855
vt 0.084089 0.789354
vt 0.168177 0.789354
vt 0.084089 0.758305
vt 0.168177 0.758305
vt 0.926482 0.804303
vt 0.842393 0.804303
vt 0.842393 0.773253
vt 0.926482 0.773253
vt 0.842393 0.738753
vt 0.926482 0.738753
vt 0.842393 0.702127
vt 0.926482 0.702127
vt 0.842393 0.664784
vt 0.926482 0.664784
vt 0.842393 0.628158
vt 0.926482 0.628158
vt 0.842393 0.593658
vt 0.926482 0.593658
vt 0.842393 0.562608
vt 0.926482 0.562608
vt 0.842393 0.536202
vt 0.926482 0.536202
vt 0.842393 0.000000
vt 0.926482 0.000000
vt 0.926482 0.031050
vt 0.842393 0.031050
vt 0.926482 0.065550
vt 0.842393 0.065550
vt 0.926482 0.102176
vt 0.842393 0.102176
vt 0.926482 0.139519
vt 0.842393 0.139519
vt 0.926482 0.176145
vt 0.842393 0.176145
vt 0.926482 0.210646
vt 0.842393 0.210646
vt 0.926482 0.241695
vt 0.842393 0.241695
vt 0.926482 0.268101
vt 0.842393 0.268101
vt 0.758304 0.294507
vt 0.842393 0.294507
vt 0.842393 0.320913
vt 0.758304 0.320913
vt 0.842393 0.351962
vt 0.758304 0.351962
vt 0.842393 0.386463
vt 0.758304 0.386463
vt 0.842393 0.423089
vt 0.758304 0.423089
vt 0.842393 0.460432
vt 0.758304 0.460432
vt 0.842393 0.497057
vt 0.758304 0.497057
vt 0.842393 0.531558
vt 0.758304 0.531558
vt 0.842393 0.562608
vt 0.758304 0.562608
vt 0.842393 0.589014
vt 0.758304 0.589014
vt 0.168177 1.000000
vt 0.084089 1.000000
vt 0.084089 0.968950
vt 0.168177 0.968950
vt 0.084089 0.934450
vt 0.168177 0.934450
vt 0.336829 0.068728
vt 0.357576 0.099778
vt 0.371867 0.134279
vt 0.379152 0.170904
vt 0.379152 0.208248
vt 0.371867 0.244873
vt 0.357576 0.279374
vt 0.336830 0.310424
vt 0.310424 0.336829
vt 0.279374 0.357576
vt 0.244874 0.371867
vt 0.208248 0.379152
vt 0.170905 0.379152
vt 0.134279 0.371867
vt 0.099778 0.357576
vt 0.068729 0.336830
vt 0.042323 0.310424
vt 0.021576 0.279374
vt 0.007285 0.244873
vt 0.000000 0.208248
vt 0.000000 0.170905
vt 0.007285 0.134279
vt 0.021576 0.099778
vt 0.042323 0.068728
vt 0.068728 0.042323
vt 0.099778 0.021576
vt 0.134279 0.007285
vt 0.170905 0.000000
vt 0.208248 0.000000
vt 0.244873 0.007285
vt 0.279374 0.021576
vt 0.310424 0.042323
vt 0.084089 0.897824
vt 0.168177 0.897824
vt 0.379152 0.170904
vt 0.386438 0.134279
vt 0.400728 0.099778
vt 0.421475 0.068728
vt 0.447881 0.042323
vt 0.478930 0.021576
vt 0.513431 0.007285
vt 0.550057 0.000000
vt 0.587400 0.000000
vt 0.624026 0.007285
vt 0.658526 0.021576
vt 0.689576 0.042323
vt 0.715982 0.068728
vt 0.736729 0.099778
vt 0.751019 0.134279
vt 0.758304 0.170905
vt 0.758304 0.208248
vt 0.751019 0.244873
vt 0.736728 0.279374
vt 0.715982 0.310424
vt 0.689576 0.336830
vt 0.658526 0.357576
vt 0.624026 0.371867
vt 0.587400 0.379152
vt 0.550057 0.379152
vt 0.513431 0.371867
vt 0.478930 0.357576
vt 0.447881 0.336830
vt 0.421475 0.310424
vt 0.400728 0.279374
vt 0.386438 0.244873
vt 0.379152 0.208248
vt 0.084089 0.860481
vt 0.000000 0.860481
vt 0.000000 0.823855
vt 0.084089 0.823855
vt 0.000000 0.789354
vt 0.084089 0.789354
vt 0.000000 0.758305
vt 0.084089 0.758305
vt 0.926482 0.536202
vt 0.842393 0.536202
vt 0.842393 0.505152
vt 0.926482 0.505152
vt 0.842393 0.470652
vt 0.926482 0.470652
vt 0.842393 0.434026
vt 0.926482 0.434026
vt 0.842393 0.396683
vt 0.926482 0.396683
vt 0.842393 0.360057
vt 0.926482 0.360057
vt 0.842393 0.325557
vt 0.926482 0.325557
vt 0.842393 0.294507
vt 0.926482 0.294507
vt 0.842393 0.268101
vt 0.926482 0.268101
vt 0.758304 0.589014
vt 0.842393 0.589014
vt 0.842393 0.620063
vt 0.758304 0.620063
vt 0.842393 0.654564
vt 0.758304 0.654564
vt 0.842393 0.691190
vt 0.758304 0.691190
vt 0.842393 0.728533
vt 0.758304 0.728533
vt 0.842393 0.765159
vt 0.758304 0.765159
vt 0.842393 0.799659
vt 0.758304 0.799659
vt 0.842393 0.830709
vt 0.758304 0.830709
vt 0.842393 0.857115
vt 0.758304 0.857115
vt 0.758304 0.000000
vt 0.842393 0.000000
vt 0.842393 0.026406
vt 0.758304 0.026406
vt 0.842393 0.057455
vt 0.758304 0.057455
vt 0.842393 0.091956
vt 0.758304 0.091956
vt 0.842393 0.128582
vt 0.758304 0.128582
vt 0.842393 0.165925
vt 0.758304 0.165925
vt 0.842393 0.202551
vt 0.758304 0.202551
vt 0.842393 0.237051
vt 0.758304 0.237051
vt 0.842393 0.268101
vt 0.758304 0.268101
vt 0.842393 0.294507
vt 0.758304 0.294507
vt 0.084089 1.000000
vt 0.000000 1.000000
vt 0.000000 0.968950
vt 0.084089 0.968950
vt 0.000000 0.934450
vt 0.084089 0.934450
vt 0.336829 0.447881
vt 0.357576 0.478930
vt 0.371867 0.513431
vt 0.379152 0.550057
vt 0.379152 0.587400
vt 0.371867 0.624026
vt 0.357576 0.658526
vt 0.336830 0.689576
vt 0.310424 0.715982
vt 0.279374 0.736728
vt 0.244874 0.751019
vt 0.208248 0.758305
vt 0.170905 0.758305
vt 0.134279 0.751019
vt 0.099778 0.736729
vt 0.068729 0.715982
vt 0.042323 0.689576
vt 0.021576 0.658526
vt 0.007285 0.624026
vt 0.000000 0.587400
vt 0.000000 0.550057
vt 0.007285 0.513431
vt 0.021576 0.478931
vt 0.042323 0.447881
vt 0.068728 0.421475
vt 0.099778 0.400728
vt 0.134279 0.386438
vt 0.170905 0.379152
vt 0.208248 0.379152
vt 0.244873 0.386438
vt 0.279374 0.400728
vt 0.310424 0.421475
vt 0.000000 0.897824
vt 0.084089 0.897824
vt 0.379152 0.550057
vt 0.386438 0.513431
vt 0.400728 0.478930
vt 0.421475 0.447881
vt 0.447881 0.421475
vt 0.478930 0.400728
vt 0.513431 0.386438
vt 0.550057 0.379152
vt 0.587400 0.379152
vt 0.624026 0.386438
vt 0.658526 0.400728
vt 0.689576 0.421475
vt 0.715982 0.447881
vt 0.736729 0.478930
vt 0.751019 0.513431
vt 0.758304 0.550057
vt 0.758304 0.587400
vt 0.751019 0.624026
vt 0.736728 0.658526
vt 0.715982 0.689576
vt 0.689576 0.715982
vt 0.658526 0.736729
vt 0.624026 0.751019
vt 0.587400 0.758305
vt 0.550057 0.758305
vt 0.513431 0.751019
vt 0.478930 0.736729
vt 0.447881 0.715982
vt 0.421475 0.689576
vt 0.400728 0.658526
vt 0.386438 0.624026
vt 0.379152 0.587400
vn -0.0000 -0.0980 -0.9952
vn -0.0000 -0.2903 -0.9569
vn 0.0000 -0.4714 -0.8819
vn 0.0000 -0.6344 -0.7730
vn 0.0000 -0.7730 -0.6344
vn 0.0000 -0.8819 -0.4714
vn 0.0000 -0.9569 -0.2903
vn 0.0000 -0.9952 -0.0980
vn 0.0000 -0.9952 0.0980
vn 0.0000 -0.9569 0.2903
vn 0.0000 -0.8819 0.4714
vn 0.0000 -0.7730 0.6344
vn 0.0000 -0.6344 0.7730
vn 0.0000 -0.4714 0.8819
vn 0.0000 -0.2903 0.9569
vn -0.0000 -0.0980 0.9952
vn 0.0000 0.0980 0.9952
vn 0.0000 0.2903 0.9569
vn 0.0000 0.4714 0.8819
vn 0.0000 0.6344 0.7730
vn 0.0000 0.7730 0.6344
vn 0.0000 0.8819 0.4714
vn 0.0000 0.9569 0.2903
vn 0.0000 0.9952 0.0980
vn 0.0000 0.9952 -0.0980
vn 0.0000 0.9569 -0.2903
vn 0.0000 0.8819 -0.4714
vn 0.0000 0.7730 -0.6344
vn 0.0000 0.6344 -0.7730
vn 0.0000 0.4714 -0.8819
vn 1.0000 -0.0000 0.0000
vn 0.0000 0.2903 -0.9569
vn 0.0000 0.0980 -0.9952
vn -1.0000 0.0000 0.0000
usemtl Material.002
s off
f 1/1/1 2/2/1 4/3/1 3/4/1
f 3/4/2 4/3/2 6/5/2 5/6/2
f 5/6/3 6/5/3 8/7/3 7/8/3
f 7/9/4 8/10/4 10/11/4 9/12/4
f 9/12/5 10/11/5 12/13/5 11/14/5
f 11/14/6 12/13/6 14/15/6 13/16/6
f 13/16/7 14/15/7 16/17/7 15/18/7
f 15/18/8 16/17/8 18/19/8 17/20/8
f 17/20/9 18/19/9 20/21/9 19/22/9
f 19/22/10 20/21/10 22/23/10 21/24/10
f 21/24/11 22/23/11 24/25/11 23/26/11
f 23/27/12 24/28/12 26/29/12 25/30/12
f 25/30/13 26/29/13 28/31/13 27/32/13
f 27/32/14 28/31/14 30/33/14 29/34/14
f 29/34/15 30/33/15 32/35/15 31/36/15
f 31/36/16 32/35/16 34/37/16 33/38/16
f 33/38/17 34/37/17 36/39/17 35/40/17
f 35/40/18 36/39/18 38/41/18 37/42/18
f 37/42/19 38/41/19 40/43/19 39/44/19
f 39/45/20 40/46/20 42/47/20 41/48/20
f 41/48/21 42/47/21 44/49/21 43/50/21
f 43/50/22 44/49/22 46/51/22 45/52/22
f 45/52/23 46/51/23 48/53/23 47/54/23
f 47/54/24 48/53/24 50/55/24 49/56/24
f 49/56/25 50/55/25 52/57/25 51/58/25
f 51/58/26 52/57/26 54/59/26 53/60/26
f 53/60/27 54/59/27 56/61/27 55/62/27
f 55/62/28 56/61/28 58/63/28 57/64/28
f 57/65/29 58/66/29 60/67/29 59/68/29
f 59/68/30 60/67/30 62/69/30 61/70/30
f 4/71/31 2/72/31 64/73/31 62/74/31 60/75/31 58/76/31 56/77/31 54/78/31 52/79/31 50/80/31 48/81/31 46/82/31 44/83/31 42/84/31 40/85/31 38/86/31 36/87/31 34/88/31 32/89/31 30/90/31 28/91/31 26/92/31 24/93/31 22/94/31 20/95/31 18/96/31 16/97/31 14/98/31 12/99/31 10/100/31 8/101/31 6/102/31
f 61/70/32 62/69/32 64/103/32 63/104/32
f 63/104/33 64/103/33 2/2/33 1/1/33
f 1/105/34 3/106/34 5/107/34 7/108/34 9/109/34 11/110/34 13/111/34 15/112/34 17/113/34 19/114/34 21/115/34 23/116/34 25/117/34 27/118/34 29/119/34 31/120/34 33/121/34 35/122/34 37/123/34 39/124/34 41/125/34 43/126/34 45/127/34 47/128/34 49/129/34 51/130/34 53/131/34 55/132/34 57/133/34 59/134/34 61/135/34 63/136/34
f 65/137/1 66/138/1 68/139/1 67/140/1
f 67/140/2 68/139/2 70/141/2 69/142/2
f 69/142/3 70/141/3 72/143/3 71/144/3
f 71/145/4 72/146/4 74/147/4 73/148/4
f 73/148/5 74/147/5 76/149/5 75/150/5
f 75/150/6 76/149/6 78/151/6 77/152/6
f 77/152/7 78/151/7 80/153/7 79/154/7
f 79/154/8 80/153/8 82/155/8 81/156/8
f 81/156/9 82/155/9 84/157/9 83/158/9
f 83/158/10 84/157/10 86/159/10 85/160/10
f 85/160/11 86/159/11 88/161/11 87/162/11
f 87/163/12 88/164/12 90/165/12 89/166/12
f 89/166/13 90/165/13 92/167/13 91/168/13
f 91/168/14 92/167/14 94/169/14 93/170/14
f 93/170/15 94/169/15 96/171/15 95/172/15
f 95/172/16 96/171/16 98/173/16 97/174/16
f 97/174/17 98/173/17 100/175/17 99/176/17
f 99/176/18 100/175/18 102/177/18 101/178/18
f 101/178/19 102/177/19 104/179/19 103/180/19
f 103/181/20 104/182/20 106/183/20 105/184/20
f 105/184/21 106/183/21 108/185/21 107/186/21
f 107/186/22 108/185/22 110/187/22 109/188/22
f 109/188/23 110/187/23 112/189/23 111/190/23
f 111/190/24 112/189/24 114/191/24 113/192/24
f 113/192/25 114/191/25 116/193/25 115/194/25
f 115/194/26 116/193/26 118/195/26 117/196/26
f 117/196/27 118/195/27 120/197/27 119/198/27
f 119/198/28 120/197/28 122/199/28 121/200/28
f 121/201/29 122/202/29 124/203/29 123/204/29
f 123/204/30 124/203/30 126/205/30 125/206/30
f 68/207/31 66/208/31 128/209/31 126/210/31 124/211/31 122/212/31 120/213/31 118/214/31 116/215/31 114/216/31 112/217/31 110/218/31 108/219/31 106/220/31 104/221/31 102/222/31 100/223/31 98/224/31 96/225/31 94/226/31 92/227/31 90/228/31 88/229/31 86/230/31 84/231/31 82/232/31 80/233/31 78/234/31 76/235/31 74/236/31 72/237/31 70/238/31
f 125/206/32 126/205/32 128/239/32 127/240/32
f 127/240/33 128/239/33 66/138/33 65/137/33
f 65/241/34 67/242/34 69/243/34 71/244/34 73/245/34 75/246/34 77/247/34 79/248/34 81/249/34 83/250/34 85/251/34 87/252/34 89/253/34 91/254/34 93/255/34 95/256/34 97/257/34 99/258/34 101/259/34 103/260/34 105/261/34 107/262/34 109/263/34 111/264/34 113/265/34 115/266/34 117/267/34 119/268/34 121/269/34 123/270/34 125/271/34 127/272/34
