# Blender v3.0.1 OBJ File: 'vehicles2.blend'
# www.blender.org
mtllib truck3_light.mtl
o headlights_Cylinder
v 0.436041 -0.094401 2.564001
v 0.436041 -0.109645 2.809088
v 0.451432 -0.095917 2.564001
v 0.448458 -0.110868 2.809088
v 0.466231 -0.100407 2.564001
v 0.460398 -0.114490 2.809088
v 0.479870 -0.107697 2.564001
v 0.471402 -0.120371 2.809088
v 0.491825 -0.117508 2.564001
v 0.481046 -0.128287 2.809088
v 0.501636 -0.129463 2.564001
v 0.488962 -0.137931 2.809088
v 0.508926 -0.143102 2.564001
v 0.494843 -0.148935 2.809088
v 0.513416 -0.157901 2.564001
v 0.498465 -0.160875 2.809088
v 0.514931 -0.173292 2.564001
v 0.499688 -0.173292 2.809088
v 0.513416 -0.188683 2.564001
v 0.498465 -0.185709 2.809088
v 0.508926 -0.203482 2.564001
v 0.494843 -0.197649 2.809088
v 0.501636 -0.217121 2.564001
v 0.488962 -0.208652 2.809088
v 0.491825 -0.229076 2.564001
v 0.481046 -0.218297 2.809088
v 0.479870 -0.238887 2.564001
v 0.471402 -0.226213 2.809088
v 0.466231 -0.246177 2.564001
v 0.460398 -0.232094 2.809088
v 0.451432 -0.250666 2.564001
v 0.448458 -0.235716 2.809088
v 0.436041 -0.252182 2.564001
v 0.436041 -0.236939 2.809088
v 0.420650 -0.250666 2.564001
v 0.423624 -0.235716 2.809088
v 0.405851 -0.246177 2.564001
v 0.411684 -0.232094 2.809088
v 0.392212 -0.238887 2.564001
v 0.400681 -0.226213 2.809088
v 0.380257 -0.229076 2.564001
v 0.391036 -0.218297 2.809088
v 0.370446 -0.217121 2.564001
v 0.383120 -0.208652 2.809088
v 0.363156 -0.203482 2.564001
v 0.377239 -0.197649 2.809088
v 0.358666 -0.188683 2.564001
v 0.373617 -0.185709 2.809088
v 0.357151 -0.173292 2.564001
v 0.372394 -0.173292 2.809088
v 0.358666 -0.157901 2.564001
v 0.373617 -0.160875 2.809088
v 0.363156 -0.143102 2.564001
v 0.377239 -0.148935 2.809088
v 0.370446 -0.129463 2.564001
v 0.383120 -0.137931 2.809088
v 0.380257 -0.117508 2.564001
v 0.391036 -0.128287 2.809088
v 0.392212 -0.107697 2.564001
v 0.400681 -0.120371 2.809088
v 0.405851 -0.100407 2.564001
v 0.411684 -0.114490 2.809088
v 0.420650 -0.095917 2.564001
v 0.423624 -0.110868 2.809088
v 0.451432 -0.095917 2.782393
v 0.436041 -0.094401 2.782393
v 0.466231 -0.100407 2.782393
v 0.479870 -0.107697 2.782393
v 0.491825 -0.117508 2.782393
v 0.501636 -0.129463 2.782393
v 0.508926 -0.143102 2.782393
v 0.513416 -0.157901 2.782393
v 0.514931 -0.173292 2.782393
v 0.513416 -0.188683 2.782393
v 0.508926 -0.203482 2.782393
v 0.501636 -0.217121 2.782393
v 0.491825 -0.229076 2.782393
v 0.479870 -0.238887 2.782393
v 0.466231 -0.246177 2.782393
v 0.451432 -0.250666 2.782393
v 0.436041 -0.252182 2.782393
v 0.420650 -0.250666 2.782393
v 0.405851 -0.246177 2.782393
v 0.392212 -0.238887 2.782393
v 0.380257 -0.229076 2.782393
v 0.370446 -0.217121 2.782393
v 0.363156 -0.203482 2.782393
v 0.358666 -0.188683 2.782393
v 0.357151 -0.173292 2.782393
v 0.358666 -0.157901 2.782393
v 0.363156 -0.143102 2.782393
v 0.370446 -0.129463 2.782393
v 0.380257 -0.117508 2.782393
v 0.392212 -0.107697 2.782393
v 0.405851 -0.100407 2.782393
v 0.420650 -0.095917 2.782393
v -0.337387 -0.094401 2.564001
v -0.337387 -0.109645 2.809088
v -0.321996 -0.095917 2.564001
v -0.324970 -0.110868 2.809088
v -0.307197 -0.100407 2.564001
v -0.313030 -0.114490 2.809088
v -0.293557 -0.107697 2.564001
v -0.302026 -0.120371 2.809088
v -0.281603 -0.117508 2.564001
v -0.292381 -0.128287 2.809088
v -0.271792 -0.129463 2.564001
v -0.284466 -0.137931 2.809088
v -0.264501 -0.143102 2.564001
v -0.278584 -0.148935 2.809088
v -0.260012 -0.157901 2.564001
v -0.274962 -0.160875 2.809088
v -0.258496 -0.173292 2.564001
v -0.273739 -0.173292 2.809088
v -0.260012 -0.188683 2.564001
v -0.274962 -0.185709 2.809088
v -0.264501 -0.203482 2.564001
v -0.278584 -0.197649 2.809088
v -0.271792 -0.217121 2.564001
v -0.284466 -0.208652 2.809088
v -0.281603 -0.229076 2.564001
v -0.292381 -0.218297 2.809088
v -0.293557 -0.238887 2.564001
v -0.302026 -0.226213 2.809088
v -0.307197 -0.246177 2.564001
v -0.313030 -0.232094 2.809088
v -0.321996 -0.250666 2.564001
v -0.324970 -0.235716 2.809088
v -0.337387 -0.252182 2.564001
v -0.337387 -0.236939 2.809088
v -0.352777 -0.250666 2.564001
v -0.349804 -0.235716 2.809088
v -0.367577 -0.246177 2.564001
v -0.361743 -0.232094 2.809088
v -0.381216 -0.238887 2.564001
v -0.372747 -0.226213 2.809088
v -0.393171 -0.229076 2.564001
v -0.382392 -0.218297 2.809088
v -0.402982 -0.217121 2.564001
v -0.390307 -0.208652 2.809088
v -0.410272 -0.203482 2.564001
v -0.396189 -0.197649 2.809088
v -0.414761 -0.188683 2.564001
v -0.399811 -0.185709 2.809088
v -0.416277 -0.173292 2.564001
v -0.401034 -0.173292 2.809088
v -0.414761 -0.157901 2.564001
v -0.399811 -0.160875 2.809088
v -0.410272 -0.143102 2.564001
v -0.396189 -0.148935 2.809088
v -0.402982 -0.129463 2.564001
v -0.390307 -0.137931 2.809088
v -0.393171 -0.117508 2.564001
v -0.382392 -0.128287 2.809088
v -0.381216 -0.107697 2.564001
v -0.372747 -0.120371 2.809088
v -0.367577 -0.100407 2.564001
v -0.361743 -0.114490 2.809088
v -0.352777 -0.095917 2.564001
v -0.349804 -0.110868 2.809088
v -0.321996 -0.095917 2.782393
v -0.337387 -0.094401 2.782393
v -0.307197 -0.100407 2.782393
v -0.293557 -0.107697 2.782393
v -0.281603 -0.117508 2.782393
v -0.271792 -0.129463 2.782393
v -0.264501 -0.143102 2.782393
v -0.260012 -0.157901 2.782393
v -0.258496 -0.173292 2.782393
v -0.260012 -0.188683 2.782393
v -0.264501 -0.203482 2.782393
v -0.271792 -0.217121 2.782393
v -0.281603 -0.229076 2.782393
v -0.293557 -0.238887 2.782393
v -0.307197 -0.246177 2.782393
v -0.321996 -0.250666 2.782393
v -0.337387 -0.252182 2.782393
v -0.352777 -0.250666 2.782393
v -0.367577 -0.246177 2.782393
v -0.381216 -0.238887 2.782393
v -0.393171 -0.229076 2.782393
v -0.402982 -0.217121 2.782393
v -0.410272 -0.203482 2.782393
v -0.414761 -0.188683 2.782393
v -0.416277 -0.173292 2.782393
v -0.414761 -0.157901 2.782393
v -0.410272 -0.143102 2.782393
v -0.402982 -0.129463 2.782393
v -0.393171 -0.117508 2.782393
v -0.381216 -0.107697 2.782393
v -0.367577 -0.100407 2.782393
v -0.352777 -0.095917 2.782393
vt 0.696407 0.418101
vt 0.696407 0.056822
vt 0.722000 0.055820
vt 0.722000 0.417100
vt 0.746107 0.053855
vt 0.746107 0.415134
vt 0.767804 0.051002
vt 0.767804 0.412281
vt 0.786255 0.047370
vt 0.786255 0.408650
vt 0.036903 0.830382
vt 0.036903 0.469103
vt 0.058599 0.471956
vt 0.058599 0.833236
vt 0.082707 0.473921
vt 0.082707 0.835201
vt 0.108299 0.474923
vt 0.108299 0.836203
vt 0.134393 0.474923
vt 0.134393 0.836203
vt 0.159986 0.473921
vt 0.159986 0.835201
vt 0.184093 0.471956
vt 0.184093 0.833236
vt 0.205789 0.469103
vt 0.205790 0.830382
vt 0.598917 0.427553
vt 0.598917 0.788832
vt 0.580466 0.785201
vt 0.580466 0.423921
vt 0.558769 0.782348
vt 0.558769 0.421068
vt 0.534662 0.780383
vt 0.534662 0.419103
vt 0.509069 0.779381
vt 0.509069 0.418101
vt 0.482975 0.779381
vt 0.482975 0.418101
vt 0.457383 0.780383
vt 0.457383 0.419103
vt 0.433275 0.782348
vt 0.433275 0.421068
vt 0.411579 0.785201
vt 0.411579 0.423921
vt 0.411579 0.009451
vt 0.411579 0.370731
vt 0.393127 0.367100
vt 0.393127 0.005820
vt 0.371431 0.364246
vt 0.371431 0.002967
vt 0.347324 0.362281
vt 0.347324 0.001002
vt 0.321731 0.361280
vt 0.321731 0.000000
vt 0.295637 0.361280
vt 0.295637 0.000000
vt 0.270045 0.362281
vt 0.270045 0.001002
vt 0.245937 0.364246
vt 0.245937 0.002967
vt 0.224241 0.367100
vt 0.224241 0.005820
vt 0.205789 0.370731
vt 0.205789 0.009451
vt 0.598917 0.412281
vt 0.598917 0.051002
vt 0.620613 0.053855
vt 0.620613 0.415134
vt 0.644721 0.055820
vt 0.644721 0.417100
vt 1.000000 0.331143
vt 0.995893 0.351791
vt 0.987837 0.371241
vt 0.976141 0.388745
vt 0.961255 0.403631
vt 0.943751 0.415327
vt 0.924301 0.423383
vt 0.903654 0.427490
vt 0.882602 0.427490
vt 0.861954 0.423383
vt 0.842505 0.415327
vt 0.825000 0.403631
vt 0.810114 0.388745
vt 0.798419 0.371241
vt 0.790362 0.351791
vt 0.786255 0.331144
vt 0.786255 0.310092
vt 0.790362 0.289444
vt 0.798418 0.269995
vt 0.810114 0.252491
vt 0.825000 0.237604
vt 0.842504 0.225908
vt 0.861954 0.217852
vt 0.882601 0.213745
vt 0.903653 0.213745
vt 0.924301 0.217852
vt 0.943751 0.225908
vt 0.961255 0.237604
vt 0.976141 0.252490
vt 0.987837 0.269994
vt 0.995893 0.289444
vt 1.000000 0.310091
vt 0.670313 0.056822
vt 0.670313 0.418101
vt 0.693886 0.007625
vt 0.714534 0.006817
vt 0.733983 0.005231
vt 0.751488 0.002930
vt 0.766374 0.000000
vt 0.053219 0.421031
vt 0.070723 0.423333
vt 0.090172 0.424918
vt 0.110820 0.425727
vt 0.131872 0.425727
vt 0.152520 0.424918
vt 0.171969 0.423333
vt 0.189473 0.421031
vt 0.204359 0.418101
vt 0.224241 0.465472
vt 0.564149 0.833273
vt 0.546645 0.830971
vt 0.527196 0.829386
vt 0.506548 0.828577
vt 0.485496 0.828577
vt 0.464849 0.829386
vt 0.445399 0.830971
vt 0.427895 0.833273
vt 0.391697 0.418101
vt 0.376811 0.415172
vt 0.359307 0.412870
vt 0.339858 0.411284
vt 0.319210 0.410476
vt 0.298158 0.410476
vt 0.277510 0.411284
vt 0.258061 0.412870
vt 0.240557 0.415172
vt 0.225671 0.418101
vt 0.615233 0.002930
vt 0.632737 0.005231
vt 0.652187 0.006817
vt 0.672834 0.007625
vt 0.509069 0.418102
vt 0.509069 0.056822
vt 0.534662 0.055820
vt 0.534662 0.417100
vt 0.558769 0.053855
vt 0.558769 0.415135
vt 0.580466 0.051002
vt 0.580466 0.412282
vt 0.598917 0.047371
vt 0.598917 0.408650
vt 0.224241 0.830383
vt 0.224241 0.469103
vt 0.245937 0.471956
vt 0.245937 0.833236
vt 0.270045 0.473921
vt 0.270045 0.835201
vt 0.295637 0.474923
vt 0.295637 0.836203
vt 0.321731 0.474923
vt 0.321731 0.836203
vt 0.347324 0.473921
vt 0.347324 0.835201
vt 0.371431 0.471956
vt 0.371431 0.833236
vt 0.393127 0.469103
vt 0.393128 0.830383
vt 0.786255 0.427553
vt 0.786255 0.788833
vt 0.767804 0.785201
vt 0.767804 0.423922
vt 0.746108 0.782348
vt 0.746108 0.421069
vt 0.722000 0.780383
vt 0.722000 0.419104
vt 0.696407 0.779381
vt 0.696407 0.418102
vt 0.670313 0.779381
vt 0.670314 0.418102
vt 0.644721 0.780383
vt 0.644721 0.419104
vt 0.620613 0.782348
vt 0.620613 0.421069
vt 0.598917 0.785201
vt 0.598917 0.423922
vt 0.000000 0.408650
vt 0.000000 0.047370
vt 0.018451 0.051002
vt 0.018451 0.412281
vt 0.040148 0.053855
vt 0.040148 0.415134
vt 0.064255 0.055820
vt 0.064255 0.417100
vt 0.089848 0.056822
vt 0.089848 0.418101
vt 0.115942 0.056822
vt 0.115942 0.418101
vt 0.141534 0.055820
vt 0.141534 0.417100
vt 0.165642 0.053855
vt 0.165642 0.415134
vt 0.187338 0.051002
vt 0.187338 0.412281
vt 0.205789 0.047370
vt 0.205789 0.408650
vt 0.411579 0.412282
vt 0.411579 0.051002
vt 0.433275 0.053855
vt 0.433275 0.415134
vt 0.457383 0.055820
vt 0.457383 0.417100
vt 0.786255 0.117398
vt 0.786255 0.096346
vt 0.790362 0.075699
vt 0.798418 0.056249
vt 0.810114 0.038745
vt 0.825000 0.023859
vt 0.842505 0.012163
vt 0.861954 0.004107
vt 0.882602 0.000000
vt 0.903654 0.000000
vt 0.924301 0.004107
vt 0.943751 0.012163
vt 0.961255 0.023859
vt 0.976141 0.038745
vt 0.987837 0.056249
vt 0.995893 0.075699
vt 1.000000 0.096347
vt 1.000000 0.117399
vt 0.995893 0.138046
vt 0.987837 0.157496
vt 0.976141 0.175000
vt 0.961255 0.189886
vt 0.943751 0.201582
vt 0.924301 0.209638
vt 0.903654 0.213745
vt 0.882601 0.213745
vt 0.861954 0.209638
vt 0.842504 0.201582
vt 0.825000 0.189886
vt 0.810114 0.175000
vt 0.798418 0.157496
vt 0.790362 0.138046
vt 0.482975 0.056822
vt 0.482975 0.418102
vt 0.506548 0.007625
vt 0.527196 0.006817
vt 0.546645 0.005232
vt 0.564149 0.002930
vt 0.579036 0.000000
vt 0.240557 0.421031
vt 0.258061 0.423333
vt 0.277510 0.424918
vt 0.298158 0.425727
vt 0.319210 0.425727
vt 0.339858 0.424918
vt 0.359307 0.423333
vt 0.376811 0.421031
vt 0.391697 0.418101
vt 0.411579 0.465472
vt 0.751488 0.833273
vt 0.733984 0.830971
vt 0.714534 0.829386
vt 0.693886 0.828578
vt 0.672834 0.828578
vt 0.652187 0.829386
vt 0.632737 0.830971
vt 0.615233 0.833273
vt 0.019881 0.000000
vt 0.034768 0.002930
vt 0.052272 0.005232
vt 0.071721 0.006817
vt 0.092369 0.007625
vt 0.113421 0.007625
vt 0.134068 0.006817
vt 0.153518 0.005232
vt 0.171022 0.002930
vt 0.185908 0.000000
vt 0.427895 0.002930
vt 0.445399 0.005232
vt 0.464849 0.006817
vt 0.485496 0.007625
vn 0.0980 0.9952 0.0000
vn 0.2903 0.9569 0.0000
vn 0.4714 0.8819 0.0000
vn 0.6344 0.7730 0.0000
vn 0.7730 0.6344 0.0000
vn 0.8819 0.4714 0.0000
vn 0.9569 0.2903 0.0000
vn 0.9952 0.0980 0.0000
vn 0.9952 -0.0980 -0.0000
vn 0.9569 -0.2903 -0.0000
vn 0.8819 -0.4714 -0.0000
vn 0.7730 -0.6344 -0.0000
vn 0.6344 -0.7730 -0.0000
vn 0.4714 -0.8819 -0.0000
vn 0.2903 -0.9569 0.0000
vn 0.0980 -0.9952 0.0000
vn -0.0980 -0.9952 0.0000
vn -0.2903 -0.9569 0.0000
vn -0.4714 -0.8819 -0.0000
vn -0.6344 -0.7730 -0.0000
vn -0.7730 -0.6344 -0.0000
vn -0.8819 -0.4714 -0.0000
vn -0.9569 -0.2903 -0.0000
vn -0.9952 -0.0980 -0.0000
vn -0.9952 0.0980 0.0000
vn -0.9569 0.2903 0.0000
vn -0.8819 0.4714 0.0000
vn -0.7730 0.6344 0.0000
vn -0.6344 0.7730 0.0000
vn -0.4714 0.8819 0.0000
vn -0.0000 0.0000 1.0000
vn -0.2903 0.9569 0.0000
vn -0.0980 0.9952 0.0000
vn 0.0852 0.8652 0.4941
vn 0.2524 0.8320 0.4941
vn 0.4098 0.7668 0.4941
vn 0.5516 0.6721 0.4941
vn 0.6721 0.5516 0.4941
vn 0.7668 0.4098 0.4941
vn 0.8320 0.2524 0.4941
vn 0.8652 0.0852 0.4941
vn 0.8652 -0.0852 0.4941
vn 0.8320 -0.2524 0.4941
vn 0.7668 -0.4098 0.4941
vn 0.6721 -0.5516 0.4941
vn 0.5516 -0.6721 0.4941
vn 0.4098 -0.7668 0.4941
vn 0.2524 -0.8320 0.4941
vn 0.0852 -0.8652 0.4941
vn -0.0852 -0.8652 0.4941
vn -0.2524 -0.8320 0.4941
vn -0.4098 -0.7668 0.4941
vn -0.5516 -0.6721 0.4941
vn -0.6721 -0.5516 0.4941
vn -0.7668 -0.4098 0.4941
vn -0.8320 -0.2524 0.4941
vn -0.8652 -0.0852 0.4941
vn -0.8652 0.0852 0.4941
vn -0.8320 0.2524 0.4941
vn -0.7668 0.4098 0.4941
vn -0.6721 0.5516 0.4941
vn -0.5516 0.6721 0.4941
vn -0.4098 0.7668 0.4941
vn -0.2524 0.8320 0.4941
vn -0.0852 0.8652 0.4941
usemtl Material.004
s off
f 1/1/1 66/2/1 65/3/1 3/4/1
f 3/4/2 65/3/2 67/5/2 5/6/2
f 5/6/3 67/5/3 68/7/3 7/8/3
f 7/8/4 68/7/4 69/9/4 9/10/4
f 9/11/5 69/12/5 70/13/5 11/14/5
f 11/14/6 70/13/6 71/15/6 13/16/6
f 13/16/7 71/15/7 72/17/7 15/18/7
f 15/18/8 72/17/8 73/19/8 17/20/8
f 17/20/9 73/19/9 74/21/9 19/22/9
f 19/22/10 74/21/10 75/23/10 21/24/10
f 21/24/11 75/23/11 76/25/11 23/26/11
f 23/27/12 76/28/12 77/29/12 25/30/12
f 25/30/13 77/29/13 78/31/13 27/32/13
f 27/32/14 78/31/14 79/33/14 29/34/14
f 29/34/15 79/33/15 80/35/15 31/36/15
f 31/36/16 80/35/16 81/37/16 33/38/16
f 33/38/17 81/37/17 82/39/17 35/40/17
f 35/40/18 82/39/18 83/41/18 37/42/18
f 37/42/19 83/41/19 84/43/19 39/44/19
f 39/45/20 84/46/20 85/47/20 41/48/20
f 41/48/21 85/47/21 86/49/21 43/50/21
f 43/50/22 86/49/22 87/51/22 45/52/22
f 45/52/23 87/51/23 88/53/23 47/54/23
f 47/54/24 88/53/24 89/55/24 49/56/24
f 49/56/25 89/55/25 90/57/25 51/58/25
f 51/58/26 90/57/26 91/59/26 53/60/26
f 53/60/27 91/59/27 92/61/27 55/62/27
f 55/62/28 92/61/28 93/63/28 57/64/28
f 57/65/29 93/66/29 94/67/29 59/68/29
f 59/68/30 94/67/30 95/69/30 61/70/30
f 4/71/31 2/72/31 64/73/31 62/74/31 60/75/31 58/76/31 56/77/31 54/78/31 52/79/31 50/80/31 48/81/31 46/82/31 44/83/31 42/84/31 40/85/31 38/86/31 36/87/31 34/88/31 32/89/31 30/90/31 28/91/31 26/92/31 24/93/31 22/94/31 20/95/31 18/96/31 16/97/31 14/98/31 12/99/31 10/100/31 8/101/31 6/102/31
f 61/70/32 95/69/32 96/103/32 63/104/32
f 63/104/33 96/103/33 66/2/33 1/1/33
f 2/105/34 4/106/34 65/3/34 66/2/34
f 4/106/35 6/107/35 67/5/35 65/3/35
f 6/107/36 8/108/36 68/7/36 67/5/36
f 8/108/37 10/109/37 69/9/37 68/7/37
f 10/110/38 12/111/38 70/13/38 69/12/38
f 12/111/39 14/112/39 71/15/39 70/13/39
f 14/112/40 16/113/40 72/17/40 71/15/40
f 16/113/41 18/114/41 73/19/41 72/17/41
f 18/114/42 20/115/42 74/21/42 73/19/42
f 20/115/43 22/116/43 75/23/43 74/21/43
f 22/116/44 24/117/44 76/25/44 75/23/44
f 24/117/45 26/118/45 77/119/45 76/25/45
f 26/120/46 28/121/46 78/31/46 77/29/46
f 28/121/47 30/122/47 79/33/47 78/31/47
f 30/122/48 32/123/48 80/35/48 79/33/48
f 32/123/49 34/124/49 81/37/49 80/35/49
f 34/124/50 36/125/50 82/39/50 81/37/50
f 36/125/51 38/126/51 83/41/51 82/39/51
f 38/126/52 40/127/52 84/43/52 83/41/52
f 40/128/53 42/129/53 85/47/53 84/46/53
f 42/129/54 44/130/54 86/49/54 85/47/54
f 44/130/55 46/131/55 87/51/55 86/49/55
f 46/131/56 48/132/56 88/53/56 87/51/56
f 48/132/57 50/133/57 89/55/57 88/53/57
f 50/133/58 52/134/58 90/57/58 89/55/58
f 52/134/59 54/135/59 91/59/59 90/57/59
f 54/135/60 56/136/60 92/61/60 91/59/60
f 56/136/61 58/137/61 93/63/61 92/61/61
f 58/138/62 60/139/62 94/67/62 93/66/62
f 60/139/63 62/140/63 95/69/63 94/67/63
f 62/140/64 64/141/64 96/103/64 95/69/64
f 64/141/65 2/105/65 66/2/65 96/103/65
f 97/142/1 162/143/1 161/144/1 99/145/1
f 99/145/2 161/144/2 163/146/2 101/147/2
f 101/147/3 163/146/3 164/148/3 103/149/3
f 103/149/4 164/148/4 165/150/4 105/151/4
f 105/152/5 165/153/5 166/154/5 107/155/5
f 107/155/6 166/154/6 167/156/6 109/157/6
f 109/157/7 167/156/7 168/158/7 111/159/7
f 111/159/8 168/158/8 169/160/8 113/161/8
f 113/161/9 169/160/9 170/162/9 115/163/9
f 115/163/10 170/162/10 171/164/10 117/165/10
f 117/165/11 171/164/11 172/166/11 119/167/11
f 119/168/12 172/169/12 173/170/12 121/171/12
f 121/171/13 173/170/13 174/172/13 123/173/13
f 123/173/14 174/172/14 175/174/14 125/175/14
f 125/175/15 175/174/15 176/176/15 127/177/15
f 127/177/16 176/176/16 177/178/16 129/179/16
f 129/179/17 177/178/17 178/180/17 131/181/17
f 131/181/18 178/180/18 179/182/18 133/183/18
f 133/183/19 179/182/19 180/184/19 135/185/19
f 135/186/20 180/187/20 181/188/20 137/189/20
f 137/189/21 181/188/21 182/190/21 139/191/21
f 139/191/22 182/190/22 183/192/22 141/193/22
f 141/193/23 183/192/23 184/194/23 143/195/23
f 143/195/24 184/194/24 185/196/24 145/197/24
f 145/197/25 185/196/25 186/198/25 147/199/25
f 147/199/26 186/198/26 187/200/26 149/201/26
f 149/201/27 187/200/27 188/202/27 151/203/27
f 151/203/28 188/202/28 189/204/28 153/205/28
f 153/206/29 189/207/29 190/208/29 155/209/29
f 155/209/30 190/208/30 191/210/30 157/211/30
f 100/212/31 98/213/31 160/214/31 158/215/31 156/216/31 154/217/31 152/218/31 150/219/31 148/220/31 146/221/31 144/222/31 142/223/31 140/224/31 138/225/31 136/226/31 134/227/31 132/228/31 130/229/31 128/230/31 126/231/31 124/232/31 122/233/31 120/234/31 118/235/31 116/236/31 114/237/31 112/238/31 110/239/31 108/240/31 106/241/31 104/242/31 102/243/31
f 157/211/32 191/210/32 192/244/32 159/245/32
f 159/245/33 192/244/33 162/143/33 97/142/33
f 98/246/34 100/247/34 161/144/34 162/143/34
f 100/247/35 102/248/35 163/146/35 161/144/35
f 102/248/36 104/249/36 164/148/36 163/146/36
f 104/249/37 106/250/37 165/150/37 164/148/37
f 106/251/38 108/252/38 166/154/38 165/153/38
f 108/252/39 110/253/39 167/156/39 166/154/39
f 110/253/40 112/254/40 168/158/40 167/156/40
f 112/254/41 114/255/41 169/160/41 168/158/41
f 114/255/42 116/256/42 170/162/42 169/160/42
f 116/256/43 118/257/43 171/164/43 170/162/43
f 118/257/44 120/258/44 172/166/44 171/164/44
f 120/258/45 122/259/45 173/260/45 172/166/45
f 122/261/46 124/262/46 174/172/46 173/170/46
f 124/262/47 126/263/47 175/174/47 174/172/47
f 126/263/48 128/264/48 176/176/48 175/174/48
f 128/264/49 130/265/49 177/178/49 176/176/49
f 130/265/50 132/266/50 178/180/50 177/178/50
f 132/266/51 134/267/51 179/182/51 178/180/51
f 134/267/52 136/268/52 180/184/52 179/182/52
f 136/269/53 138/270/53 181/188/53 180/187/53
f 138/270/54 140/271/54 182/190/54 181/188/54
f 140/271/55 142/272/55 183/192/55 182/190/55
f 142/272/56 144/273/56 184/194/56 183/192/56
f 144/273/57 146/274/57 185/196/57 184/194/57
f 146/274/58 148/275/58 186/198/58 185/196/58
f 148/275/59 150/276/59 187/200/59 186/198/59
f 150/276/60 152/277/60 188/202/60 187/200/60
f 152/277/61 154/278/61 189/204/61 188/202/61
f 154/279/62 156/280/62 190/208/62 189/207/62
f 156/280/63 158/281/63 191/210/63 190/208/63
f 158/281/64 160/282/64 192/244/64 191/210/64
f 160/282/65 98/246/65 162/143/65 192/244/65
