# Blender v2.83.4 OBJ File: 'cube.blend'
# www.blender.org
mtllib cornor_ramp.mtl
o corner_ramp_Cube.003
v -1.000000 -0.753126 1.000000
v -1.000000 -0.753126 -1.000000
v -1.000000 1.000000 -1.000000
v 1.000000 -0.753126 1.000000
v 1.000000 1.000000 1.000000
v 1.000000 -0.753126 -1.000000
v 1.000000 1.000000 -1.000000
vt 0.250055 0.999891
vt 0.000109 0.749945
vt 0.250055 0.749945
vt 0.000109 0.500000
vt 0.250055 0.500000
vt 0.000109 0.250055
vt 0.250055 0.250055
vt 0.250055 0.000109
vt 0.250273 0.353804
vt 0.500219 0.353804
vt 0.500219 0.603749
vt 0.250273 0.603749
vt 0.583534 0.000109
vt 0.583534 0.353585
vt 0.333588 0.000109
vt 0.250273 0.235760
vn -1.0000 0.0000 0.0000
vn 0.0000 0.0000 -1.0000
vn 1.0000 0.0000 0.0000
vn 0.0000 0.0000 1.0000
vn 0.0000 -1.0000 0.0000
vn 0.0000 0.7520 0.6592
vn -0.6592 0.7520 0.0000
usemtl Material.004
s off
f 1/1/1 3/2/1 2/3/1
f 2/3/2 3/2/2 7/4/2 6/5/2
f 6/5/3 7/4/3 5/6/3 4/7/3
f 4/7/4 5/6/4 1/8/4
f 2/9/5 6/10/5 4/11/5 1/12/5
f 3/13/6 1/14/6 7/15/6
f 7/15/7 1/14/7 5/16/7
