# Blender v2.83.4 OBJ File: 'production.blend'
# www.blender.org
mtllib box_gear_bot.mtl
o Beam_to_gear_box_bot_Cylinder.007
v 0.045105 -0.521231 0.417835
v 0.000000 -0.886978 0.352804
v 0.332538 -0.521231 0.297566
v 0.250212 -0.886978 0.273118
v 0.448708 -0.521231 0.121506
v 0.383348 -0.886978 0.071345
v 0.424027 -0.521231 -0.156438
v 0.337110 -0.886978 -0.158102
v 0.116170 -0.521231 -0.382471
v 0.133135 -0.886978 -0.307863
v -0.200940 -0.521231 -0.355474
v -0.133135 -0.886978 -0.307863
v -0.424027 -0.521231 -0.156438
v -0.337110 -0.886978 -0.158102
v -0.448708 -0.521231 0.121506
v -0.383348 -0.886978 0.071345
v -0.263433 -0.521231 0.348304
v -0.250212 -0.886978 0.273118
v 0.332538 -0.786978 0.297566
v 0.045105 -0.786978 0.417835
v 0.448708 -0.786978 0.121505
v 0.424027 -0.786978 -0.156438
v 0.116170 -0.786978 -0.382471
v -0.200940 -0.786978 -0.355474
v -0.424027 -0.786978 -0.156438
v -0.448708 -0.786978 0.121505
v -0.263433 -0.786978 0.348304
v 0.281788 -0.886978 0.306044
v 0.000000 -0.886978 0.395786
v 0.431724 -0.886978 0.078809
v 0.379652 -0.886978 -0.179593
v 0.149936 -0.886978 -0.348253
v -0.149936 -0.886978 -0.348253
v -0.379652 -0.886978 -0.179593
v -0.431724 -0.886978 0.078809
v -0.281788 -0.886978 0.306044
v 0.281788 -0.997145 0.306044
v 0.000000 -0.997145 0.395786
v 0.431724 -0.997145 0.078809
v 0.379652 -0.997145 -0.179593
v 0.149936 -0.997145 -0.348253
v -0.149936 -0.997145 -0.348253
v -0.379652 -0.997145 -0.179593
v -0.431724 -0.997145 0.078809
v -0.281788 -0.997145 0.306044
v 0.250212 -0.997145 0.273118
v 0.000000 -0.997145 0.352804
v 0.383348 -0.997145 0.071345
v 0.337110 -0.997145 -0.158102
v 0.133135 -0.997145 -0.307863
v -0.133135 -0.997145 -0.307863
v -0.337110 -0.997145 -0.158102
v -0.383348 -0.997145 0.071345
v -0.250212 -0.997145 0.273118
v 0.263433 -0.786978 0.348304
v 0.263433 -0.521231 0.348304
v 0.464373 -0.521231 0.043771
v 0.464373 -0.786978 0.043770
v -0.045105 -0.521231 0.417835
v 0.308538 -0.421231 0.333939
v 0.308538 -0.886978 0.333939
v -0.045105 -0.786978 0.417835
v 0.000000 -0.421231 0.432200
v 0.000000 -0.886978 0.432200
v -0.332538 -0.786978 0.297566
v -0.332538 -0.521231 0.297566
v -0.464373 -0.786978 0.043770
v -0.464373 -0.521231 0.043771
v -0.308538 -0.421231 0.333939
v -0.308538 -0.886978 0.333939
v -0.378922 -0.786978 -0.224797
v -0.378922 -0.521231 -0.224797
v -0.472708 -0.421231 0.085133
v -0.472708 -0.886978 0.085132
v -0.116170 -0.786978 -0.382471
v -0.116170 -0.521231 -0.382471
v -0.415692 -0.421231 -0.197800
v -0.415692 -0.886978 -0.197800
v 0.200940 -0.786978 -0.355474
v 0.200940 -0.521231 -0.355474
v -0.164170 -0.421231 -0.382471
v -0.164170 -0.886978 -0.382471
v 0.472708 -0.886978 0.085132
v 0.472708 -0.421231 0.085132
v 0.378922 -0.521231 -0.224797
v 0.378922 -0.786978 -0.224797
v 0.415692 -0.886978 -0.197800
v 0.415692 -0.421231 -0.197800
v 0.164170 -0.421231 -0.382471
v 0.164170 -0.886978 -0.382471
v 0.116170 -0.786977 -0.732471
v 0.116170 -0.521231 -0.732471
v -0.116170 -0.521231 -0.732471
v -0.116170 -0.786977 -0.732471
v -0.408078 -0.786978 -0.637597
v -0.408078 -0.521231 -0.637597
v -0.586061 -0.521231 -0.506920
v -0.586061 -0.786978 -0.506920
v 0.586060 -0.786978 -0.506920
v 0.586060 -0.521231 -0.506920
v 0.408078 -0.521231 -0.637597
v 0.408078 -0.786977 -0.637597
v 0.807475 -0.786978 -0.025370
v 0.807475 -0.521231 -0.025370
v 0.767130 -0.521231 -0.225579
v 0.767130 -0.786978 -0.225579
v 0.624674 -0.786978 0.490326
v 0.624674 -0.521231 0.490326
v 0.740844 -0.521231 0.314265
v 0.740844 -0.786978 0.314265
v 0.151315 -0.521231 0.751331
v 0.369643 -0.521231 0.681800
v 0.369643 -0.786978 0.681800
v 0.151315 -0.786978 0.751331
v -0.767130 -0.786978 -0.225579
v -0.767130 -0.521231 -0.225579
v -0.807475 -0.521231 -0.025370
v -0.807475 -0.786978 -0.025370
v -0.740844 -0.786978 0.314265
v -0.740844 -0.521231 0.314265
v -0.624674 -0.521231 0.490326
v -0.624674 -0.786978 0.490326
v -0.151315 -0.521231 0.751331
v -0.151315 -0.786978 0.751331
v -0.369643 -0.786978 0.681800
v -0.369643 -0.521231 0.681800
vt 0.047735 0.934859
vt 0.000000 0.934859
vt 0.000000 0.816118
vt 0.047735 0.816118
vt 0.780505 0.010431
vt 0.866800 0.000000
vt 0.866800 0.134415
vt 0.780505 0.144846
vt 0.143206 0.816118
vt 0.190942 0.816118
vt 0.190942 0.932458
vt 0.143206 0.932458
vt 0.086246 0.805299
vt 0.000000 0.816118
vt 0.000000 0.675332
vt 0.086246 0.664513
vt 0.855039 0.645863
vt 0.768092 0.645863
vt 0.768092 0.498917
vt 0.855039 0.498917
vt 0.771119 0.799622
vt 0.818854 0.799622
vt 0.818854 0.933460
vt 0.771119 0.933460
vt 0.238677 0.932458
vt 0.190942 0.932458
vt 0.190942 0.816118
vt 0.238677 0.816118
vt 0.536720 0.364299
vt 0.600770 0.439232
vt 0.600770 0.537050
vt 0.536720 0.611984
vt 0.438589 0.628970
vt 0.352294 0.580061
vt 0.318214 0.488141
vt 0.352294 0.396222
vt 0.438589 0.347313
vt 0.940633 0.492158
vt 0.854338 0.481727
vt 0.854338 0.347313
vt 0.940633 0.357744
vt 0.318214 0.628970
vt 0.404901 0.635561
vt 0.404901 0.780912
vt 0.318214 0.774321
vt 0.390447 0.287002
vt 0.348422 0.173656
vt 0.390447 0.060310
vt 0.496857 0.000000
vt 0.617863 0.020946
vt 0.696844 0.113346
vt 0.696844 0.233967
vt 0.617863 0.326367
vt 0.496857 0.347313
vt 0.053955 0.277175
vt 0.151140 0.332257
vt 0.148435 0.347313
vt 0.042025 0.287002
vt 0.261654 0.313127
vt 0.269441 0.326367
vt 0.333787 0.228738
vt 0.348422 0.233967
vt 0.333787 0.118575
vt 0.348422 0.113346
vt 0.261654 0.034185
vt 0.269441 0.020946
vt 0.151140 0.015056
vt 0.148435 0.000000
vt 0.053955 0.070137
vt 0.042025 0.060310
vt 0.015574 0.173656
vt 0.000000 0.173656
vt 0.838643 0.799622
vt 0.838643 0.890613
vt 0.818854 0.890613
vt 0.818854 0.799622
vt 0.982060 0.000000
vt 0.982060 0.104031
vt 0.962271 0.104031
vt 0.962271 0.000000
vt 0.973325 0.849053
vt 0.973326 0.931518
vt 0.953537 0.931518
vt 0.953537 0.849053
vt 0.980211 0.385134
vt 0.980211 0.460931
vt 0.960422 0.460931
vt 0.960422 0.385134
vt 0.982060 0.207018
vt 0.962271 0.207018
vt 0.980211 0.287325
vt 0.960422 0.287325
vt 0.940633 0.492158
vt 0.940633 0.409167
vt 0.960422 0.409167
vt 0.960422 0.492158
vt 0.980211 0.213270
vt 0.960422 0.213270
vt 0.940633 0.299026
vt 0.960422 0.299026
vt 0.973325 0.738930
vt 0.953536 0.738930
vt 0.838643 0.983395
vt 0.818854 0.983395
vt 0.973325 0.652676
vt 0.953536 0.652676
vt 0.980211 0.397073
vt 0.980211 0.305825
vt 1.000000 0.305825
vt 1.000000 0.397073
vt 0.598065 0.628970
vt 0.598065 0.739111
vt 0.578276 0.739111
vt 0.578276 0.628970
vt 0.993115 0.652676
vt 0.993115 0.745231
vt 0.973326 0.745231
vt 0.973325 0.652676
vt 0.980211 0.213270
vt 1.000000 0.213270
vt 0.940633 0.213270
vt 0.960422 0.213270
vt 0.993115 0.836480
vt 0.973326 0.836480
vt 0.618733 0.616496
vt 0.666469 0.616496
vt 0.684431 0.634123
vt 0.600770 0.634123
vt 0.666469 0.531173
vt 0.684431 0.513546
vt 0.618733 0.531173
vt 0.600770 0.513546
vt 0.666469 0.711217
vt 0.666469 0.647323
vt 0.684431 0.724416
vt 0.618733 0.647323
vt 0.618733 0.711217
vt 0.600770 0.724416
vt 0.714806 0.210019
vt 0.762542 0.210019
vt 0.780505 0.226671
vt 0.696844 0.226671
vt 0.762542 0.129416
vt 0.714806 0.129416
vt 0.696844 0.112764
vt 0.780505 0.112764
vt 0.762542 0.016485
vt 0.714806 0.016485
vt 0.696844 0.000000
vt 0.780505 0.000000
vt 0.714806 0.096279
vt 0.762542 0.096279
vt 0.702394 0.424898
vt 0.750129 0.424898
vt 0.768092 0.438182
vt 0.684431 0.438182
vt 0.750129 0.360597
vt 0.768092 0.347313
vt 0.702394 0.360597
vt 0.684431 0.347313
vt 0.702394 0.541149
vt 0.750129 0.541149
vt 0.768092 0.558779
vt 0.684431 0.558779
vt 0.750129 0.455812
vt 0.702394 0.455812
vt 0.702394 0.638949
vt 0.750129 0.638949
vt 0.768092 0.652676
vt 0.684431 0.652676
vt 0.750129 0.572506
vt 0.702394 0.572506
vt 0.618733 0.499739
vt 0.666469 0.499739
vt 0.666469 0.432911
vt 0.684431 0.419104
vt 0.618733 0.432911
vt 0.600770 0.419104
vt 0.714806 0.329638
vt 0.762542 0.329638
vt 0.780505 0.347268
vt 0.696844 0.347268
vt 0.762542 0.244301
vt 0.780505 0.226671
vt 0.714806 0.244301
vt 0.696844 0.226671
vt 0.866800 0.268687
vt 0.914535 0.268687
vt 0.914535 0.335131
vt 0.866800 0.335131
vt 0.684431 0.804619
vt 0.732167 0.804619
vt 0.732167 0.933798
vt 0.684431 0.933798
vt 0.914535 0.116017
vt 0.962271 0.116017
vt 0.962271 0.208905
vt 0.914535 0.208905
vt 0.771119 0.652676
vt 0.858065 0.652676
vt 0.858065 0.799622
vt 0.771119 0.799622
vt 0.989605 0.584254
vt 0.941869 0.584254
vt 0.941869 0.498917
vt 0.989605 0.498917
vt 0.768092 0.347313
vt 0.854338 0.358131
vt 0.854338 0.498917
vt 0.768092 0.488098
vt 0.258737 0.805299
vt 0.172491 0.816118
vt 0.172491 0.675332
vt 0.258737 0.664513
vt 0.953536 0.786264
vt 0.905801 0.786264
vt 0.905801 0.652676
vt 0.953536 0.652676
vt 0.645872 0.954599
vt 0.598136 0.954599
vt 0.598136 0.869262
vt 0.645872 0.869262
vt 0.086246 0.664513
vt 0.172491 0.675332
vt 0.172491 0.816117
vt 0.086246 0.805299
vt 0.905801 0.793074
vt 0.858066 0.793074
vt 0.858066 0.652676
vt 0.905801 0.652676
vt 0.953536 0.919851
vt 0.905801 0.919851
vt 0.905801 0.786264
vt 0.953536 0.786264
vt 0.666469 0.414142
vt 0.618733 0.414142
vt 0.618733 0.347313
vt 0.666469 0.347313
vt 0.405044 0.910256
vt 0.318214 0.914677
vt 0.318214 0.785334
vt 0.405044 0.780912
vt 0.491874 0.914677
vt 0.405044 0.910256
vt 0.405044 0.780912
vt 0.491874 0.785334
vt 0.365949 1.000000
vt 0.318214 1.000000
vt 0.318214 0.914677
vt 0.365949 0.914677
vt 0.905801 0.927391
vt 0.858066 0.927391
vt 0.858066 0.793074
vt 0.905801 0.793074
vt 0.914535 0.000000
vt 0.914535 0.134344
vt 0.866800 0.134344
vt 0.866800 0.289691
vt 0.780505 0.279260
vt 0.780505 0.144846
vt 0.866800 0.155277
vt 0.509155 0.978571
vt 0.461420 0.978571
vt 0.461420 0.914677
vt 0.509155 0.914677
vt 0.771119 0.804619
vt 0.684431 0.798028
vt 0.684431 0.652676
vt 0.771119 0.659267
vt 0.143206 0.934381
vt 0.095471 0.934381
vt 0.095471 0.816118
vt 0.143206 0.816118
vt 0.578276 0.774321
vt 0.491589 0.780912
vt 0.491589 0.635561
vt 0.578276 0.628970
vt 0.941869 0.584254
vt 0.989605 0.584254
vt 0.989605 0.648555
vt 0.941869 0.648555
vt 0.914535 0.000000
vt 0.962271 0.000000
vt 0.962271 0.116017
vt 0.914535 0.116017
vt 0.491874 0.780912
vt 0.578704 0.785334
vt 0.578704 0.914677
vt 0.491874 0.910256
vt 0.855039 0.503338
vt 0.941869 0.498917
vt 0.941869 0.628260
vt 0.855039 0.632681
vt 0.461420 0.994471
vt 0.413685 0.994471
vt 0.413685 0.914677
vt 0.461420 0.914677
vt 0.866800 0.134344
vt 0.914535 0.134344
vt 0.914535 0.268687
vt 0.866800 0.268687
vt 0.258737 0.806199
vt 0.306472 0.806199
vt 0.306472 0.928498
vt 0.258737 0.928498
vt 0.598136 0.734847
vt 0.684431 0.724417
vt 0.684431 0.858831
vt 0.598136 0.869262
vt 0.413685 0.995280
vt 0.365949 0.995280
vt 0.365949 0.914677
vt 0.413685 0.914677
vt 0.095471 0.934381
vt 0.047735 0.934381
vt 0.047735 0.816118
vt 0.095471 0.816118
vt 0.404901 0.635561
vt 0.491589 0.628970
vt 0.491589 0.774321
vt 0.404901 0.780912
vt 0.306472 0.806199
vt 0.258737 0.806199
vt 0.258737 0.664513
vt 0.306472 0.664513
vt 0.135566 0.664513
vt 0.138758 0.646742
vt 0.236889 0.629756
vt 0.246081 0.645384
vt 0.300940 0.554822
vt 0.318214 0.560994
vt 0.038381 0.609432
vt 0.052463 0.597832
vt 0.000000 0.505913
vt 0.018383 0.505913
vt 0.038381 0.402394
vt 0.052463 0.413994
vt 0.135566 0.347313
vt 0.138758 0.365085
vt 0.246081 0.366442
vt 0.236889 0.382071
vt 0.300940 0.457004
vt 0.318214 0.450832
vn -0.9528 -0.0000 0.3035
vn 0.0000 -1.0000 -0.0000
vn -0.1975 0.0000 -0.9803
vn -0.0000 1.0000 0.0000
vn -0.8061 0.0000 0.5918
vn 0.1975 0.0000 -0.9803
vn 0.5918 -0.0000 0.8061
vn -0.3035 -0.0000 0.9528
vn 0.3035 -0.0000 0.9528
vn 0.0000 -0.0000 1.0000
vn -0.8347 -0.0000 0.5507
vn -0.5918 -0.0000 0.8061
vn -0.9803 0.0000 -0.1975
vn -0.9803 0.0000 0.1975
vn -0.5918 0.0000 -0.8061
vn 0.8347 0.0000 0.5507
vn 0.9803 0.0000 0.1975
vn 0.9803 0.0000 -0.1975
vn 0.8347 0.0000 -0.5507
vn 0.5918 0.0000 -0.8061
vn -0.3035 0.0000 -0.9528
vn 0.3035 0.0000 -0.9528
vn -0.0000 0.0000 -1.0000
vn -0.8347 0.0000 -0.5507
vn 1.0000 0.0000 -0.0000
vn -1.0000 0.0000 0.0000
vn 0.8061 0.0000 -0.5918
vn 0.8061 0.0000 0.5918
vn -0.8061 0.0000 -0.5918
vn 0.1975 -0.0000 0.9803
vn -0.5507 -0.0000 0.8347
vn 0.5507 0.0000 -0.8347
vn 0.9528 0.0000 -0.3035
vn -0.1975 -0.0000 0.9803
vn -0.5507 0.0000 -0.8347
vn 0.5507 -0.0000 0.8347
vn -0.9528 0.0000 -0.3035
vn 0.9528 -0.0000 0.3035
usemtl Material.009
s off
f 1/1/1 20/2/1 114/3/1 111/4/1
f 19/5/2 21/6/2 110/7/2 107/8/2
f 22/9/3 7/10/3 105/11/3 106/12/3
f 80/13/4 85/14/4 100/15/4 101/16/4
f 23/17/2 75/18/2 94/19/2 91/20/2
f 71/21/5 72/22/5 97/23/5 98/24/5
f 13/25/6 25/26/6 115/27/6 116/28/6
f 4/29/2 2/30/2 18/31/2 16/32/2 14/33/2 12/34/2 10/35/2 8/36/2 6/37/2
f 26/38/2 65/39/2 122/40/2 119/41/2
f 27/42/2 62/43/2 124/44/2 125/45/2
f 63/46/4 60/47/4 84/48/4 88/49/4 89/50/4 81/51/4 77/52/4 73/53/4 69/54/4
f 29/55/2 28/56/2 61/57/2 64/58/2
f 28/56/2 30/59/2 83/60/2 61/57/2
f 30/59/2 31/61/2 87/62/2 83/60/2
f 31/61/2 32/63/2 90/64/2 87/62/2
f 32/63/2 33/65/2 82/66/2 90/64/2
f 33/65/2 34/67/2 78/68/2 82/66/2
f 34/67/2 35/69/2 74/70/2 78/68/2
f 35/69/2 36/71/2 70/72/2 74/70/2
f 36/71/2 29/55/2 64/58/2 70/72/2
f 12/73/7 14/74/7 52/75/7 51/76/7
f 29/77/8 36/78/8 45/79/8 38/80/8
f 28/81/9 29/82/9 38/83/9 37/84/9
f 10/85/10 12/86/10 51/87/10 50/88/10
f 36/78/11 35/89/11 44/90/11 45/79/11
f 8/91/12 10/85/12 50/88/12 49/92/12
f 35/93/13 34/94/13 43/95/13 44/96/13
f 6/97/14 8/91/14 49/92/14 48/98/14
f 34/94/15 33/99/15 42/100/15 43/95/15
f 30/101/16 28/81/16 37/84/16 39/102/16
f 14/74/17 16/103/17 53/104/17 52/75/17
f 31/105/18 30/101/18 39/102/18 40/106/18
f 16/107/19 18/108/19 54/109/19 53/110/19
f 32/111/20 31/112/20 40/113/20 41/114/20
f 2/115/21 4/116/21 46/117/21 47/118/21
f 18/108/22 2/119/22 47/120/22 54/109/22
f 33/99/23 32/121/23 41/122/23 42/100/23
f 4/116/24 6/123/24 48/124/24 46/117/24
f 19/125/16 3/126/16 60/127/16 61/128/16
f 3/126/16 5/129/16 84/130/16 60/127/16
f 21/131/16 19/125/16 61/128/16 83/132/16
f 5/129/16 21/131/16 83/132/16 84/130/16
f 1/133/9 56/134/9 60/127/9 63/135/9
f 55/136/9 20/137/9 64/138/9 61/128/9
f 20/137/9 1/133/9 63/135/9 64/138/9
f 56/134/9 55/136/9 61/128/9 60/127/9
f 59/139/8 62/140/8 64/141/8 63/142/8
f 27/143/8 17/144/8 69/145/8 70/146/8
f 17/144/8 59/139/8 63/142/8 69/145/8
f 62/140/8 27/143/8 70/146/8 64/141/8
f 26/147/11 15/148/11 73/149/11 74/150/11
f 15/148/11 66/151/11 69/145/11 73/149/11
f 65/152/11 26/147/11 74/150/11 70/146/11
f 66/151/11 65/152/11 70/146/11 69/145/11
f 25/153/13 13/154/13 77/155/13 78/156/13
f 13/154/13 68/157/13 73/158/13 77/155/13
f 67/159/13 25/153/13 78/156/13 74/160/13
f 68/157/13 67/159/13 74/160/13 73/158/13
f 24/161/15 11/162/15 81/163/15 82/164/15
f 11/162/15 72/165/15 77/155/15 81/163/15
f 71/166/15 24/161/15 82/164/15 78/156/15
f 72/165/15 71/166/15 78/156/15 77/155/15
f 23/167/23 9/168/23 89/169/23 90/170/23
f 9/168/23 76/171/23 81/163/23 89/169/23
f 75/172/23 23/167/23 90/170/23 82/164/23
f 76/171/23 75/172/23 82/164/23 81/163/23
f 58/173/18 57/174/18 84/130/18 83/132/18
f 57/174/18 7/175/18 88/176/18 84/130/18
f 22/177/18 58/173/18 83/132/18 87/178/18
f 7/175/18 22/177/18 87/178/18 88/176/18
f 86/179/20 85/180/20 88/181/20 87/182/20
f 85/180/20 80/183/20 89/184/20 88/181/20
f 79/185/20 86/179/20 87/182/20 90/186/20
f 80/183/20 79/185/20 90/186/20 89/184/20
f 92/187/23 91/188/23 94/189/23 93/190/23
f 9/191/25 23/192/25 91/193/25 92/194/25
f 75/195/26 76/196/26 93/197/26 94/198/26
f 76/199/4 9/200/4 92/201/4 93/202/4
f 96/203/15 95/204/15 98/205/15 97/206/15
f 72/207/4 11/208/4 96/209/4 97/210/4
f 24/211/2 71/212/2 98/213/2 95/214/2
f 11/215/27 24/216/27 95/217/27 96/218/27
f 100/219/20 99/220/20 102/221/20 101/222/20
f 86/223/2 79/224/2 102/225/2 99/226/2
f 85/227/28 86/228/28 99/229/28 100/230/28
f 79/231/29 80/232/29 101/233/29 102/234/29
f 104/235/18 103/236/18 106/237/18 105/238/18
f 7/239/4 57/240/4 104/241/4 105/242/4
f 58/243/2 22/244/2 106/245/2 103/246/2
f 57/174/30 58/173/30 103/236/30 104/235/30
f 108/247/16 107/248/16 110/249/16 109/250/16
f 3/251/31 19/252/31 107/253/31 108/254/31
f 21/6/32 5/255/32 109/256/32 110/257/32
f 5/258/4 3/259/4 108/260/4 109/261/4
f 111/262/9 114/263/9 113/264/9 112/265/9
f 56/266/4 1/267/4 111/268/4 112/269/4
f 55/270/33 56/271/33 112/272/33 113/273/33
f 20/274/2 55/275/2 113/276/2 114/277/2
f 116/278/13 115/279/13 118/280/13 117/281/13
f 67/282/34 68/283/34 117/284/34 118/285/34
f 68/286/4 13/287/4 116/288/4 117/289/4
f 25/290/2 67/291/2 118/292/2 115/293/2
f 120/294/11 119/295/11 122/296/11 121/297/11
f 15/298/35 26/299/35 119/300/35 120/301/35
f 65/302/36 66/303/36 121/304/36 122/305/36
f 66/306/4 15/307/4 120/308/4 121/309/4
f 126/310/8 125/311/8 124/312/8 123/313/8
f 17/314/37 27/315/37 125/316/37 126/317/37
f 59/318/4 17/319/4 126/320/4 123/321/4
f 62/322/38 59/323/38 123/324/38 124/325/38
f 43/326/2 52/327/2 53/328/2 44/329/2
f 44/329/2 53/328/2 54/330/2 45/331/2
f 42/332/2 51/333/2 52/327/2 43/326/2
f 41/334/2 50/335/2 51/333/2 42/332/2
f 40/336/2 49/337/2 50/335/2 41/334/2
f 39/338/2 48/339/2 49/337/2 40/336/2
f 37/340/2 46/341/2 48/339/2 39/338/2
f 45/331/2 54/330/2 47/342/2 38/343/2
f 38/343/2 47/342/2 46/341/2 37/340/2
