# Blender v2.83.4 OBJ File: 'production.blend'
# www.blender.org
mtllib furnace_gear.mtl
o furnace_gear_Cylinder.003
v 0.634253 0.375524 -0.159862
v 0.634253 0.177669 -0.400560
v 0.634253 -0.024363 -0.461186
v 0.634253 -0.283465 -0.357611
v 0.634253 -0.411407 0.002248
v 0.634253 -0.294348 0.298194
v 0.634253 -0.039561 0.454613
v 0.634253 0.233737 0.398313
v 0.634253 0.397667 0.155638
v 0.900000 0.177669 -0.400560
v 0.900000 0.375524 -0.159862
v 0.900000 -0.024363 -0.461186
v 0.900000 -0.283465 -0.357611
v 0.900000 -0.411407 0.002248
v 0.900000 -0.294348 0.298194
v 0.900000 -0.039561 0.454613
v 0.900000 0.233737 0.398313
v 0.900000 0.397667 0.155638
v 0.900000 0.246139 -0.348967
v 0.634253 0.246139 -0.348967
v 0.634253 -0.103319 -0.453832
v 0.900000 -0.103319 -0.453832
v 0.634253 0.401469 -0.073463
v 0.534253 0.079315 -0.140272
v 1.000000 0.219408 -0.388036
v 0.900000 0.401469 -0.073463
v 0.534253 0.145412 -0.043666
v 1.000000 0.402255 -0.120794
v 0.900000 0.368948 0.236416
v 0.634253 0.368948 0.236416
v 0.900000 0.163792 0.435673
v 0.634253 0.163792 0.435673
v 0.534253 0.143470 0.073372
v 1.000000 0.396882 0.202969
v 0.900000 -0.118004 0.431074
v 0.634253 -0.118004 0.431074
v 0.534253 0.074397 0.156078
v 1.000000 0.205803 0.431760
v 0.900000 -0.344585 0.224770
v 0.634253 -0.344585 0.224770
v 0.534253 -0.029488 0.165754
v 1.000000 -0.081573 0.458526
v 0.900000 -0.409931 -0.086705
v 0.634253 -0.409930 -0.086705
v 0.534253 -0.119575 0.097872
v 1.000000 -0.330780 0.270742
v 1.000000 -0.066102 -0.473711
v 0.534253 -0.023895 -0.171243
v 0.634253 -0.335963 -0.294751
v 0.900000 -0.335963 -0.294751
v 1.000000 -0.320682 -0.337732
v 0.534253 -0.115924 -0.122088
v 0.534253 -0.153711 -0.015806
v 1.000000 -0.425212 -0.043724
v 0.900000 -0.746619 0.102909
v 0.634253 -0.746619 0.102909
v 0.634253 -0.679797 0.325432
v 0.900000 -0.679797 0.325432
v 0.900000 -0.504978 0.577721
v 0.634253 -0.504978 0.577721
v 0.634253 -0.328634 0.710600
v 0.900000 -0.328634 0.710600
v 0.900000 -0.665741 -0.411998
v 0.634253 -0.665741 -0.411998
v 0.634253 -0.739708 -0.203952
v 0.900000 -0.739708 -0.203952
v 0.900000 -0.268216 -0.762554
v 0.634253 -0.268216 -0.762554
v 0.634253 -0.448362 -0.666332
v 0.900000 -0.448362 -0.666332
v 0.900000 0.278266 -0.735792
v 0.634253 0.278266 -0.735792
v 0.634253 0.076233 -0.796418
v 0.900000 0.076233 -0.796418
v 0.634253 0.664384 -0.357499
v 0.634253 0.534998 -0.546604
v 0.900000 0.534998 -0.546604
v 0.900000 0.664383 -0.357499
v 0.900000 -0.007103 0.803105
v 0.634253 -0.007103 0.803105
v 0.634253 0.196250 0.784165
v 0.900000 0.196250 0.784165
v 0.900000 0.502372 0.622668
v 0.634253 0.502373 0.622668
v 0.634253 0.637583 0.460771
v 0.900000 0.637583 0.460771
v 0.634253 0.751421 -0.067655
v 0.900000 0.751421 -0.067655
v 0.900000 0.747619 0.161446
v 0.634253 0.747619 0.161446
v 0.534253 0.402255 -0.120794
v 0.534253 0.219408 -0.388036
v 0.534253 -0.066102 -0.473711
v 0.534253 -0.320682 -0.337732
v 0.534253 -0.425212 -0.043724
v 0.534253 -0.330780 0.270742
v 0.534253 -0.081573 0.458526
v 0.534253 0.205803 0.431760
v 0.534253 0.396882 0.202969
v 0.370448 0.145412 -0.043666
v 0.370448 0.079315 -0.140272
v 0.370448 -0.023895 -0.171243
v 0.370448 -0.115924 -0.122088
v 0.370448 -0.153711 -0.015806
v 0.370448 -0.119575 0.097872
v 0.370448 -0.029488 0.165754
v 0.370448 0.074397 0.156078
v 0.370448 0.143470 0.073372
vt 0.919431 0.165811
vt 0.972254 0.165811
vt 0.972254 0.299703
vt 0.919431 0.299703
vt 0.277733 0.716790
vt 0.373226 0.705020
vt 0.373226 0.856691
vt 0.277733 0.868461
vt 0.330556 1.000000
vt 0.277733 1.000000
vt 0.277733 0.868461
vt 0.330556 0.868461
vt 0.512547 0.722210
vt 0.417110 0.734417
vt 0.417110 0.575558
vt 0.512547 0.563350
vt 0.801103 0.557712
vt 0.704890 0.557712
vt 0.704889 0.391901
vt 0.801103 0.391901
vt 0.894354 0.563350
vt 0.947177 0.563350
vt 0.947177 0.714322
vt 0.894354 0.714322
vt 0.330556 0.868461
vt 0.383379 0.868461
vt 0.383379 1.000000
vt 0.330556 1.000000
vt 0.894354 0.890232
vt 0.798861 0.878462
vt 0.798861 0.726791
vt 0.894354 0.738561
vt 0.417110 0.391901
vt 0.513036 0.399338
vt 0.513036 0.563350
vt 0.417110 0.555913
vt 0.406220 0.750576
vt 0.406220 0.799764
vt 0.373660 0.799764
vt 0.373660 0.750576
vt 0.164256 0.391901
vt 0.046504 0.323848
vt 0.000000 0.195950
vt 0.046504 0.068053
vt 0.164256 0.000000
vt 0.298159 0.023635
vt 0.385557 0.127898
vt 0.385557 0.264003
vt 0.298159 0.368266
vt 0.019877 0.695431
vt 0.072700 0.695431
vt 0.092578 0.715318
vt 0.000000 0.715318
vt 0.072700 0.599169
vt 0.092578 0.579282
vt 0.019877 0.599169
vt 0.000000 0.579282
vt 0.072700 0.801911
vt 0.072700 0.730145
vt 0.092578 0.816737
vt 0.019877 0.730145
vt 0.019877 0.801911
vt 0.000000 0.816737
vt 0.205033 0.628872
vt 0.257856 0.628872
vt 0.277733 0.647668
vt 0.185155 0.647668
vt 0.257856 0.537890
vt 0.205033 0.537890
vt 0.185155 0.519094
vt 0.277733 0.519094
vt 0.257856 0.410495
vt 0.205033 0.410495
vt 0.185155 0.391901
vt 0.277733 0.391901
vt 0.205033 0.500500
vt 0.257856 0.500500
vt 0.165278 0.649208
vt 0.112455 0.649209
vt 0.092578 0.634273
vt 0.185155 0.634273
vt 0.112455 0.721501
vt 0.092578 0.736436
vt 0.165278 0.721501
vt 0.185155 0.736436
vt 0.165278 0.518097
vt 0.112455 0.518097
vt 0.092578 0.498206
vt 0.185155 0.498206
vt 0.112455 0.614381
vt 0.165278 0.614381
vt 0.165278 0.407442
vt 0.112455 0.407442
vt 0.092578 0.391901
vt 0.185155 0.391901
vt 0.112455 0.482665
vt 0.165278 0.482665
vt 0.019877 0.563639
vt 0.072700 0.563639
vt 0.072700 0.487923
vt 0.092578 0.472281
vt 0.019877 0.487923
vt 0.000000 0.472281
vt 0.778064 0.754309
vt 0.725241 0.754309
vt 0.705364 0.734417
vt 0.797941 0.734417
vt 0.725241 0.850593
vt 0.705364 0.870485
vt 0.778064 0.850593
vt 0.797941 0.870485
vt 0.628402 0.885355
vt 0.681225 0.885355
vt 0.681225 0.960578
vt 0.628402 0.960578
vt 0.906750 0.391901
vt 0.959573 0.391901
vt 0.959573 0.538069
vt 0.906750 0.538069
vt 0.705364 0.870485
vt 0.758187 0.870485
vt 0.758187 0.975171
vt 0.705364 0.975171
vt 0.771115 0.000000
vt 0.867329 0.000000
vt 0.867329 0.165811
vt 0.771115 0.165811
vt 0.469933 0.885355
vt 0.522756 0.885355
vt 0.522756 0.981639
vt 0.469933 0.981639
vt 0.703423 0.563350
vt 0.798861 0.575558
vt 0.798861 0.734417
vt 0.703423 0.722210
vt 0.703423 0.722210
vt 0.607985 0.734417
vt 0.607985 0.575558
vt 0.703423 0.563350
vt 0.947177 0.864850
vt 0.894354 0.864850
vt 0.894354 0.714322
vt 0.947177 0.714322
vt 0.469933 0.981639
vt 0.417110 0.981639
vt 0.417110 0.885355
vt 0.469933 0.885355
vt 0.512547 0.563350
vt 0.607985 0.575558
vt 0.607985 0.734417
vt 0.512547 0.722210
vt 0.853927 0.550261
vt 0.801103 0.550261
vt 0.801103 0.391901
vt 0.853927 0.391901
vt 0.224910 0.807730
vt 0.277733 0.807730
vt 0.277733 0.958258
vt 0.224910 0.958258
vt 0.072700 0.467617
vt 0.019877 0.467617
vt 0.019877 0.391901
vt 0.072700 0.391901
vt 0.513194 0.880366
vt 0.417110 0.885355
vt 0.417110 0.739406
vt 0.513194 0.734417
vt 0.609279 0.885355
vt 0.513194 0.880366
vt 0.513194 0.734417
vt 0.609279 0.739406
vt 0.575579 0.981617
vt 0.522756 0.981617
vt 0.522756 0.885355
vt 0.575579 0.885355
vt 0.867329 0.000000
vt 0.920152 0.000000
vt 0.920152 0.151566
vt 0.867329 0.151566
vt 0.866608 0.165811
vt 0.919431 0.165811
vt 0.919431 0.317421
vt 0.866608 0.317421
vt 0.866608 0.329252
vt 0.771115 0.317482
vt 0.771115 0.165811
vt 0.866608 0.177581
vt 0.145401 0.959140
vt 0.092578 0.959140
vt 0.092578 0.887374
vt 0.145401 0.887374
vt 0.373660 0.705020
vt 0.277733 0.697583
vt 0.277733 0.533571
vt 0.373660 0.541008
vt 0.894354 0.864850
vt 0.947177 0.864850
vt 0.947177 0.997899
vt 0.894354 0.997899
vt 0.704889 0.555913
vt 0.608963 0.563350
vt 0.608963 0.399338
vt 0.704889 0.391901
vt 0.866608 0.317421
vt 0.919431 0.317421
vt 0.919431 0.389714
vt 0.866608 0.389714
vt 0.947177 0.563350
vt 1.000000 0.563350
vt 1.000000 0.694325
vt 0.947177 0.694325
vt 0.092578 0.736436
vt 0.188662 0.741425
vt 0.188662 0.887374
vt 0.092578 0.882385
vt 0.609279 0.739406
vt 0.705364 0.734417
vt 0.705364 0.880366
vt 0.609279 0.885355
vt 0.628402 0.975359
vt 0.575579 0.975359
vt 0.575579 0.885355
vt 0.628402 0.885355
vt 0.853927 0.391901
vt 0.906750 0.391901
vt 0.906750 0.543511
vt 0.853927 0.543511
vt 0.052823 0.954411
vt 0.000000 0.954411
vt 0.000000 0.816737
vt 0.052823 0.816737
vt 0.798861 0.575120
vt 0.894354 0.563350
vt 0.894354 0.715021
vt 0.798861 0.726791
vt 0.972254 0.390685
vt 0.919431 0.390685
vt 0.919431 0.299703
vt 0.972254 0.299703
vt 0.920152 0.000000
vt 0.972975 0.000000
vt 0.972975 0.133050
vt 0.920152 0.133049
vt 0.608963 0.555913
vt 0.513036 0.563350
vt 0.513036 0.399338
vt 0.608963 0.391901
vt 0.224910 0.647668
vt 0.277733 0.647668
vt 0.277733 0.807730
vt 0.224910 0.807730
vt 0.571852 0.125116
vt 0.529286 0.149716
vt 0.432061 0.068053
vt 0.549813 0.000000
vt 0.620257 0.133659
vt 0.683716 0.023634
vt 0.651851 0.171350
vt 0.771115 0.127898
vt 0.651851 0.220551
vt 0.771115 0.264003
vt 0.620257 0.258242
vt 0.683716 0.368266
vt 0.571852 0.266785
vt 0.549813 0.391901
vt 0.529286 0.242185
vt 0.432061 0.323848
vt 0.512475 0.195951
vt 0.385557 0.195951
vt 0.417109 0.438135
vt 0.417109 0.487336
vt 0.385515 0.525027
vt 0.337110 0.533571
vt 0.294544 0.508970
vt 0.277733 0.462736
vt 0.294544 0.416502
vt 0.337110 0.391901
vt 0.385515 0.400445
vt 0.192350 0.772187
vt 0.192350 0.735524
vt 0.224910 0.735524
vt 0.224910 0.772187
vt 0.406220 0.658118
vt 0.406220 0.704097
vt 0.373660 0.704097
vt 0.373660 0.658118
vt 0.406220 0.533571
vt 0.406220 0.571999
vt 0.373660 0.571999
vt 0.373660 0.533571
vt 0.192350 0.686348
vt 0.224910 0.686348
vt 0.406220 0.750576
vt 0.373660 0.750576
vt 0.406220 0.621186
vt 0.373660 0.621186
vt 0.192350 0.647668
vt 0.224910 0.647668
vn 0.0000 0.5647 0.8253
vn 1.0000 -0.0000 -0.0000
vn 0.0000 -0.8821 0.4711
vn -1.0000 0.0000 0.0000
vn 0.0000 0.7986 0.6018
vn -0.0000 -0.9957 0.0927
vn 0.0000 -0.9422 -0.3350
vn 0.0000 0.2874 -0.9578
vn 0.0000 0.8253 -0.5647
vn 0.0000 0.9999 0.0166
vn 0.0000 0.7675 0.6410
vn 0.0000 0.0927 0.9957
vn -0.0000 -0.6018 0.7986
vn 0.0000 -0.9577 0.2876
vn -0.0000 -0.4711 -0.8821
vn -0.0000 -0.2876 -0.9577
vn 0.0000 0.2876 0.9577
vn -0.0000 -0.7986 -0.6018
vn 0.0000 0.3350 -0.9422
vn -0.0000 -0.3350 0.9422
vn 0.0000 0.8821 -0.4711
vn 0.0000 0.9578 0.2874
vn -0.0000 -0.9578 -0.2874
vn -0.0000 -0.5647 -0.8253
vn 0.0000 0.9957 -0.0927
vn -0.0000 -0.6410 0.7675
vn 0.0000 0.6410 -0.7675
vn 0.0000 -0.0166 0.9999
vn 0.0000 0.0166 -0.9999
usemtl Material.002
s off
f 1/1/1 11/2/1 78/3/1 75/4/1
f 10/5/2 12/6/2 74/7/2 71/8/2
f 13/9/3 4/10/3 69/11/3 70/12/3
f 44/13/4 49/14/4 64/15/4 65/16/4
f 14/17/2 39/18/2 58/19/2 55/20/2
f 35/21/5 36/22/5 61/23/5 62/24/5
f 7/25/6 16/26/6 79/27/6 80/28/6
f 17/29/2 29/30/2 86/31/2 83/32/2
f 18/33/2 26/34/2 88/35/2 89/36/2
f 52/37/7 53/38/7 104/39/7 103/40/7
f 25/41/2 28/42/2 34/43/2 38/44/2 42/45/2 46/46/2 54/47/2 51/48/2 47/49/2
f 10/50/8 2/51/8 92/52/8 25/53/8
f 2/51/8 3/54/8 93/55/8 92/52/8
f 12/56/8 10/50/8 25/53/8 47/57/8
f 3/54/8 12/56/8 47/57/8 93/55/8
f 1/58/9 20/59/9 92/52/9 91/60/9
f 19/61/9 11/62/9 28/63/9 25/53/9
f 11/62/9 1/58/9 91/60/9 28/63/9
f 20/59/9 19/61/9 25/53/9 92/52/9
f 23/64/10 26/65/10 28/66/10 91/67/10
f 18/68/10 9/69/10 99/70/10 34/71/10
f 9/69/10 23/64/10 91/67/10 99/70/10
f 26/65/10 18/68/10 34/71/10 28/66/10
f 17/72/11 8/73/11 98/74/11 38/75/11
f 8/73/11 30/76/11 99/70/11 98/74/11
f 29/77/11 17/72/11 38/75/11 34/71/11
f 30/76/11 29/77/11 34/71/11 99/70/11
f 16/78/12 7/79/12 97/80/12 42/81/12
f 7/79/12 32/82/12 98/83/12 97/80/12
f 31/84/12 16/78/12 42/81/12 38/85/12
f 32/82/12 31/84/12 38/85/12 98/83/12
f 15/86/13 6/87/13 96/88/13 46/89/13
f 6/87/13 36/90/13 97/80/13 96/88/13
f 35/91/13 15/86/13 46/89/13 42/81/13
f 36/90/13 35/91/13 42/81/13 97/80/13
f 14/92/14 5/93/14 95/94/14 54/95/14
f 5/93/14 40/96/14 96/88/14 95/94/14
f 39/97/14 14/92/14 54/95/14 46/89/14
f 40/96/14 39/97/14 46/89/14 96/88/14
f 22/98/15 21/99/15 93/55/15 47/57/15
f 21/99/15 4/100/15 94/101/15 93/55/15
f 13/102/15 22/98/15 47/57/15 51/103/15
f 4/100/15 13/102/15 51/103/15 94/101/15
f 50/104/7 49/105/7 94/106/7 51/107/7
f 49/105/7 44/108/7 95/109/7 94/106/7
f 43/110/7 50/104/7 51/107/7 54/111/7
f 44/108/7 43/110/7 54/111/7 95/109/7
f 56/112/14 55/113/14 58/114/14 57/115/14
f 5/116/16 14/117/16 55/118/16 56/119/16
f 39/120/17 40/121/17 57/122/17 58/123/17
f 40/124/4 5/125/4 56/126/4 57/127/4
f 60/128/13 59/129/13 62/130/13 61/131/13
f 36/132/4 6/133/4 60/134/4 61/135/4
f 15/136/2 35/137/2 62/138/2 59/139/2
f 6/140/18 15/141/18 59/142/18 60/143/18
f 64/144/7 63/145/7 66/146/7 65/147/7
f 50/148/2 43/149/2 66/150/2 63/151/2
f 49/152/19 50/153/19 63/154/19 64/155/19
f 43/156/20 44/157/20 65/158/20 66/159/20
f 68/160/15 67/161/15 70/162/15 69/163/15
f 4/164/4 21/165/4 68/166/4 69/167/4
f 22/168/2 13/169/2 70/170/2 67/171/2
f 21/99/21 22/98/21 67/161/21 68/160/21
f 72/172/8 71/173/8 74/174/8 73/175/8
f 2/176/22 10/177/22 71/178/22 72/179/22
f 12/180/23 3/181/23 73/182/23 74/183/23
f 3/184/4 2/185/4 72/186/4 73/187/4
f 75/188/9 78/189/9 77/190/9 76/191/9
f 20/192/4 1/193/4 75/194/4 76/195/4
f 19/196/24 20/197/24 76/198/24 77/199/24
f 11/200/2 19/201/2 77/202/2 78/203/2
f 80/204/12 79/205/12 82/206/12 81/207/12
f 31/208/25 32/209/25 81/210/25 82/211/25
f 32/212/4 7/213/4 80/214/4 81/215/4
f 16/216/2 31/217/2 82/218/2 79/219/2
f 84/220/11 83/221/11 86/222/11 85/223/11
f 8/224/26 17/225/26 83/226/26 84/227/26
f 29/228/27 30/229/27 85/230/27 86/231/27
f 30/232/4 8/233/4 84/234/4 85/235/4
f 90/236/10 89/237/10 88/238/10 87/239/10
f 9/240/28 18/241/28 89/242/28 90/243/28
f 23/244/4 9/245/4 90/246/4 87/247/4
f 26/248/29 23/249/29 87/250/29 88/251/29
f 24/252/4 27/253/4 91/254/4 92/255/4
f 48/256/4 24/252/4 92/255/4 93/257/4
f 52/258/4 48/256/4 93/257/4 94/259/4
f 53/260/4 52/258/4 94/259/4 95/261/4
f 45/262/4 53/260/4 95/261/4 96/263/4
f 41/264/4 45/262/4 96/263/4 97/265/4
f 37/266/4 41/264/4 97/265/4 98/267/4
f 33/268/4 37/266/4 98/267/4 99/269/4
f 27/253/4 33/268/4 99/269/4 91/254/4
f 100/270/4 101/271/4 102/272/4 103/273/4 104/274/4 105/275/4 106/276/4 107/277/4 108/278/4
f 27/279/9 24/280/9 101/281/9 100/282/9
f 37/283/11 33/284/11 108/285/11 107/286/11
f 53/287/14 45/288/14 105/289/14 104/290/14
f 24/280/8 48/291/8 102/292/8 101/281/8
f 33/284/10 27/293/10 100/294/10 108/285/10
f 45/288/13 41/295/13 106/296/13 105/289/13
f 48/291/15 52/297/15 103/298/15 102/292/15
f 41/295/12 37/283/12 107/286/12 106/296/12
