# Blender v2.83.4 OBJ File: 'production.blend'
# www.blender.org
mtllib gear_to_beam.mtl
o Beam_to_gear_Cylinder.002
v 0.045105 0.405635 0.634253
v 0.000000 0.340604 1.000000
v 0.332538 0.285366 0.634253
v 0.250212 0.260918 1.000000
v 0.448708 0.109305 0.634253
v 0.383348 0.059145 1.000000
v 0.424027 -0.168638 0.634253
v 0.337110 -0.170302 1.000000
v 0.116170 -0.394671 0.634253
v 0.133135 -0.320063 1.000000
v -0.200940 -0.367674 0.634253
v -0.133135 -0.320063 1.000000
v -0.424027 -0.168638 0.634253
v -0.337110 -0.170302 1.000000
v -0.448708 0.109305 0.634253
v -0.383348 0.059145 1.000000
v -0.263433 0.336103 0.634253
v -0.250212 0.260917 1.000000
v 0.332538 0.285366 0.900000
v 0.045105 0.405635 0.900000
v 0.448708 0.109305 0.900000
v 0.424027 -0.168638 0.900000
v 0.116170 -0.394671 0.900000
v -0.200940 -0.367674 0.900000
v -0.424027 -0.168638 0.900000
v -0.448708 0.109305 0.900000
v -0.263433 0.336103 0.900000
v 0.281788 0.293844 1.000000
v 0.000000 0.383586 1.000000
v 0.431724 0.066609 1.000000
v 0.379652 -0.191793 1.000000
v 0.149936 -0.360453 1.000000
v -0.149936 -0.360453 1.000000
v -0.379652 -0.191793 1.000000
v -0.431724 0.066609 1.000000
v -0.281788 0.293844 1.000000
v 0.281788 0.293844 1.182384
v 0.000000 0.383586 1.182384
v 0.431724 0.066609 1.182384
v 0.379652 -0.191793 1.182384
v 0.149936 -0.360453 1.182384
v -0.149936 -0.360453 1.182384
v -0.379652 -0.191793 1.182384
v -0.431724 0.066609 1.182384
v -0.281788 0.293844 1.182384
v 0.250212 0.260918 1.182384
v 0.000000 0.340604 1.182384
v 0.383348 0.059145 1.182384
v 0.337110 -0.170302 1.182384
v 0.133135 -0.320063 1.182384
v -0.133135 -0.320063 1.182384
v -0.337110 -0.170302 1.182384
v -0.383348 0.059145 1.182384
v -0.250212 0.260917 1.182384
v 0.265540 0.276901 1.256762
v -0.000000 0.361468 1.256762
v 0.406831 0.062768 1.256762
v 0.357761 -0.180734 1.256762
v 0.141291 -0.339669 1.256762
v -0.141291 -0.339669 1.256762
v -0.357761 -0.180734 1.256762
v -0.406831 0.062768 1.256762
v -0.265540 0.276901 1.256762
v 0.235785 0.245873 1.256762
v 0.000000 0.320964 1.256762
v 0.361244 0.055735 1.256762
v 0.317672 -0.160482 1.256762
v 0.125459 -0.301608 1.256762
v -0.125459 -0.301608 1.256762
v -0.317672 -0.160482 1.256762
v -0.361244 0.055735 1.256762
v -0.235785 0.245873 1.256762
v 0.263433 0.336103 0.900000
v 0.263433 0.336104 0.634253
v 0.464373 0.031570 0.634253
v 0.464373 0.031570 0.900000
v -0.045105 0.405635 0.634253
v 0.308538 0.321739 0.534253
v 0.308538 0.321739 1.000000
v -0.045105 0.405635 0.900000
v 0.000000 0.420000 0.534253
v 0.000000 0.420000 1.000000
v -0.332538 0.285366 0.900000
v -0.332538 0.285366 0.634253
v -0.464373 0.031570 0.900000
v -0.464373 0.031570 0.634253
v -0.308538 0.321739 0.534253
v -0.308538 0.321739 1.000000
v -0.378922 -0.236997 0.900000
v -0.378922 -0.236997 0.634253
v -0.472708 0.072932 0.534253
v -0.472708 0.072932 1.000000
v -0.116170 -0.394671 0.900000
v -0.116170 -0.394671 0.634253
v -0.415692 -0.210000 0.534253
v -0.415692 -0.210000 1.000000
v 0.200940 -0.367674 0.900000
v 0.200940 -0.367674 0.634253
v -0.164170 -0.394671 0.534253
v -0.164170 -0.394671 1.000000
v 0.472708 0.072932 1.000000
v 0.472708 0.072932 0.534253
v 0.378922 -0.236997 0.634253
v 0.378922 -0.236997 0.900000
v 0.415692 -0.210000 1.000000
v 0.415692 -0.210000 0.534253
v 0.164170 -0.394671 0.534253
v 0.164170 -0.394671 1.000000
v 0.116170 -0.744671 0.900000
v 0.116170 -0.744671 0.634253
v -0.116170 -0.744671 0.634253
v -0.116170 -0.744671 0.900000
v -0.408078 -0.649797 0.900000
v -0.408078 -0.649797 0.634253
v -0.586061 -0.519120 0.634253
v -0.586061 -0.519121 0.900000
v 0.586060 -0.519121 0.900000
v 0.586060 -0.519121 0.634253
v 0.408078 -0.649797 0.634253
v 0.408078 -0.649797 0.900000
v 0.807475 -0.037571 0.900000
v 0.807475 -0.037571 0.634253
v 0.767130 -0.237779 0.634253
v 0.767130 -0.237779 0.900000
v 0.624674 0.478126 0.900000
v 0.624674 0.478126 0.634253
v 0.740844 0.302065 0.634253
v 0.740844 0.302065 0.900000
v 0.151315 0.739131 0.634253
v 0.369643 0.669599 0.634253
v 0.369643 0.669599 0.900000
v 0.151315 0.739131 0.900000
v -0.767130 -0.237779 0.900000
v -0.767130 -0.237779 0.634253
v -0.807475 -0.037571 0.634253
v -0.807475 -0.037571 0.900000
v -0.740844 0.302065 0.900000
v -0.740844 0.302065 0.634253
v -0.624674 0.478126 0.634253
v -0.624674 0.478125 0.900000
v -0.151315 0.739131 0.634253
v -0.151315 0.739131 0.900000
v -0.369643 0.669599 0.900000
v -0.369643 0.669599 0.634253
vt 0.953247 0.595504
vt 0.906529 0.594485
vt 0.906529 0.479178
vt 0.953247 0.480197
vt 0.567860 0.713038
vt 0.652380 0.702917
vt 0.652380 0.833342
vt 0.567860 0.843464
vt 0.952225 0.887113
vt 0.998979 0.887113
vt 0.998979 1.000000
vt 0.952225 1.000000
vt 0.169375 0.763652
vt 0.084904 0.774149
vt 0.084904 0.637542
vt 0.169375 0.627045
vt 0.819477 0.626694
vt 0.734319 0.626694
vt 0.734319 0.484109
vt 0.819477 0.484109
vt 0.783578 0.906265
vt 0.736851 0.905795
vt 0.736851 0.775891
vt 0.783578 0.776361
vt 1.000000 0.592066
vt 0.953247 0.592066
vt 0.953247 0.479178
vt 1.000000 0.479178
vt 0.507707 0.353487
vt 0.570440 0.426196
vt 0.570440 0.521112
vt 0.507707 0.593821
vt 0.411595 0.610303
vt 0.327076 0.562845
vt 0.293696 0.473654
vt 0.327076 0.384463
vt 0.411595 0.337005
vt 0.906529 0.773852
vt 0.822009 0.763731
vt 0.822009 0.633306
vt 0.906529 0.643427
vt 0.293696 0.610303
vt 0.378600 0.616698
vt 0.378600 0.757736
vt 0.293696 0.751341
vt 0.382414 0.278485
vt 0.341254 0.168502
vt 0.382414 0.058520
vt 0.486635 0.000000
vt 0.605151 0.020324
vt 0.682507 0.109982
vt 0.682507 0.227023
vt 0.605151 0.316681
vt 0.486635 0.337005
vt 0.052845 0.268949
vt 0.148030 0.322396
vt 0.145382 0.337005
vt 0.041160 0.278485
vt 0.256271 0.303834
vt 0.263898 0.316681
vt 0.326920 0.221949
vt 0.341254 0.227023
vt 0.326920 0.115056
vt 0.341254 0.109982
vt 0.256271 0.033171
vt 0.263898 0.020324
vt 0.148030 0.014609
vt 0.145382 0.000000
vt 0.052845 0.068056
vt 0.041160 0.058520
vt 0.015253 0.168502
vt 0.000000 0.168502
vt 0.952225 0.773852
vt 0.952225 0.862143
vt 0.920138 0.862143
vt 0.920138 0.773852
vt 0.949361 0.276675
vt 0.948165 0.377592
vt 0.916095 0.377579
vt 0.917290 0.276662
vt 0.810888 0.080017
vt 0.810888 0.000000
vt 0.842975 0.000000
vt 0.842975 0.080017
vt 0.903337 0.166825
vt 0.901341 0.240327
vt 0.869270 0.240314
vt 0.871266 0.166812
vt 0.949361 0.477552
vt 0.917290 0.477539
vt 0.903337 0.071918
vt 0.871266 0.071905
vt 0.810888 0.000000
vt 0.810888 0.080528
vt 0.778801 0.080528
vt 0.778801 0.000000
vt 0.901341 0.000013
vt 0.869270 0.000000
vt 0.810888 0.187401
vt 0.778801 0.187401
vt 0.916422 0.000000
vt 0.916422 0.088540
vt 0.903337 0.088697
vt 0.903337 0.005262
vt 0.842975 0.186872
vt 0.856061 0.083325
vt 0.856061 0.184018
vt 0.903310 0.377456
vt 0.904437 0.282358
vt 0.920138 0.952171
vt 0.907053 0.947194
vt 0.907053 0.862357
vt 0.856061 0.007921
vt 0.904437 0.471652
vt 0.907053 0.779157
vt 0.765715 0.083774
vt 0.765715 0.007890
vt 0.856061 0.233432
vt 0.857941 0.164169
vt 0.810888 0.186872
vt 0.952225 0.952171
vt 0.810888 0.270566
vt 0.842975 0.270566
vt 0.948509 0.000000
vt 0.948509 0.088540
vt 0.338869 0.887531
vt 0.338869 0.994404
vt 0.306782 0.994404
vt 0.306782 0.887531
vt 0.951701 0.595504
vt 0.951701 0.685312
vt 0.919614 0.685312
vt 0.919614 0.595504
vt 0.948509 0.178349
vt 0.916422 0.178349
vt 0.810888 0.270612
vt 0.778801 0.270612
vt 0.951701 0.773852
vt 0.919614 0.773852
vt 0.218638 0.595263
vt 0.277753 0.526746
vt 0.293696 0.532390
vt 0.227121 0.609553
vt 0.277753 0.437303
vt 0.293696 0.431660
vt 0.218637 0.368787
vt 0.227121 0.354496
vt 0.128067 0.353255
vt 0.125121 0.337005
vt 0.048421 0.397976
vt 0.035424 0.387370
vt 0.016967 0.482025
vt 0.000000 0.482025
vt 0.048421 0.566073
vt 0.035424 0.576680
vt 0.128067 0.610794
vt 0.125121 0.627045
vt 0.906529 0.685156
vt 0.906529 0.600526
vt 0.856061 0.262886
vt 0.903337 0.173326
vt 0.906529 0.768591
vt 0.293696 0.991157
vt 0.293696 0.890447
vt 0.857941 0.074734
vt 0.856061 0.006975
vt 0.765715 0.262898
vt 0.765715 0.184485
vt 0.588033 0.598199
vt 0.634786 0.598199
vt 0.652380 0.615303
vt 0.570440 0.615303
vt 0.634786 0.515409
vt 0.652380 0.498305
vt 0.588033 0.515409
vt 0.570440 0.498305
vt 0.634786 0.690109
vt 0.634786 0.628112
vt 0.652380 0.702917
vt 0.588033 0.628112
vt 0.588033 0.690109
vt 0.570440 0.702917
vt 0.747939 0.016180
vt 0.701210 0.016161
vt 0.683817 0.000000
vt 0.765715 0.000033
vt 0.700283 0.094350
vt 0.747013 0.094369
vt 0.764406 0.110530
vt 0.682507 0.110497
vt 0.701210 0.203952
vt 0.747939 0.203971
vt 0.765715 0.219979
vt 0.683817 0.219946
vt 0.747013 0.126523
vt 0.700283 0.126504
vt 0.669973 0.412287
vt 0.716726 0.412287
vt 0.734319 0.425177
vt 0.652380 0.425177
vt 0.716726 0.349895
vt 0.734319 0.337005
vt 0.669973 0.349895
vt 0.652380 0.337005
vt 0.669973 0.525089
vt 0.716726 0.525089
vt 0.734319 0.542196
vt 0.652380 0.542196
vt 0.716726 0.442284
vt 0.669973 0.442284
vt 0.669973 0.619986
vt 0.716726 0.619986
vt 0.734319 0.633306
vt 0.652380 0.633306
vt 0.716726 0.555515
vt 0.669973 0.555515
vt 0.588033 0.484908
vt 0.634786 0.484908
vt 0.634786 0.420062
vt 0.652380 0.406666
vt 0.588033 0.420062
vt 0.570440 0.406666
vt 0.700101 0.319890
vt 0.746854 0.319890
vt 0.764447 0.336997
vt 0.682507 0.336997
vt 0.746854 0.237086
vt 0.764447 0.219979
vt 0.700101 0.237086
vt 0.682507 0.219979
vt 0.811200 0.336997
vt 0.764447 0.336997
vt 0.764447 0.272526
vt 0.811200 0.272526
vt 0.948509 0.129623
vt 0.995263 0.129623
vt 0.995263 0.254968
vt 0.948509 0.254968
vt 0.856061 0.240327
vt 0.902755 0.242095
vt 0.902755 0.332376
vt 0.856061 0.330608
vt 0.736851 0.633306
vt 0.822009 0.633306
vt 0.822009 0.775891
vt 0.736851 0.775891
vt 0.385622 0.970335
vt 0.338869 0.970335
vt 0.338869 0.887531
vt 0.385622 0.887531
vt 0.734319 0.337005
vt 0.818790 0.347502
vt 0.818790 0.484109
vt 0.734319 0.473612
vt 0.736851 0.769913
vt 0.652380 0.780410
vt 0.652380 0.643803
vt 0.736851 0.633306
vt 0.948509 0.000000
vt 0.995263 0.000000
vt 0.995263 0.129623
vt 0.948509 0.129623
vt 0.996115 0.474220
vt 0.949361 0.474220
vt 0.949361 0.391416
vt 0.996115 0.391416
vt 0.169375 0.627045
vt 0.253846 0.637542
vt 0.253846 0.774149
vt 0.169375 0.763652
vt 0.178411 0.910380
vt 0.131657 0.910380
vt 0.131657 0.774149
vt 0.178411 0.774149
vt 0.652380 0.780410
vt 0.699133 0.780410
vt 0.699133 0.910033
vt 0.652380 0.910033
vt 0.634786 0.401850
vt 0.588033 0.401850
vt 0.588033 0.337005
vt 0.634786 0.337005
vt 0.378740 0.883241
vt 0.293696 0.887531
vt 0.293696 0.762026
vt 0.378740 0.757736
vt 0.463784 0.887531
vt 0.378740 0.883241
vt 0.378740 0.757736
vt 0.463784 0.762026
vt 0.432376 0.970321
vt 0.385622 0.970321
vt 0.385622 0.887531
vt 0.432376 0.887531
vt 0.000000 0.774534
vt 0.046730 0.774478
vt 0.046730 0.904805
vt 0.000000 0.904861
vt 0.178411 0.774149
vt 0.225164 0.774149
vt 0.225164 0.904506
vt 0.178411 0.904506
vt 0.903310 0.477552
vt 0.818790 0.467430
vt 0.818790 0.337005
vt 0.903310 0.347126
vt 0.225164 0.966503
vt 0.178411 0.966503
vt 0.178411 0.904506
vt 0.225164 0.904506
vt 0.084904 0.774478
vt 0.000000 0.768082
vt 0.000000 0.627045
vt 0.084904 0.633440
vt 0.998455 0.710257
vt 0.951701 0.710257
vt 0.951701 0.595504
vt 0.998455 0.595504
vt 0.548408 0.751341
vt 0.463504 0.757736
vt 0.463504 0.616698
vt 0.548408 0.610303
vt 0.822009 0.903647
vt 0.868762 0.903647
vt 0.868762 0.966040
vt 0.822009 0.966040
vt 0.998949 0.886399
vt 0.952225 0.887113
vt 0.952225 0.774566
vt 0.998949 0.773852
vt 0.463784 0.757736
vt 0.548828 0.762026
vt 0.548828 0.887531
vt 0.463784 0.883241
vt 0.822009 0.778143
vt 0.907053 0.773852
vt 0.907053 0.899357
vt 0.822009 0.903647
vt 0.479103 0.887531
vt 0.525829 0.888079
vt 0.525829 0.965532
vt 0.479103 0.964984
vt 0.225164 0.774149
vt 0.271917 0.774149
vt 0.271917 0.904506
vt 0.225164 0.904506
vt 0.567860 0.843464
vt 0.614613 0.843464
vt 0.614613 0.962133
vt 0.567860 0.962133
vt 0.819477 0.494231
vt 0.903997 0.484109
vt 0.903997 0.614535
vt 0.819477 0.624656
vt 0.432376 0.888036
vt 0.479103 0.887531
vt 0.479103 0.965726
vt 0.432376 0.966231
vt 0.996115 0.391416
vt 0.949361 0.391416
vt 0.949361 0.276662
vt 0.996115 0.276662
vt 0.378600 0.616698
vt 0.463504 0.610303
vt 0.463504 0.751341
vt 0.378600 0.757736
vt 0.131657 0.911630
vt 0.084904 0.911630
vt 0.084904 0.774149
vt 0.131657 0.774149
vn -0.9528 0.3035 0.0000
vn 0.0000 -0.0000 1.0000
vn -0.1975 -0.9803 -0.0000
vn 0.0000 -0.0000 -1.0000
vn -0.8061 0.5918 0.0000
vn 0.1975 -0.9803 -0.0000
vn 0.5918 0.8061 0.0000
vn -0.3035 0.9528 0.0000
vn 0.3035 0.9528 0.0000
vn 0.0000 1.0000 0.0000
vn -0.8347 0.5507 0.0000
vn -0.5918 0.8061 0.0000
vn -0.9803 -0.1975 -0.0000
vn -0.9803 0.1975 0.0000
vn -0.5918 -0.8061 -0.0000
vn 0.8051 -0.5313 -0.2636
vn 0.7977 0.5264 0.2942
vn -0.2920 0.9168 0.2726
vn 0.9434 0.1901 -0.2717
vn 0.2920 0.9168 0.2726
vn -0.7977 0.5264 0.2942
vn 0.5726 0.7799 -0.2526
vn -0.9342 -0.1883 0.3029
vn 0.0000 0.9706 -0.2408
vn 0.8347 0.5507 0.0000
vn 0.9803 0.1975 0.0000
vn 0.9803 -0.1975 0.0000
vn 0.8347 -0.5507 -0.0000
vn 0.5918 -0.8061 -0.0000
vn -0.3035 -0.9528 -0.0000
vn 0.3035 -0.9528 -0.0000
vn -0.0000 -1.0000 -0.0000
vn -0.8347 -0.5507 -0.0000
vn -0.2943 -0.9240 -0.2440
vn 0.9342 -0.1883 0.3030
vn 0.2943 -0.9240 -0.2440
vn -0.8051 -0.5313 -0.2636
vn 0.5678 -0.7733 0.2821
vn -0.9434 0.1901 -0.2717
vn -0.0000 -0.9631 0.2691
vn -0.5726 0.7799 -0.2526
vn -0.5678 -0.7733 0.2821
vn 1.0000 -0.0000 -0.0000
vn -1.0000 0.0000 0.0000
vn 0.8061 -0.5918 0.0000
vn 0.8061 0.5918 0.0000
vn -0.8061 -0.5918 -0.0000
vn 0.1975 0.9803 0.0000
vn -0.5507 0.8347 0.0000
vn 0.5507 -0.8347 -0.0000
vn 0.9528 -0.3035 -0.0000
vn -0.1975 0.9803 0.0000
vn -0.5507 -0.8347 -0.0000
vn 0.5507 0.8347 0.0000
vn -0.9528 -0.3035 -0.0000
vn 0.9528 0.3035 0.0000
usemtl Material.003
s off
f 1/1/1 20/2/1 132/3/1 129/4/1
f 19/5/2 21/6/2 128/7/2 125/8/2
f 22/9/3 7/10/3 123/11/3 124/12/3
f 98/13/4 103/14/4 118/15/4 119/16/4
f 23/17/2 93/18/2 112/19/2 109/20/2
f 89/21/5 90/22/5 115/23/5 116/24/5
f 13/25/6 25/26/6 133/27/6 134/28/6
f 4/29/2 2/30/2 18/31/2 16/32/2 14/33/2 12/34/2 10/35/2 8/36/2 6/37/2
f 26/38/2 83/39/2 140/40/2 137/41/2
f 27/42/2 80/43/2 142/44/2 143/45/2
f 81/46/4 78/47/4 102/48/4 106/49/4 107/50/4 99/51/4 95/52/4 91/53/4 87/54/4
f 29/55/2 28/56/2 79/57/2 82/58/2
f 28/56/2 30/59/2 101/60/2 79/57/2
f 30/59/2 31/61/2 105/62/2 101/60/2
f 31/61/2 32/63/2 108/64/2 105/62/2
f 32/63/2 33/65/2 100/66/2 108/64/2
f 33/65/2 34/67/2 96/68/2 100/66/2
f 34/67/2 35/69/2 92/70/2 96/68/2
f 35/69/2 36/71/2 88/72/2 92/70/2
f 36/71/2 29/55/2 82/58/2 88/72/2
f 12/73/7 14/74/7 52/75/7 51/76/7
f 29/77/8 36/78/8 45/79/8 38/80/8
f 28/81/9 29/82/9 38/83/9 37/84/9
f 10/85/10 12/86/10 51/87/10 50/88/10
f 36/78/11 35/89/11 44/90/11 45/79/11
f 8/91/12 10/85/12 50/88/12 49/92/12
f 35/93/13 34/94/13 43/95/13 44/96/13
f 6/97/14 8/91/14 49/92/14 48/98/14
f 34/94/15 33/99/15 42/100/15 43/95/15
f 53/101/16 54/102/16 72/103/16 71/104/16
f 39/105/17 37/84/17 55/106/17 57/107/17
f 38/80/18 45/79/18 63/108/18 56/109/18
f 52/75/19 53/110/19 71/111/19 70/112/19
f 37/84/20 38/83/20 56/113/20 55/106/20
f 45/79/21 44/90/21 62/114/21 63/108/21
f 51/76/22 52/75/22 70/112/22 69/115/22
f 44/96/23 43/95/23 61/116/23 62/117/23
f 50/88/24 51/87/24 69/118/24 68/119/24
f 30/120/25 28/81/25 37/84/25 39/105/25
f 14/74/26 16/121/26 53/110/26 52/75/26
f 31/122/27 30/120/27 39/105/27 40/123/27
f 16/124/28 18/125/28 54/102/28 53/101/28
f 32/126/29 31/127/29 40/128/29 41/129/29
f 2/130/30 4/131/30 46/132/30 47/133/30
f 18/125/31 2/134/31 47/135/31 54/102/31
f 33/99/32 32/136/32 41/137/32 42/100/32
f 4/131/33 6/138/33 48/139/33 46/132/33
f 65/140/2 64/141/2 55/142/2 56/143/2
f 64/141/2 66/144/2 57/145/2 55/142/2
f 66/144/2 67/146/2 58/147/2 57/145/2
f 67/146/2 68/148/2 59/149/2 58/147/2
f 68/148/2 69/150/2 60/151/2 59/149/2
f 69/150/2 70/152/2 61/153/2 60/151/2
f 70/152/2 71/154/2 62/155/2 61/153/2
f 71/154/2 72/156/2 63/157/2 62/155/2
f 72/156/2 65/140/2 56/143/2 63/157/2
f 47/133/34 46/132/34 64/158/34 65/159/34
f 40/123/35 39/105/35 57/107/35 58/160/35
f 54/102/36 47/135/36 65/161/36 72/103/36
f 46/132/37 48/139/37 66/162/37 64/158/37
f 41/129/38 40/128/38 58/163/38 59/164/38
f 48/98/39 49/92/39 67/165/39 66/166/39
f 42/100/40 41/137/40 59/167/40 60/168/40
f 49/92/41 50/88/41 68/119/41 67/165/41
f 43/95/42 42/100/42 60/168/42 61/116/42
f 19/169/25 3/170/25 78/171/25 79/172/25
f 3/170/25 5/173/25 102/174/25 78/171/25
f 21/175/25 19/169/25 79/172/25 101/176/25
f 5/173/25 21/175/25 101/176/25 102/174/25
f 1/177/9 74/178/9 78/171/9 81/179/9
f 73/180/9 20/181/9 82/182/9 79/172/9
f 20/181/9 1/177/9 81/179/9 82/182/9
f 74/178/9 73/180/9 79/172/9 78/171/9
f 77/183/8 80/184/8 82/185/8 81/186/8
f 27/187/8 17/188/8 87/189/8 88/190/8
f 17/188/8 77/183/8 81/186/8 87/189/8
f 80/184/8 27/187/8 88/190/8 82/185/8
f 26/191/11 15/192/11 91/193/11 92/194/11
f 15/192/11 84/195/11 87/189/11 91/193/11
f 83/196/11 26/191/11 92/194/11 88/190/11
f 84/195/11 83/196/11 88/190/11 87/189/11
f 25/197/13 13/198/13 95/199/13 96/200/13
f 13/198/13 86/201/13 91/202/13 95/199/13
f 85/203/13 25/197/13 96/200/13 92/204/13
f 86/201/13 85/203/13 92/204/13 91/202/13
f 24/205/15 11/206/15 99/207/15 100/208/15
f 11/206/15 90/209/15 95/199/15 99/207/15
f 89/210/15 24/205/15 100/208/15 96/200/15
f 90/209/15 89/210/15 96/200/15 95/199/15
f 23/211/32 9/212/32 107/213/32 108/214/32
f 9/212/32 94/215/32 99/207/32 107/213/32
f 93/216/32 23/211/32 108/214/32 100/208/32
f 94/215/32 93/216/32 100/208/32 99/207/32
f 76/217/27 75/218/27 102/174/27 101/176/27
f 75/218/27 7/219/27 106/220/27 102/174/27
f 22/221/27 76/217/27 101/176/27 105/222/27
f 7/219/27 22/221/27 105/222/27 106/220/27
f 104/223/29 103/224/29 106/225/29 105/226/29
f 103/224/29 98/227/29 107/228/29 106/225/29
f 97/229/29 104/223/29 105/226/29 108/230/29
f 98/227/29 97/229/29 108/230/29 107/228/29
f 110/231/32 109/232/32 112/233/32 111/234/32
f 9/235/43 23/236/43 109/237/43 110/238/43
f 93/239/44 94/240/44 111/241/44 112/242/44
f 94/243/4 9/244/4 110/245/4 111/246/4
f 114/247/15 113/248/15 116/249/15 115/250/15
f 90/251/4 11/252/4 114/253/4 115/254/4
f 24/255/2 89/256/2 116/257/2 113/258/2
f 11/259/45 24/260/45 113/261/45 114/262/45
f 118/263/29 117/264/29 120/265/29 119/266/29
f 104/267/2 97/268/2 120/269/2 117/270/2
f 103/271/46 104/272/46 117/273/46 118/274/46
f 97/275/47 98/276/47 119/277/47 120/278/47
f 122/279/27 121/280/27 124/281/27 123/282/27
f 7/283/4 75/284/4 122/285/4 123/286/4
f 76/287/2 22/288/2 124/289/2 121/290/2
f 75/218/48 76/217/48 121/280/48 122/279/48
f 126/291/25 125/292/25 128/293/25 127/294/25
f 3/295/49 19/296/49 125/297/49 126/298/49
f 21/299/50 5/300/50 127/301/50 128/302/50
f 5/303/4 3/304/4 126/305/4 127/306/4
f 129/307/9 132/308/9 131/309/9 130/310/9
f 74/311/4 1/312/4 129/313/4 130/314/4
f 73/315/51 74/316/51 130/317/51 131/318/51
f 20/319/2 73/320/2 131/321/2 132/322/2
f 134/323/13 133/324/13 136/325/13 135/326/13
f 85/327/52 86/328/52 135/329/52 136/330/52
f 86/331/4 13/332/4 134/333/4 135/334/4
f 25/335/2 85/336/2 136/337/2 133/338/2
f 138/339/11 137/340/11 140/341/11 139/342/11
f 15/343/53 26/344/53 137/345/53 138/346/53
f 83/347/54 84/348/54 139/349/54 140/350/54
f 84/351/4 15/352/4 138/353/4 139/354/4
f 144/355/8 143/356/8 142/357/8 141/358/8
f 17/359/55 27/360/55 143/361/55 144/362/55
f 77/363/4 17/364/4 144/365/4 141/366/4
f 80/367/56 77/368/56 141/369/56 142/370/56
