# Blender v3.0.1 OBJ File: 'ships.blend'
# www.blender.org
mtllib drop_ship_doorRMK2.mtl
o right_door_Cube.016
v -1.000000 0.000000 -2.252944
v -1.000000 2.000000 -2.252944
v -1.000000 0.000000 -2.644864
v -1.000000 2.000000 -2.644864
v 1.000000 0.000000 -2.252944
v 1.000000 2.000000 -2.252944
v 1.000000 0.000000 -2.644864
v 1.000000 2.000000 -2.644864
v -1.000000 0.000000 -2.252944
v -1.000000 2.000000 -2.252944
v -1.000000 0.000000 -2.644864
v -1.000000 2.000000 -2.644864
v 1.000000 0.000000 -2.252944
v 1.000000 2.000000 -2.252944
v 1.000000 0.000000 -2.644864
v 1.000000 2.000000 -2.644864
v -1.000000 0.000000 2.646562
v -1.000000 2.000000 2.646562
v -1.000000 0.000000 2.254642
v -1.000000 2.000000 2.254642
v 1.000000 0.000000 2.646562
v 1.000000 2.000000 2.646562
v 1.000000 0.000000 2.254642
v 1.000000 2.000000 2.254642
vt 0.927946 0.333333
vt 0.927946 0.666667
vt 0.862626 0.666667
vt 0.862626 0.333333
vt 0.333333 0.000000
vt 0.333333 0.333333
vt 0.000000 0.333333
vt 0.000000 0.000000
vt 0.797307 0.333333
vt 0.797307 0.666667
vt 0.731987 0.666667
vt 0.731987 0.333333
vt 0.666667 0.000000
vt 0.666667 0.333333
vt 0.333333 0.333333
vt 0.333333 0.000000
vt 0.594613 0.666667
vt 0.594613 1.000000
vt 0.529293 1.000000
vt 0.529293 0.666667
vt 0.463973 0.666667
vt 0.463973 1.000000
vt 0.398653 1.000000
vt 0.398653 0.666667
vt 0.731987 0.333333
vt 0.731987 0.666667
vt 0.666667 0.666667
vt 0.666667 0.333333
vt 0.333333 0.333333
vt 0.333333 0.666667
vt 0.000000 0.666667
vt 0.000000 0.333333
vt 0.862626 0.333333
vt 0.862626 0.666667
vt 0.797307 0.666667
vt 0.797307 0.333333
vt 1.000000 0.000000
vt 1.000000 0.333333
vt 0.666667 0.333333
vt 0.666667 0.000000
vt 0.797307 0.666667
vt 0.797307 1.000000
vt 0.731987 1.000000
vt 0.731987 0.666667
vt 0.993266 0.333333
vt 0.993266 0.666667
vt 0.927946 0.666667
vt 0.927946 0.333333
vt 0.398653 0.666667
vt 0.398653 1.000000
vt 0.333333 1.000000
vt 0.333333 0.666667
vt 0.000000 1.000000
vt 0.000000 0.666667
vt 0.529293 0.666667
vt 0.529293 1.000000
vt 0.463973 1.000000
vt 0.463973 0.666667
vt 0.666667 0.333333
vt 0.666667 0.666667
vt 0.333333 0.666667
vt 0.333333 0.333333
vt 0.659933 0.666667
vt 0.659933 1.000000
vt 0.594613 1.000000
vt 0.594613 0.666667
vt 0.725253 0.666667
vt 0.725253 1.000000
vt 0.659933 1.000000
vt 0.659933 0.666667
vn -1.0000 0.0000 0.0000
vn 0.0000 0.0000 -1.0000
vn 1.0000 0.0000 0.0000
vn 0.0000 0.0000 1.0000
vn 0.0000 -1.0000 0.0000
vn 0.0000 1.0000 0.0000
usemtl Material.027
s off
f 1/1/1 2/2/1 4/3/1 3/4/1
f 3/5/2 4/6/2 8/7/2 7/8/2
f 7/9/3 8/10/3 6/11/3 5/12/3
f 5/13/4 6/14/4 2/15/4 1/16/4
f 3/17/5 7/18/5 5/19/5 1/20/5
f 8/21/6 4/22/6 2/23/6 6/24/6
f 9/25/1 10/26/1 12/27/1 11/28/1
f 11/29/2 12/30/2 16/31/2 15/32/2
f 15/33/3 16/34/3 14/35/3 13/36/3
f 13/37/4 14/38/4 10/39/4 9/40/4
f 11/41/5 15/42/5 13/43/5 9/44/5
f 16/45/6 12/46/6 10/47/6 14/48/6
f 17/49/1 18/50/1 20/51/1 19/52/1
f 19/52/2 20/51/2 24/53/2 23/54/2
f 23/55/3 24/56/3 22/57/3 21/58/3
f 21/59/4 22/60/4 18/61/4 17/62/4
f 19/63/5 23/64/5 21/65/5 17/66/5
f 24/67/6 20/68/6 18/69/6 22/70/6
