# Blender v2.83.4 OBJ File: 'ships.blend'
# www.blender.org
mtllib landing_pad.mtl
o landing_pad_Cube.013
v -15.000000 -1.000000 10.000000
v -15.000000 -0.739542 10.000000
v -15.000000 -1.000000 -10.000000
v -15.000000 -0.739542 -10.000000
v 15.000000 -1.000000 10.000000
v 15.000000 -0.739542 10.000000
v 15.000000 -1.000000 -10.000000
v 15.000000 -0.739542 -10.000000
vt 1.000000 0.500000
vt 0.993613 0.500000
vt 0.993613 0.000000
vt 1.000000 0.000000
vt 0.987227 0.750000
vt 0.980840 0.750000
vt 0.980840 0.000000
vt 0.987226 0.000000
vt 1.000000 1.000000
vt 0.993613 1.000000
vt 0.993613 0.500000
vt 1.000000 0.500000
vt 0.993613 0.750000
vt 0.987227 0.750000
vt 0.987227 0.000000
vt 0.993613 0.000000
vt 0.000000 0.750000
vt 0.000000 0.000000
vt 0.490420 0.000000
vt 0.490420 0.750000
vt 0.490420 0.750000
vt 0.490420 0.000000
vn -1.0000 0.0000 0.0000
vn 0.0000 0.0000 -1.0000
vn 1.0000 0.0000 0.0000
vn 0.0000 0.0000 1.0000
vn 0.0000 -1.0000 0.0000
vn 0.0000 1.0000 0.0000
usemtl Material.002
s off
f 1/1/1 2/2/1 4/3/1 3/4/1
f 3/5/2 4/6/2 8/7/2 7/8/2
f 7/9/3 8/10/3 6/11/3 5/12/3
f 5/13/4 6/14/4 2/15/4 1/16/4
f 3/17/5 7/18/5 5/19/5 1/20/5
f 8/7/6 4/6/6 2/21/6 6/22/6
