# Blender v3.0.1 OBJ File: 'liquid.blend'
# www.blender.org
mtllib tank_section.mtl
o tanksection_Cylinder
v 1.170542 -1.000000 -5.884711
v 1.170542 3.000000 -5.884711
v 2.296100 -1.000000 -5.543277
v 2.296100 3.000000 -5.543277
v 3.333421 -1.000000 -4.988818
v 3.333421 3.000000 -4.988818
v 4.242640 -1.000000 -4.242640
v 4.242640 3.000000 -4.242640
v 4.988817 -1.000000 -3.333421
v 4.988817 3.000000 -3.333421
v 5.543277 -1.000000 -2.296101
v 5.543277 3.000000 -2.296101
v 5.884711 -1.000000 -1.170542
v 5.884711 3.000000 -1.170542
v 5.884711 -1.000000 1.170542
v 5.884711 3.000000 1.170542
v 5.543277 -1.000000 2.296100
v 5.543277 3.000000 2.296100
v 4.988818 -1.000000 3.333421
v 4.988818 3.000000 3.333421
v 4.242640 -1.000000 4.242640
v 4.242640 3.000000 4.242640
v 3.333421 -1.000000 4.988818
v 3.333421 3.000000 4.988818
v 2.296101 -1.000000 5.543277
v 2.296101 3.000000 5.543277
v 1.170542 -1.000000 5.884712
v 1.170542 3.000000 5.884712
v -1.170542 -1.000000 5.884712
v -1.170542 3.000000 5.884712
v -2.296101 -1.000000 5.543277
v -2.296101 3.000000 5.543277
v -3.333422 -1.000000 4.988817
v -3.333422 3.000000 4.988817
v -4.242640 -1.000000 4.242641
v -4.242640 3.000000 4.242641
v -4.988817 -1.000000 3.333423
v -4.988817 3.000000 3.333423
v -5.543277 -1.000000 2.296101
v -5.543277 3.000000 2.296101
v -5.884712 -1.000000 1.170542
v -5.884712 3.000000 1.170542
v -5.884712 -1.000000 -1.170543
v -5.884712 3.000000 -1.170543
v -5.543277 -1.000000 -2.296102
v -5.543277 3.000000 -2.296102
v -4.988819 -1.000000 -3.333420
v -4.988819 3.000000 -3.333420
v -4.242641 -1.000000 -4.242640
v -4.242641 3.000000 -4.242640
v -3.333422 -1.000000 -4.988818
v -3.333422 3.000000 -4.988818
v -2.296101 -1.000000 -5.543277
v -2.296101 3.000000 -5.543277
v -1.170542 -1.000000 -5.884712
v -1.170542 3.000000 -5.884712
vt 0.000000 0.729968
vt 0.000000 0.630512
vt 0.169932 0.630512
vt 0.169932 0.729968
vt 0.000000 0.582695
vt 0.169932 0.582695
vt 0.000000 0.538626
vt 0.169932 0.538626
vt 0.000000 0.500000
vt 0.169932 0.500000
vt 0.679728 0.860480
vt 0.509796 0.860480
vt 0.509796 0.821854
vt 0.679728 0.821854
vt 0.509796 0.777785
vt 0.679728 0.777785
vt 0.509796 0.729968
vt 0.679728 0.729968
vt 0.679728 0.630512
vt 0.509796 0.630512
vt 0.509796 0.582695
vt 0.679728 0.582695
vt 0.509796 0.538626
vt 0.679728 0.538626
vt 0.509796 0.500000
vt 0.679728 0.500000
vt 0.509796 0.860480
vt 0.339864 0.860480
vt 0.339864 0.821854
vt 0.509796 0.821854
vt 0.339864 0.777785
vt 0.509796 0.777785
vt 0.339864 0.729968
vt 0.509796 0.729968
vt 0.339864 0.630512
vt 0.509796 0.630512
vt 0.339864 0.582695
vt 0.509796 0.582695
vt 0.339864 0.538626
vt 0.509796 0.538626
vt 0.339864 0.500000
vt 0.509796 0.500000
vt 0.339864 0.860480
vt 0.169932 0.860480
vt 0.169932 0.821854
vt 0.339864 0.821854
vt 0.169932 0.777785
vt 0.339864 0.777785
vt 0.169932 0.729968
vt 0.339864 0.729968
vt 0.799728 0.000000
vt 0.847545 0.014505
vt 0.891613 0.038060
vt 0.930240 0.069760
vt 0.961940 0.108387
vt 0.985495 0.152455
vt 1.000000 0.200272
vt 1.000000 0.299728
vt 0.985495 0.347545
vt 0.961940 0.391613
vt 0.930240 0.430240
vt 0.891613 0.461940
vt 0.847545 0.485495
vt 0.799728 0.500000
vt 0.700272 0.500000
vt 0.652455 0.485495
vt 0.608387 0.461940
vt 0.569760 0.430240
vt 0.538060 0.391613
vt 0.514505 0.347545
vt 0.500000 0.299728
vt 0.500000 0.200272
vt 0.514505 0.152455
vt 0.538060 0.108387
vt 0.569760 0.069760
vt 0.608387 0.038060
vt 0.652455 0.014505
vt 0.700272 0.000000
vt 0.299728 0.000000
vt 0.347545 0.014505
vt 0.391613 0.038060
vt 0.430240 0.069760
vt 0.461940 0.108387
vt 0.485495 0.152455
vt 0.500000 0.200272
vt 0.500000 0.299728
vt 0.485495 0.347545
vt 0.461940 0.391613
vt 0.430240 0.430240
vt 0.391613 0.461940
vt 0.347545 0.485495
vt 0.299728 0.500000
vt 0.200272 0.500000
vt 0.152455 0.485495
vt 0.108387 0.461940
vt 0.069760 0.430240
vt 0.038060 0.391613
vt 0.014505 0.347545
vt 0.000000 0.299728
vt 0.000000 0.200272
vt 0.014505 0.152455
vt 0.038060 0.108387
vt 0.069760 0.069760
vt 0.108387 0.038060
vt 0.152455 0.014505
vt 0.200272 0.000000
vt 0.339864 0.630512
vt 0.169932 0.630512
vt 0.169932 0.582695
vt 0.339864 0.582695
vt 0.169932 0.538626
vt 0.339864 0.538626
vt 0.169932 0.500000
vt 0.339864 0.500000
vt 0.169932 0.860480
vt 0.000000 0.860480
vt 0.000000 0.821854
vt 0.169932 0.821854
vt 0.000000 0.777785
vt 0.169932 0.777785
vn 0.0000 0.0000 -1.0000
vn 0.2903 0.0000 -0.9569
vn 0.4714 0.0000 -0.8819
vn 0.6344 0.0000 -0.7730
vn 0.7730 0.0000 -0.6344
vn 0.8819 0.0000 -0.4714
vn 0.9569 0.0000 -0.2903
vn 0.9569 0.0000 0.2903
vn 0.8819 0.0000 0.4714
vn 0.7730 0.0000 0.6344
vn 0.6344 0.0000 0.7730
vn 0.4714 0.0000 0.8819
vn 0.2903 0.0000 0.9569
vn 1.0000 0.0000 0.0000
vn 0.0000 0.0000 1.0000
vn -0.2903 0.0000 0.9569
vn -0.4714 0.0000 0.8819
vn -0.6344 0.0000 0.7730
vn -0.7730 0.0000 0.6344
vn -0.8819 0.0000 0.4714
vn -0.9569 0.0000 0.2903
vn 0.0000 -1.0000 0.0000
vn 0.0000 1.0000 -0.0000
vn -0.9569 0.0000 -0.2903
vn -0.8819 0.0000 -0.4714
vn -0.7730 0.0000 -0.6344
vn -0.6344 0.0000 -0.7730
vn -0.4714 0.0000 -0.8819
vn -0.2903 0.0000 -0.9569
vn -1.0000 0.0000 0.0000
usemtl Material.001
s off
f 56/1/1 2/2/1 1/3/1 55/4/1
f 1/3/2 2/2/2 4/5/2 3/6/2
f 3/6/3 4/5/3 6/7/3 5/8/3
f 5/8/4 6/7/4 8/9/4 7/10/4
f 7/11/5 8/12/5 10/13/5 9/14/5
f 9/14/6 10/13/6 12/15/6 11/16/6
f 11/16/7 12/15/7 14/17/7 13/18/7
f 15/19/8 16/20/8 18/21/8 17/22/8
f 17/22/9 18/21/9 20/23/9 19/24/9
f 19/24/10 20/23/10 22/25/10 21/26/10
f 21/27/11 22/28/11 24/29/11 23/30/11
f 23/30/12 24/29/12 26/31/12 25/32/12
f 25/32/13 26/31/13 28/33/13 27/34/13
f 13/18/14 14/17/14 16/20/14 15/19/14
f 27/34/15 28/33/15 30/35/15 29/36/15
f 29/36/16 30/35/16 32/37/16 31/38/16
f 31/38/17 32/37/17 34/39/17 33/40/17
f 33/40/18 34/39/18 36/41/18 35/42/18
f 35/43/19 36/44/19 38/45/19 37/46/19
f 37/46/20 38/45/20 40/47/20 39/48/20
f 39/48/21 40/47/21 42/49/21 41/50/21
f 1/51/22 3/52/22 5/53/22 7/54/22 9/55/22 11/56/22 13/57/22 15/58/22 17/59/22 19/60/22 21/61/22 23/62/22 25/63/22 27/64/22 29/65/22 31/66/22 33/67/22 35/68/22 37/69/22 39/70/22 41/71/22 43/72/22 45/73/22 47/74/22 49/75/22 51/76/22 53/77/22 55/78/22
f 56/79/23 54/80/23 52/81/23 50/82/23 48/83/23 46/84/23 44/85/23 42/86/23 40/87/23 38/88/23 36/89/23 34/90/23 32/91/23 30/92/23 28/93/23 26/94/23 24/95/23 22/96/23 20/97/23 18/98/23 16/99/23 14/100/23 12/101/23 10/102/23 8/103/23 6/104/23 4/105/23 2/106/23
f 43/107/24 44/108/24 46/109/24 45/110/24
f 45/110/25 46/109/25 48/111/25 47/112/25
f 47/112/26 48/111/26 50/113/26 49/114/26
f 49/115/27 50/116/27 52/117/27 51/118/27
f 51/118/28 52/117/28 54/119/28 53/120/28
f 53/120/29 54/119/29 56/1/29 55/4/29
f 44/108/30 43/107/30 41/50/30 42/49/30
