# Blender v2.83.4 OBJ File: 'movement.blend'
# www.blender.org
mtllib small_wheel.mtl
o small_wheel_Cylinder
v -1.000000 0.000000 -0.990322
v 1.000000 0.000000 -2.999999
v -1.000000 -0.193203 -0.971294
v 1.000000 -0.585271 -2.942355
v -1.000000 -0.378980 -0.914938
v 1.000000 -1.148050 -2.771638
v -1.000000 -0.550194 -0.823423
v 1.000000 -1.666710 -2.494408
v -1.000000 -0.700265 -0.700264
v 1.000000 -2.121320 -2.121320
v -1.000000 -0.823424 -0.550193
v 1.000000 -2.494409 -1.666710
v -1.000000 -0.914939 -0.378980
v 1.000000 -2.771638 -1.148050
v -1.000000 -0.971294 -0.193202
v 1.000000 -2.942355 -0.585270
v -1.000000 -0.990323 0.000000
v 1.000000 -3.000000 0.000000
v -1.000000 -0.971294 0.193203
v 1.000000 -2.942355 0.585271
v -1.000000 -0.914939 0.378981
v 1.000000 -2.771638 1.148050
v -1.000000 -0.823423 0.550195
v 1.000000 -2.494409 1.666711
v -1.000000 -0.700264 0.700265
v 1.000000 -2.121320 2.121321
v -1.000000 -0.550194 0.823424
v 1.000000 -1.666710 2.494410
v -1.000000 -0.378980 0.914940
v 1.000000 -1.148049 2.771640
v -1.000000 -0.193202 0.971295
v 1.000000 -0.585270 2.942357
v -1.000000 0.000000 0.990324
v 1.000000 0.000001 3.000001
v -1.000000 0.193202 0.971295
v 1.000000 0.585273 2.942356
v -1.000000 0.378980 0.914940
v 1.000000 1.148052 2.771639
v -1.000000 0.550195 0.823424
v 1.000000 1.666712 2.494409
v -1.000000 0.700264 0.700264
v 1.000000 2.121322 2.121320
v -1.000000 0.823424 0.550194
v 1.000000 2.494411 1.666710
v -1.000000 0.914939 0.378980
v 1.000000 2.771640 1.148049
v -1.000000 0.971294 0.193202
v 1.000000 2.942357 0.585269
v -1.000000 0.990323 -0.000000
v 1.000000 3.000001 -0.000002
v -1.000000 0.971294 -0.193202
v 1.000000 2.942356 -0.585273
v -1.000000 0.914939 -0.378981
v 1.000000 2.771638 -1.148053
v -1.000000 0.823423 -0.550195
v 1.000000 2.494407 -1.666713
v -1.000000 0.700263 -0.700264
v 1.000000 2.121318 -2.121322
v -1.000000 0.550193 -0.823424
v 1.000000 1.666708 -2.494411
v -1.000000 0.378979 -0.914939
v 1.000000 1.148047 -2.771640
v -1.000000 0.193200 -0.971294
v 1.000000 0.585267 -2.942356
v -1.000000 -0.000000 -2.999999
v -1.000000 -0.585271 -2.942355
v -1.000000 -1.148051 -2.771638
v -1.000000 -1.666711 -2.494408
v -1.000000 -2.121320 -2.121320
v -1.000000 -2.494409 -1.666710
v -1.000000 -2.771639 -1.148050
v -1.000000 -2.942356 -0.585270
v -1.000000 -3.000000 0.000000
v -1.000000 -2.942356 0.585271
v -1.000000 -2.771639 1.148050
v -1.000000 -2.494409 1.666711
v -1.000000 -2.121320 2.121321
v -1.000000 -1.666711 2.494410
v -1.000000 -1.148050 2.771640
v -1.000000 -0.585270 2.942357
v -1.000000 0.000001 3.000001
v -1.000000 0.585272 2.942356
v -1.000000 1.148051 2.771639
v -1.000000 1.666712 2.494409
v -1.000000 2.121322 2.121320
v -1.000000 2.494410 1.666710
v -1.000000 2.771640 1.148049
v -1.000000 2.942356 0.585269
v -1.000000 3.000000 -0.000002
v -1.000000 2.942355 -0.585273
v -1.000000 2.771637 -1.148053
v -1.000000 2.494407 -1.666713
v -1.000000 2.121318 -2.121322
v -1.000000 1.666707 -2.494411
v -1.000000 1.148046 -2.771640
v -1.000000 0.585266 -2.942356
v -3.000000 0.000000 -0.990322
v -3.000000 -0.193203 -0.971294
v -3.000000 -0.378980 -0.914938
v -3.000000 -0.550194 -0.823423
v -3.000000 -0.700265 -0.700264
v -3.000000 -0.823424 -0.550193
v -3.000000 -0.914939 -0.378980
v -3.000000 -0.971294 -0.193202
v -3.000000 -0.990323 0.000000
v -3.000000 -0.971294 0.193203
v -3.000000 -0.914939 0.378981
v -3.000000 -0.823423 0.550195
v -3.000000 -0.700264 0.700265
v -3.000000 -0.550194 0.823424
v -3.000000 -0.378980 0.914940
v -3.000000 -0.193202 0.971295
v -3.000000 0.000000 0.990324
v -3.000000 0.193202 0.971295
v -3.000000 0.378980 0.914940
v -3.000000 0.550194 0.823424
v -3.000000 0.700264 0.700264
v -3.000000 0.823424 0.550194
v -3.000000 0.914939 0.378980
v -3.000000 0.971294 0.193202
v -3.000000 0.990323 -0.000000
v -3.000000 0.971294 -0.193202
v -3.000000 0.914939 -0.378981
v -3.000000 0.823423 -0.550195
v -3.000000 0.700263 -0.700264
v -3.000000 0.550193 -0.823424
v -3.000000 0.378979 -0.914939
v -3.000000 0.193200 -0.971294
vt 0.696540 0.537000
vt 0.521774 0.537000
vt 0.521774 0.491503
vt 0.696540 0.491503
vt 0.521774 0.450557
vt 0.696540 0.450557
vt 0.521774 0.415735
vt 0.696540 0.415735
vt 0.521774 0.388375
vt 0.696540 0.388375
vt 0.521774 0.353553
vt 0.696540 0.353553
vt 0.521774 0.312607
vt 0.696540 0.312607
vt 0.521774 0.267110
vt 0.696540 0.267110
vt 0.521774 0.218811
vt 0.696540 0.218811
vt 0.521774 0.169565
vt 0.696540 0.169565
vt 0.521774 0.121265
vt 0.696540 0.121265
vt 0.521774 0.075768
vt 0.696540 0.075768
vt 0.521774 0.034822
vt 0.696540 0.034822
vt 0.521774 0.000000
vt 0.696540 0.000000
vt 0.696540 0.318732
vt 0.871307 0.318732
vt 0.871307 0.353554
vt 0.696540 0.353554
vt 0.871307 0.394500
vt 0.696540 0.394500
vt 0.871307 0.439997
vt 0.696540 0.439997
vt 0.871307 0.488297
vt 0.696540 0.488296
vt 0.871307 0.537542
vt 0.696540 0.537542
vt 0.871307 0.585842
vt 0.696540 0.585842
vt 0.871307 0.631339
vt 0.696540 0.631339
vt 0.871307 0.318732
vt 0.696540 0.318732
vt 0.696540 0.277785
vt 0.871307 0.277785
vt 0.696540 0.232288
vt 0.871307 0.232288
vt 0.696540 0.183989
vt 0.871307 0.183989
vt 0.696540 0.134743
vt 0.871307 0.134743
vt 0.696540 0.086443
vt 0.871307 0.086443
vt 0.696540 0.040946
vt 0.871307 0.040946
vt 0.696540 0.000000
vt 0.871307 0.000000
vt 0.696540 0.769288
vt 0.521774 0.769288
vt 0.521774 0.728342
vt 0.696540 0.728342
vt 0.521774 0.682845
vt 0.696540 0.682845
vt 0.521774 0.634545
vt 0.696540 0.634545
vt 0.094581 0.555812
vt 0.137311 0.528453
vt 0.184789 0.509607
vt 0.235192 0.500000
vt 0.286582 0.500000
vt 0.336985 0.509607
vt 0.384463 0.528453
vt 0.427193 0.555812
vt 0.463531 0.590634
vt 0.492082 0.631581
vt 0.511748 0.677078
vt 0.521774 0.725377
vt 0.521774 0.774623
vt 0.511748 0.822922
vt 0.492082 0.868420
vt 0.463531 0.909366
vt 0.427193 0.944188
vt 0.384463 0.971547
vt 0.336985 0.990393
vt 0.286582 1.000000
vt 0.235192 1.000000
vt 0.184789 0.990393
vt 0.137310 0.971547
vt 0.094581 0.944187
vt 0.058243 0.909365
vt 0.029692 0.868419
vt 0.010026 0.822922
vt 0.000000 0.774623
vt 0.000000 0.725377
vt 0.010026 0.677077
vt 0.029692 0.631580
vt 0.058243 0.590634
vt 0.521774 0.585299
vt 0.696540 0.585299
vt 0.901085 0.167473
vt 0.885412 0.167473
vt 0.885412 0.000000
vt 0.901085 0.000000
vt 0.315786 0.185897
vt 0.301680 0.176866
vt 0.384463 0.028453
vt 0.427193 0.055812
vt 0.327781 0.197392
vt 0.463531 0.090634
vt 0.337206 0.210909
vt 0.492082 0.131581
vt 0.343698 0.225928
vt 0.511748 0.177078
vt 0.347008 0.241872
vt 0.521774 0.225377
vt 0.347008 0.258128
vt 0.521774 0.274623
vt 0.343698 0.274072
vt 0.511748 0.322922
vt 0.337206 0.289091
vt 0.492082 0.368419
vt 0.327781 0.302608
vt 0.463531 0.409366
vt 0.315786 0.314103
vt 0.427193 0.444188
vt 0.301680 0.323134
vt 0.384463 0.471547
vt 0.286008 0.329355
vt 0.336985 0.490393
vt 0.269369 0.332527
vt 0.286582 0.500000
vt 0.252405 0.332527
vt 0.235192 0.500000
vt 0.235767 0.329355
vt 0.184789 0.490393
vt 0.220093 0.323134
vt 0.137311 0.471547
vt 0.205988 0.314103
vt 0.094581 0.444188
vt 0.193993 0.302608
vt 0.058243 0.409366
vt 0.184568 0.289091
vt 0.029692 0.368419
vt 0.178076 0.274072
vt 0.010026 0.322922
vt 0.174766 0.258128
vt 0.000000 0.274623
vt 0.174766 0.241872
vt 0.000000 0.225377
vt 0.178076 0.225928
vt 0.010026 0.177078
vt 0.184568 0.210909
vt 0.029692 0.131580
vt 0.193993 0.197392
vt 0.058243 0.090634
vt 0.205988 0.185897
vt 0.094581 0.055812
vt 0.220094 0.176866
vt 0.137311 0.028453
vt 0.235767 0.170645
vt 0.184789 0.009607
vt 0.252405 0.167473
vt 0.235192 0.000000
vt 0.269369 0.167473
vt 0.286582 0.000000
vt 0.286008 0.170645
vt 0.336985 0.009608
vt 0.699850 0.737938
vt 0.696540 0.721994
vt 0.696540 0.705738
vt 0.699850 0.689794
vt 0.706342 0.674775
vt 0.715767 0.661258
vt 0.727762 0.649763
vt 0.741868 0.640731
vt 0.757541 0.634510
vt 0.774179 0.631339
vt 0.791143 0.631339
vt 0.807782 0.634510
vt 0.823455 0.640731
vt 0.837560 0.649763
vt 0.849555 0.661258
vt 0.858980 0.674775
vt 0.865472 0.689794
vt 0.868782 0.705737
vt 0.868782 0.721994
vt 0.865472 0.737938
vt 0.858980 0.752957
vt 0.849556 0.766474
vt 0.837560 0.777969
vt 0.823455 0.787000
vt 0.807782 0.793221
vt 0.791143 0.796393
vt 0.774179 0.796393
vt 0.757541 0.793221
vt 0.741868 0.787000
vt 0.727762 0.777969
vt 0.715767 0.766474
vt 0.706342 0.752957
vt 0.533770 0.936761
vt 0.521774 0.936761
vt 0.521774 0.769288
vt 0.533770 0.769288
vt 0.871307 0.167473
vt 0.871307 0.000000
vt 0.978995 0.334946
vt 0.966999 0.334946
vt 0.966999 0.167473
vt 0.978995 0.167473
vt 0.919981 0.798812
vt 0.904308 0.798812
vt 0.904308 0.631339
vt 0.919981 0.631339
vt 1.000000 0.798812
vt 0.985895 0.798812
vt 0.985895 0.631339
vt 1.000000 0.631339
vt 0.952894 0.334946
vt 0.952894 0.167473
vt 0.890202 0.798812
vt 0.890202 0.631339
vt 0.970222 0.798812
vt 0.970222 0.631339
vt 0.937221 0.334946
vt 0.937221 0.167473
vt 0.878207 0.798812
vt 0.878207 0.631339
vt 0.953583 0.798812
vt 0.953583 0.631339
vt 0.920582 0.334946
vt 0.920582 0.167473
vt 0.868782 0.798812
vt 0.868782 0.631339
vt 0.936619 0.798812
vt 0.936619 0.631339
vt 0.903618 0.334946
vt 0.903618 0.167473
vt 0.655563 0.936761
vt 0.643567 0.936761
vt 0.643567 0.769288
vt 0.655563 0.769288
vt 0.886980 0.334946
vt 0.886980 0.167473
vt 0.629462 0.936761
vt 0.629462 0.769288
vt 0.871307 0.334946
vt 0.871307 0.167473
vt 0.613789 0.936761
vt 0.613789 0.769288
vt 0.981104 0.167473
vt 0.966999 0.167473
vt 0.966999 0.000000
vt 0.981104 0.000000
vt 0.597151 0.936761
vt 0.597151 0.769288
vt 0.951326 0.167473
vt 0.951326 0.000000
vt 0.580186 0.936761
vt 0.580186 0.769288
vt 0.934688 0.167473
vt 0.934688 0.000000
vt 0.563548 0.936761
vt 0.563548 0.769288
vt 0.917723 0.167473
vt 0.917723 0.000000
vt 0.547875 0.936761
vt 0.547875 0.769288
vn -0.0000 -0.0980 -0.9952
vn 0.0000 -0.2903 -0.9569
vn 0.0000 -0.4714 -0.8819
vn 0.0000 -0.6344 -0.7730
vn 0.0000 -0.7730 -0.6344
vn 0.0000 -0.8819 -0.4714
vn 0.0000 -0.9569 -0.2903
vn 0.0000 -0.9952 -0.0980
vn 0.0000 -0.9952 0.0980
vn 0.0000 -0.9569 0.2903
vn 0.0000 -0.8819 0.4714
vn 0.0000 -0.7730 0.6344
vn 0.0000 -0.6344 0.7730
vn 0.0000 -0.4714 0.8819
vn 0.0000 -0.2903 0.9569
vn 0.0000 -0.0980 0.9952
vn -0.0000 0.0980 0.9952
vn -0.0000 0.2903 0.9569
vn -0.0000 0.4714 0.8819
vn -0.0000 0.6344 0.7730
vn -0.0000 0.7730 0.6344
vn -0.0000 0.8819 0.4714
vn -0.0000 0.9569 0.2903
vn -0.0000 0.9952 0.0980
vn -0.0000 0.9952 -0.0980
vn -0.0000 0.9569 -0.2903
vn -0.0000 0.8819 -0.4714
vn -0.0000 0.7730 -0.6344
vn -0.0000 0.6344 -0.7730
vn -0.0000 0.4714 -0.8819
vn 1.0000 0.0000 -0.0000
vn -0.0000 0.2903 -0.9569
vn 0.0000 0.0980 -0.9952
vn -1.0000 0.0000 -0.0000
usemtl Material.005
s off
f 65/1/1 2/2/1 4/3/1 66/4/1
f 66/4/2 4/3/2 6/5/2 67/6/2
f 67/6/3 6/5/3 8/7/3 68/8/3
f 68/8/4 8/7/4 10/9/4 69/10/4
f 69/10/5 10/9/5 12/11/5 70/12/5
f 70/12/6 12/11/6 14/13/6 71/14/6
f 71/14/7 14/13/7 16/15/7 72/16/7
f 72/16/8 16/15/8 18/17/8 73/18/8
f 73/18/9 18/17/9 20/19/9 74/20/9
f 74/20/10 20/19/10 22/21/10 75/22/10
f 75/22/11 22/21/11 24/23/11 76/24/11
f 76/24/12 24/23/12 26/25/12 77/26/12
f 77/26/13 26/25/13 28/27/13 78/28/13
f 78/29/14 28/30/14 30/31/14 79/32/14
f 79/32/15 30/31/15 32/33/15 80/34/15
f 80/34/16 32/33/16 34/35/16 81/36/16
f 81/36/17 34/35/17 36/37/17 82/38/17
f 82/38/18 36/37/18 38/39/18 83/40/18
f 83/40/19 38/39/19 40/41/19 84/42/19
f 84/42/20 40/41/20 42/43/20 85/44/20
f 85/45/21 42/46/21 44/47/21 86/48/21
f 86/48/22 44/47/22 46/49/22 87/50/22
f 87/50/23 46/49/23 48/51/23 88/52/23
f 88/52/24 48/51/24 50/53/24 89/54/24
f 89/54/25 50/53/25 52/55/25 90/56/25
f 90/56/26 52/55/26 54/57/26 91/58/26
f 91/58/27 54/57/27 56/59/27 92/60/27
f 92/61/28 56/62/28 58/63/28 93/64/28
f 93/64/29 58/63/29 60/65/29 94/66/29
f 94/66/30 60/65/30 62/67/30 95/68/30
f 4/69/31 2/70/31 64/71/31 62/72/31 60/73/31 58/74/31 56/75/31 54/76/31 52/77/31 50/78/31 48/79/31 46/80/31 44/81/31 42/82/31 40/83/31 38/84/31 36/85/31 34/86/31 32/87/31 30/88/31 28/89/31 26/90/31 24/91/31 22/92/31 20/93/31 18/94/31 16/95/31 14/96/31 12/97/31 10/98/31 8/99/31 6/100/31
f 95/68/32 62/67/32 64/101/32 96/102/32
f 96/102/33 64/101/33 2/2/33 65/1/33
f 51/103/26 53/104/26 123/105/26 122/106/26
f 3/107/34 1/108/34 65/109/34 66/110/34
f 5/111/34 3/107/34 66/110/34 67/112/34
f 7/113/34 5/111/34 67/112/34 68/114/34
f 9/115/34 7/113/34 68/114/34 69/116/34
f 11/117/34 9/115/34 69/116/34 70/118/34
f 13/119/34 11/117/34 70/118/34 71/120/34
f 15/121/34 13/119/34 71/120/34 72/122/34
f 17/123/34 15/121/34 72/122/34 73/124/34
f 19/125/34 17/123/34 73/124/34 74/126/34
f 21/127/34 19/125/34 74/126/34 75/128/34
f 23/129/34 21/127/34 75/128/34 76/130/34
f 25/131/34 23/129/34 76/130/34 77/132/34
f 27/133/34 25/131/34 77/132/34 78/134/34
f 29/135/34 27/133/34 78/134/34 79/136/34
f 31/137/34 29/135/34 79/136/34 80/138/34
f 33/139/34 31/137/34 80/138/34 81/140/34
f 35/141/34 33/139/34 81/140/34 82/142/34
f 37/143/34 35/141/34 82/142/34 83/144/34
f 39/145/34 37/143/34 83/144/34 84/146/34
f 41/147/34 39/145/34 84/146/34 85/148/34
f 43/149/34 41/147/34 85/148/34 86/150/34
f 45/151/34 43/149/34 86/150/34 87/152/34
f 47/153/34 45/151/34 87/152/34 88/154/34
f 49/155/34 47/153/34 88/154/34 89/156/34
f 51/157/34 49/155/34 89/156/34 90/158/34
f 53/159/34 51/157/34 90/158/34 91/160/34
f 55/161/34 53/159/34 91/160/34 92/162/34
f 57/163/34 55/161/34 92/162/34 93/164/34
f 59/165/34 57/163/34 93/164/34 94/166/34
f 61/167/34 59/165/34 94/166/34 95/168/34
f 63/169/34 61/167/34 95/168/34 96/170/34
f 1/108/34 63/169/34 96/170/34 65/109/34
f 97/171/34 98/172/34 99/173/34 100/174/34 101/175/34 102/176/34 103/177/34 104/178/34 105/179/34 106/180/34 107/181/34 108/182/34 109/183/34 110/184/34 111/185/34 112/186/34 113/187/34 114/188/34 115/189/34 116/190/34 117/191/34 118/192/34 119/193/34 120/194/34 121/195/34 122/196/34 123/197/34 124/198/34 125/199/34 126/200/34 127/201/34 128/202/34
f 25/203/13 27/204/13 110/205/13 109/206/13
f 53/104/27 55/207/27 124/208/27 123/105/27
f 27/209/14 29/210/14 111/211/14 110/212/14
f 1/213/1 3/214/1 98/215/1 97/216/1
f 55/217/28 57/218/28 125/219/28 124/220/28
f 29/210/15 31/221/15 112/222/15 111/211/15
f 3/214/2 5/223/2 99/224/2 98/215/2
f 57/218/29 59/225/29 126/226/29 125/219/29
f 31/221/16 33/227/16 113/228/16 112/222/16
f 5/223/3 7/229/3 100/230/3 99/224/3
f 59/225/30 61/231/30 127/232/30 126/226/30
f 33/227/17 35/233/17 114/234/17 113/228/17
f 7/229/4 9/235/4 101/236/4 100/230/4
f 61/231/32 63/237/32 128/238/32 127/232/32
f 35/233/18 37/239/18 115/240/18 114/234/18
f 9/241/5 11/242/5 102/243/5 101/244/5
f 63/237/33 1/213/33 97/216/33 128/238/33
f 37/239/19 39/245/19 116/246/19 115/240/19
f 11/242/6 13/247/6 103/248/6 102/243/6
f 39/245/20 41/249/20 117/250/20 116/246/20
f 13/247/7 15/251/7 104/252/7 103/248/7
f 41/253/21 43/254/21 118/255/21 117/256/21
f 15/251/8 17/257/8 105/258/8 104/252/8
f 43/254/22 45/259/22 119/260/22 118/255/22
f 17/257/9 19/261/9 106/262/9 105/258/9
f 45/259/23 47/263/23 120/264/23 119/260/23
f 19/261/10 21/265/10 107/266/10 106/262/10
f 47/263/24 49/267/24 121/268/24 120/264/24
f 21/265/11 23/269/11 108/270/11 107/266/11
f 49/267/25 51/103/25 122/106/25 121/268/25
f 23/269/12 25/203/12 109/206/12 108/270/12
