# Blender v2.83.4 OBJ File: 'belts_machines.blend'
# www.blender.org
mtllib lift_cabel.mtl
o lift_cabel_Cylinder.002
v 0.000000 -1.000000 -0.300000
v 0.000000 1.000000 -0.300000
v 0.058527 -1.000000 -0.294236
v 0.058527 1.000000 -0.294236
v 0.114805 -1.000000 -0.277164
v 0.114805 1.000000 -0.277164
v 0.166671 -1.000000 -0.249441
v 0.166671 1.000000 -0.249441
v 0.212132 -1.000000 -0.212132
v 0.212132 1.000000 -0.212132
v 0.249441 -1.000000 -0.166671
v 0.249441 1.000000 -0.166671
v 0.277164 -1.000000 -0.114805
v 0.277164 1.000000 -0.114805
v 0.294236 -1.000000 -0.058527
v 0.294236 1.000000 -0.058527
v 0.300000 -1.000000 -0.000000
v 0.300000 1.000000 -0.000000
v 0.294236 -1.000000 0.058527
v 0.294236 1.000000 0.058527
v 0.277164 -1.000000 0.114805
v 0.277164 1.000000 0.114805
v 0.249441 -1.000000 0.166671
v 0.249441 1.000000 0.166671
v 0.212132 -1.000000 0.212132
v 0.212132 1.000000 0.212132
v 0.166671 -1.000000 0.249441
v 0.166671 1.000000 0.249441
v 0.114805 -1.000000 0.277164
v 0.114805 1.000000 0.277164
v 0.058527 -1.000000 0.294235
v 0.058527 1.000000 0.294235
v -0.000000 -1.000000 0.300000
v -0.000000 1.000000 0.300000
v -0.058527 -1.000000 0.294235
v -0.058527 1.000000 0.294235
v -0.114805 -1.000000 0.277164
v -0.114805 1.000000 0.277164
v -0.166671 -1.000000 0.249441
v -0.166671 1.000000 0.249441
v -0.212132 -1.000000 0.212132
v -0.212132 1.000000 0.212132
v -0.249441 -1.000000 0.166671
v -0.249441 1.000000 0.166671
v -0.277164 -1.000000 0.114805
v -0.277164 1.000000 0.114805
v -0.294236 -1.000000 0.058527
v -0.294236 1.000000 0.058527
v -0.300000 -1.000000 -0.000001
v -0.300000 1.000000 -0.000001
v -0.294236 -1.000000 -0.058528
v -0.294236 1.000000 -0.058528
v -0.277164 -1.000000 -0.114806
v -0.277164 1.000000 -0.114806
v -0.249441 -1.000000 -0.166672
v -0.249441 1.000000 -0.166672
v -0.212132 -1.000000 -0.212133
v -0.212132 1.000000 -0.212133
v -0.166671 -1.000000 -0.249441
v -0.166671 1.000000 -0.249441
v -0.114805 -1.000000 -0.277164
v -0.114805 1.000000 -0.277164
v -0.058527 -1.000000 -0.294236
v -0.058527 1.000000 -0.294236
vt 0.291472 0.000000
vt 0.291473 1.000000
vt 0.266241 1.000000
vt 0.266240 0.000000
vt 0.242472 1.000000
vt 0.242472 0.000000
vt 0.221082 1.000000
vt 0.221082 0.000000
vt 0.202891 1.000000
vt 0.202890 0.000000
vt 0.738796 0.000000
vt 0.738796 1.000000
vt 0.717406 1.000000
vt 0.717406 0.000000
vt 0.693638 1.000000
vt 0.693638 0.000000
vt 0.668406 1.000000
vt 0.668406 0.000000
vt 0.642679 1.000000
vt 0.642679 0.000000
vt 0.617447 1.000000
vt 0.617447 0.000000
vt 0.593679 1.000000
vt 0.593679 0.000000
vt 0.572289 1.000000
vt 0.572289 0.000000
vt 0.000000 1.000000
vt 0.000000 0.000000
vt 0.018191 0.000000
vt 0.018191 1.000000
vt 0.039582 0.000000
vt 0.039582 1.000000
vt 0.063350 0.000000
vt 0.063350 1.000000
vt 0.088582 0.000000
vt 0.088582 1.000000
vt 0.114308 0.000000
vt 0.114308 1.000000
vt 0.139540 0.000000
vt 0.139540 1.000000
vt 0.163308 0.000000
vt 0.163308 1.000000
vt 0.184699 0.000000
vt 0.184699 1.000000
vt 0.202890 0.000000
vt 0.202890 1.000000
vt 0.572288 0.000000
vt 0.572289 1.000000
vt 0.550898 1.000000
vt 0.550898 0.000000
vt 0.527130 1.000000
vt 0.527130 0.000000
vt 0.501898 1.000000
vt 0.501898 0.000000
vt 0.476171 1.000000
vt 0.476171 0.000000
vt 0.450939 1.000000
vt 0.450939 0.000000
vt 0.427171 1.000000
vt 0.427171 0.000000
vt 0.405781 1.000000
vt 0.405781 0.000000
vt 0.387589 1.000000
vt 0.387589 0.000000
vt 0.366199 1.000000
vt 0.366199 0.000000
vt 0.342431 1.000000
vt 0.342431 0.000000
vt 0.952652 0.563785
vt 0.931261 0.580121
vt 0.907493 0.591374
vt 0.882261 0.597111
vt 0.856535 0.597111
vt 0.831303 0.591374
vt 0.807535 0.580121
vt 0.786144 0.563784
vt 0.767953 0.542992
vt 0.753660 0.518542
vt 0.743815 0.491376
vt 0.738796 0.462535
vt 0.738796 0.433130
vt 0.743815 0.404290
vt 0.753660 0.377123
vt 0.767953 0.352674
vt 0.786144 0.331881
vt 0.807535 0.315545
vt 0.831303 0.304292
vt 0.856535 0.298555
vt 0.882261 0.298555
vt 0.907493 0.304292
vt 0.931261 0.315545
vt 0.952652 0.331882
vt 0.970843 0.352674
vt 0.985136 0.377124
vt 0.994981 0.404290
vt 1.000000 0.433131
vt 1.000000 0.462536
vt 0.994981 0.491376
vt 0.985136 0.518543
vt 0.970843 0.542992
vt 0.317199 1.000000
vt 0.317199 0.000000
vt 0.831303 0.292819
vt 0.807535 0.281566
vt 0.786144 0.265229
vt 0.767953 0.244437
vt 0.753660 0.219987
vt 0.743815 0.192821
vt 0.738796 0.163980
vt 0.738796 0.134575
vt 0.743815 0.105735
vt 0.753660 0.078568
vt 0.767953 0.054119
vt 0.786144 0.033326
vt 0.807535 0.016990
vt 0.831303 0.005737
vt 0.856535 0.000000
vt 0.882261 0.000000
vt 0.907493 0.005737
vt 0.931261 0.016990
vt 0.952652 0.033326
vt 0.970843 0.054119
vt 0.985136 0.078568
vt 0.994981 0.105735
vt 1.000000 0.134575
vt 1.000000 0.163980
vt 0.994981 0.192820
vt 0.985136 0.219987
vt 0.970843 0.244437
vt 0.952652 0.265229
vt 0.931261 0.281566
vt 0.907493 0.292819
vt 0.882261 0.298555
vt 0.856535 0.298555
vn 0.0980 0.0000 -0.9952
vn 0.2903 0.0000 -0.9569
vn 0.4714 0.0000 -0.8819
vn 0.6344 0.0000 -0.7730
vn 0.7730 0.0000 -0.6344
vn 0.8819 0.0000 -0.4714
vn 0.9569 0.0000 -0.2903
vn 0.9952 0.0000 -0.0980
vn 0.9952 0.0000 0.0980
vn 0.9569 0.0000 0.2903
vn 0.8819 0.0000 0.4714
vn 0.7730 0.0000 0.6344
vn 0.6344 0.0000 0.7730
vn 0.4714 0.0000 0.8819
vn 0.2903 0.0000 0.9569
vn 0.0980 0.0000 0.9952
vn -0.0980 0.0000 0.9952
vn -0.2903 0.0000 0.9569
vn -0.4714 0.0000 0.8819
vn -0.6344 0.0000 0.7730
vn -0.7730 0.0000 0.6344
vn -0.8819 0.0000 0.4714
vn -0.9569 0.0000 0.2903
vn -0.9952 0.0000 0.0980
vn -0.9952 0.0000 -0.0980
vn -0.9569 0.0000 -0.2903
vn -0.8819 0.0000 -0.4714
vn -0.7730 0.0000 -0.6344
vn -0.6344 0.0000 -0.7730
vn -0.4714 0.0000 -0.8819
vn 0.0000 1.0000 0.0000
vn -0.2903 0.0000 -0.9569
vn -0.0980 0.0000 -0.9952
vn 0.0000 -1.0000 0.0000
usemtl Material.003
s off
f 1/1/1 2/2/1 4/3/1 3/4/1
f 3/4/2 4/3/2 6/5/2 5/6/2
f 5/6/3 6/5/3 8/7/3 7/8/3
f 7/8/4 8/7/4 10/9/4 9/10/4
f 9/11/5 10/12/5 12/13/5 11/14/5
f 11/14/6 12/13/6 14/15/6 13/16/6
f 13/16/7 14/15/7 16/17/7 15/18/7
f 15/18/8 16/17/8 18/19/8 17/20/8
f 17/20/9 18/19/9 20/21/9 19/22/9
f 19/22/10 20/21/10 22/23/10 21/24/10
f 21/24/11 22/23/11 24/25/11 23/26/11
f 23/27/12 24/28/12 26/29/12 25/30/12
f 25/30/13 26/29/13 28/31/13 27/32/13
f 27/32/14 28/31/14 30/33/14 29/34/14
f 29/34/15 30/33/15 32/35/15 31/36/15
f 31/36/16 32/35/16 34/37/16 33/38/16
f 33/38/17 34/37/17 36/39/17 35/40/17
f 35/40/18 36/39/18 38/41/18 37/42/18
f 37/42/19 38/41/19 40/43/19 39/44/19
f 39/44/20 40/43/20 42/45/20 41/46/20
f 41/47/21 42/48/21 44/49/21 43/50/21
f 43/50/22 44/49/22 46/51/22 45/52/22
f 45/52/23 46/51/23 48/53/23 47/54/23
f 47/54/24 48/53/24 50/55/24 49/56/24
f 49/56/25 50/55/25 52/57/25 51/58/25
f 51/58/26 52/57/26 54/59/26 53/60/26
f 53/60/27 54/59/27 56/61/27 55/62/27
f 55/62/28 56/61/28 58/63/28 57/64/28
f 57/64/29 58/63/29 60/65/29 59/66/29
f 59/66/30 60/65/30 62/67/30 61/68/30
f 4/69/31 2/70/31 64/71/31 62/72/31 60/73/31 58/74/31 56/75/31 54/76/31 52/77/31 50/78/31 48/79/31 46/80/31 44/81/31 42/82/31 40/83/31 38/84/31 36/85/31 34/86/31 32/87/31 30/88/31 28/89/31 26/90/31 24/91/31 22/92/31 20/93/31 18/94/31 16/95/31 14/96/31 12/97/31 10/98/31 8/99/31 6/100/31
f 61/68/32 62/67/32 64/101/32 63/102/32
f 63/102/33 64/101/33 2/2/33 1/1/33
f 1/103/34 3/104/34 5/105/34 7/106/34 9/107/34 11/108/34 13/109/34 15/110/34 17/111/34 19/112/34 21/113/34 23/114/34 25/115/34 27/116/34 29/117/34 31/118/34 33/119/34 35/120/34 37/121/34 39/122/34 41/123/34 43/124/34 45/125/34 47/126/34 49/127/34 51/128/34 53/129/34 55/130/34 57/131/34 59/132/34 61/133/34 63/134/34
