# Blender v2.83.4 OBJ File: 'belts_machines.blend'
# www.blender.org
mtllib lift_base.mtl
o lift_base_Cube.002
v -1.000000 -0.749423 1.000000
v -1.000000 1.000000 1.000000
v -1.000000 -0.749423 -1.000000
v -1.000000 1.000000 -1.000000
v 1.000000 -0.749423 1.000000
v 1.000000 1.000000 1.000000
v 1.000000 -0.749423 -1.000000
v 1.000000 1.000000 -1.000000
v -1.000000 -0.749423 0.000000
v -1.000000 0.125288 1.000000
v -0.487046 1.000000 0.000000
v -1.000000 0.125288 -1.000000
v -0.487046 0.125288 0.000000
v -1.000000 -0.749423 0.500000
v -1.000000 0.562644 1.000000
v -0.487046 1.000000 -0.500000
v -1.000000 -0.312067 -1.000000
v -1.000000 -0.749423 -0.500000
v -1.000000 -0.312067 1.000000
v -0.487046 1.000000 0.500000
v -1.000000 0.562644 -1.000000
v -0.487046 0.125288 -0.500000
v -0.487046 0.125288 0.500000
v -1.000000 -0.312067 0.000000
v -0.487046 0.562644 0.000000
v -0.487046 0.562644 0.500000
v -1.000000 -0.312067 0.500000
v -1.000000 -0.312067 -0.500000
v -0.487046 0.562644 -0.500000
v -3.000000 -0.749423 0.500000
v -3.000000 -0.749423 1.000000
v -3.000000 0.562644 1.000000
v -3.000000 1.000000 1.000000
v -3.000000 1.000000 -0.500000
v -3.000000 1.000000 -1.000000
v -3.000000 -0.312067 -1.000000
v -3.000000 -0.749423 -1.000000
v -3.000000 -0.749423 -0.500000
v -3.000000 -0.312067 1.000000
v -3.000000 1.000000 0.500000
v -3.000000 0.562644 -1.000000
v -3.000000 0.562644 0.500000
v -3.000000 -0.312067 0.500000
v -3.000000 -0.312067 -0.500000
v -3.000000 0.562644 -0.500000
v -5.000000 -0.749423 0.500000
v -5.000000 -0.749423 1.000000
v -5.000000 0.562644 1.000000
v -5.000000 1.000000 1.000000
v -5.000000 1.000000 -0.500000
v -5.000000 1.000000 -1.000000
v -5.000000 -0.312067 -1.000000
v -5.000000 -0.749423 -1.000000
v -5.000000 -0.749423 -0.500000
v -5.000000 -0.312067 1.000000
v -5.000000 1.000000 0.500000
v -5.000000 0.562644 -1.000000
v -5.000000 0.562644 0.500000
v -5.000000 -0.312067 0.500000
v -5.000000 -0.312067 -0.500000
v -5.000000 0.562644 -0.500000
v -3.000000 1.256843 -0.500000
v -3.000000 1.256843 -1.000000
v -3.000000 1.256843 1.000000
v -3.000000 1.256843 0.500000
v -5.000000 1.256843 1.000000
v -5.000000 1.256843 0.500000
v -5.000000 1.256843 -0.500000
v -5.000000 1.256843 -1.000000
v -3.000000 2.256843 -0.500000
v -3.000000 2.256843 -1.000000
v -3.000000 2.256843 1.000000
v -3.000000 2.256843 0.500000
v -2.000000 1.000000 1.000000
v -2.000000 0.562644 1.000000
v -1.743523 0.562644 0.500000
v -1.743523 1.000000 0.500000
v -1.743523 0.562644 -0.500000
v -2.000000 0.562644 -1.000000
v -2.000000 1.000000 -1.000000
v -1.743523 1.000000 -0.500000
v -1.500000 0.562644 -1.000000
v -1.115284 1.000000 -0.500000
v -1.115284 0.562644 -0.500000
v -1.500000 1.000000 -1.000000
v -1.500000 0.562644 1.000000
v -1.115284 0.562644 0.500000
v -1.500000 1.000000 1.000000
v -1.115284 1.000000 0.500000
v -1.115284 1.149760 0.500000
v -1.743523 1.149760 0.500000
v -1.743523 1.149760 -0.500000
v -1.115284 1.149760 -0.500000
vt 0.131544 0.300175
vt 0.175392 0.300175
vt 0.175392 0.400233
vt 0.131544 0.400233
vt 0.301399 0.400233
vt 0.345247 0.400233
vt 0.389095 0.400233
vt 0.432943 0.400233
vt 0.476791 0.400233
vt 0.476791 0.600349
vt 0.301399 0.600349
vt 0.551298 0.800465
vt 0.375906 0.800465
vt 0.375906 0.600349
vt 0.551298 0.600349
vt 0.000000 0.000000
vt 0.175392 0.000000
vt 0.175392 0.200116
vt 0.131544 0.200116
vt 0.087696 0.200116
vt 0.043848 0.200116
vt 0.000000 0.200116
vt 0.803313 0.399950
vt 0.803313 0.599925
vt 0.602799 0.599925
vt 0.602799 0.399950
vt 0.652927 0.399950
vt 0.703056 0.399950
vt 0.753184 0.399950
vt 0.803313 0.599925
vt 0.803313 0.799460
vt 0.753184 0.748284
vt 0.703056 0.748284
vt 0.652927 0.748284
vt 0.602799 0.799460
vt 0.602799 0.599925
vt 0.753184 0.900669
vt 0.797032 0.900669
vt 0.797032 0.950698
vt 0.753184 0.950698
vt 0.803313 0.803502
vt 0.857932 0.803502
vt 0.857932 0.853531
vt 0.803313 0.853531
vt 0.444876 0.900524
vt 0.401028 0.900524
vt 0.401028 0.850495
vt 0.444876 0.850495
vt 0.488724 0.900524
vt 0.488724 0.850495
vt 0.797032 0.900669
vt 0.753184 0.900669
vt 0.753184 0.849343
vt 0.797032 0.849343
vt 0.350900 0.800465
vt 0.401028 0.800465
vt 0.401028 1.000000
vt 0.350900 1.000000
vt 0.947418 0.351322
vt 0.903570 0.351322
vt 0.903570 0.301293
vt 0.947418 0.301293
vt 0.602799 0.199975
vt 0.652927 0.199975
vt 0.444876 0.950553
vt 0.401028 0.950553
vt 0.401028 0.900524
vt 0.444876 0.900524
vt 0.953698 0.099988
vt 0.903570 0.125632
vt 0.903570 0.000000
vt 0.953698 0.000000
vt 0.903570 0.251264
vt 0.947418 0.251264
vt 0.857932 0.903560
vt 0.803313 0.903560
vt 0.551298 0.851613
vt 0.595146 0.851613
vt 0.595146 0.902938
vt 0.551298 0.902938
vt 0.444876 0.800465
vt 0.488724 0.800465
vt 0.401028 0.800465
vt 0.175392 0.600349
vt 0.131544 0.600349
vt 0.803313 0.199975
vt 0.753184 0.199975
vt 0.753184 0.000000
vt 0.803313 0.000000
vt 0.803313 0.403269
vt 0.891009 0.403269
vt 0.891009 0.603385
vt 0.803313 0.603385
vt 0.476791 0.200116
vt 0.432943 0.200116
vt 0.432943 0.000000
vt 0.476791 0.000000
vt 0.953698 0.200116
vt 0.997546 0.200116
vt 0.997546 0.400233
vt 0.953699 0.400233
vt 0.100257 0.926448
vt 0.050129 0.900860
vt 0.050129 0.801092
vt 0.100257 0.801092
vt 0.891009 0.780432
vt 0.934857 0.780431
vt 0.934857 0.906152
vt 0.891009 0.906152
vt 0.043848 0.400233
vt 0.000000 0.400233
vt 0.300771 0.800465
vt 0.350900 0.800465
vt 0.350900 1.000000
vt 0.300771 1.000000
vt 0.301399 0.200116
vt 0.345247 0.200116
vt 0.601427 0.725981
vt 0.551298 0.700337
vt 0.551298 0.600349
vt 0.601427 0.600349
vt 0.100257 0.826680
vt 0.150386 0.801092
vt 0.150386 0.926448
vt 0.100257 0.926448
vt 0.476791 0.300174
vt 0.432943 0.300174
vt 0.953698 0.000000
vt 0.997546 0.000000
vt 0.997546 0.200116
vt 0.953699 0.200116
vt 0.906023 0.528990
vt 0.949871 0.528990
vt 0.949871 0.654711
vt 0.906024 0.654711
vt 0.602799 0.000000
vt 0.652927 0.000000
vt 0.050129 0.926850
vt 0.000000 0.926850
vt 0.000000 0.901151
vt 0.050129 0.901151
vt 0.301399 0.000000
vt 0.345247 0.000000
vt 0.903570 0.403269
vt 0.803313 0.403269
vt 0.803313 0.203735
vt 0.903570 0.203735
vt 0.753184 0.875042
vt 0.703056 0.875043
vt 0.703056 0.849343
vt 0.753184 0.849343
vt 0.652927 0.918804
vt 0.652927 0.875043
vt 0.703056 0.875042
vt 0.703056 0.918804
vt 0.703056 0.918804
vt 0.753184 0.918804
vt 0.947418 0.401351
vt 0.903570 0.401351
vt 0.903570 0.351322
vt 0.947418 0.351322
vt 0.194234 0.940529
vt 0.150386 0.940529
vt 0.150386 0.890500
vt 0.194234 0.890500
vt 0.200514 0.644110
vt 0.200514 0.731632
vt 0.150386 0.731632
vt 0.150386 0.644110
vt 0.150386 0.775393
vt 0.050129 0.775393
vt 0.050129 0.731632
vt 0.050129 0.600349
vt 0.150386 0.600349
vt 0.050129 0.644110
vt 0.000000 0.731632
vt 0.000000 0.644110
vt 0.043848 0.600349
vt 0.000000 0.600349
vt 0.488724 0.800465
vt 0.538853 0.800465
vt 0.538853 0.826165
vt 0.488724 0.826165
vt 0.803313 0.603385
vt 0.891009 0.603385
vt 0.891009 0.803502
vt 0.803313 0.803502
vt 0.502542 0.200116
vt 0.502542 0.000000
vt 0.602799 0.200116
vt 0.000000 0.801092
vt 0.050129 0.801092
vt 0.300771 0.900524
vt 0.200514 0.900524
vt 0.200514 0.800465
vt 0.300771 0.800465
vt 0.652927 0.849343
vt 0.703056 0.849343
vt 0.150386 0.801092
vt 0.050129 0.801092
vt 0.201142 0.400233
vt 0.201142 0.600349
vt 0.300771 0.926223
vt 0.200514 0.926223
vt 0.903570 0.203735
vt 0.803313 0.203734
vt 0.803313 0.000000
vt 0.903570 0.000000
vt 0.949871 0.610427
vt 1.000000 0.610427
vt 1.000000 0.817586
vt 0.949871 0.817586
vt 1.000000 0.610427
vt 0.949871 0.610427
vt 0.949872 0.403269
vt 1.000000 0.403269
vt 0.301399 0.400233
vt 0.538853 0.926223
vt 0.488724 0.926223
vt 0.906023 0.466129
vt 0.949871 0.466129
vt 0.887961 0.803502
vt 0.887961 0.853531
vt 0.872946 0.803502
vt 0.601427 0.788797
vt 0.551298 0.750330
vt 0.131544 0.250145
vt 0.175392 0.250145
vt 0.476791 0.350204
vt 0.432943 0.350204
vt 0.891009 0.717571
vt 0.934857 0.717571
vt 0.953698 0.149981
vt 0.903570 0.188448
vt 0.953698 0.199975
vt 0.903570 0.251264
vt 0.803313 0.849343
vt 0.753184 0.810961
vt 0.891009 0.654711
vt 0.934857 0.654711
vt 0.601427 0.851613
vt 0.551298 0.800324
vt 0.652927 0.810961
vt 0.602799 0.849343
vt 0.906023 0.403269
vt 0.949871 0.403269
vt 0.652927 0.899227
vt 0.602799 0.938751
vt 0.602799 0.876073
vt 0.652927 0.849343
vt 0.150386 0.801092
vt 0.200514 0.840616
vt 0.200514 0.890500
vt 0.150386 0.863770
vt 0.872946 0.853531
vt 0.872946 0.903560
vt 0.857932 0.903560
vt 0.891009 0.528990
vt 0.891009 0.466129
vt 0.857932 0.853531
vt 0.857932 0.803502
vt 0.872946 0.853531
vt 0.887961 0.853531
vt 0.887961 0.903560
vt 0.872946 0.903560
vt 0.949871 0.717571
vt 0.949871 0.780431
vt 0.375906 0.650378
vt 0.375906 0.750436
vt 0.332058 0.750436
vt 0.332058 0.650378
vt 0.332058 0.800465
vt 0.244362 0.800465
vt 0.244362 0.750436
vt 0.244362 0.650378
vt 0.244362 0.600349
vt 0.332058 0.600349
vt 0.200514 0.750436
vt 0.200514 0.650378
vn 0.0000 0.0000 1.0000
vn 0.0000 0.0000 -1.0000
vn 1.0000 0.0000 0.0000
vn 0.0000 -1.0000 0.0000
vn 0.0000 1.0000 0.0000
vn -0.7888 0.4626 0.4046
vn -0.6488 0.7610 0.0000
vn -1.0000 0.0000 0.0000
vn -0.6980 0.0000 -0.7161
vn -0.7888 0.4626 -0.4046
vn -0.6980 0.0000 0.7161
vn 0.4472 -0.8944 0.0000
vn -0.4472 0.8944 0.0000
vn -0.8898 0.0000 -0.4564
vn 0.0000 0.9580 0.2869
vn 0.0000 0.9580 -0.2869
vn -0.8898 0.0000 0.4564
vn 0.7925 0.0000 -0.6098
vn 0.7925 0.0000 0.6098
usemtl Material.001
s off
f 75/1/1 74/2/1 33/3/1 32/4/1
f 3/5/2 17/6/2 12/7/2 21/8/2 4/9/2 8/10/2 7/11/2
f 7/12/3 8/13/3 6/14/3 5/15/3
f 5/16/1 6/17/1 2/18/1 15/19/1 10/20/1 19/21/1 1/22/1
f 3/23/4 7/24/4 5/25/4 1/26/4 14/27/4 9/28/4 18/29/4
f 8/30/5 4/31/5 16/32/5 11/33/5 20/34/5 2/35/5 6/36/5
f 28/37/6 22/38/6 12/39/6 17/40/6
f 27/41/7 23/42/7 13/43/7 24/44/7
f 26/45/8 20/46/8 11/47/8 25/48/8
f 23/49/8 26/45/8 25/48/8 13/50/8
f 10/51/9 15/52/9 26/53/9 23/54/9
f 19/55/5 27/56/5 43/57/5 39/58/5
f 14/59/8 27/60/8 24/61/8 9/62/8
f 14/27/4 1/26/4 31/63/4 30/64/4
f 19/65/10 10/66/10 23/67/10 27/68/10
f 79/69/4 78/70/4 45/71/4 41/72/4
f 9/62/8 24/61/8 28/73/8 18/74/8
f 24/44/7 13/43/7 22/75/7 28/76/7
f 22/77/11 29/78/11 21/79/11 12/80/11
f 13/50/8 25/48/8 29/81/8 22/82/8
f 25/48/8 11/47/8 16/83/8 29/81/8
f 32/4/1 33/3/1 49/84/1 48/85/1
f 37/86/4 38/87/4 54/88/4 53/89/4
f 32/90/2 39/91/2 55/92/2 48/93/2
f 35/94/2 41/95/2 57/96/2 51/97/2
f 27/98/2 14/99/2 30/100/2 43/101/2
f 3/23/4 18/29/4 38/87/4 37/86/4
f 81/102/5 80/103/5 35/104/5 34/105/5
f 78/106/1 81/107/1 34/108/1 45/109/1
f 1/22/1 19/21/1 39/110/1 31/111/1
f 28/112/5 17/113/5 36/114/5 44/115/5
f 17/6/2 3/5/2 37/116/2 36/117/2
f 76/118/4 75/119/4 32/120/4 42/121/4
f 74/122/5 77/123/5 40/124/5 33/125/5
f 80/126/2 79/127/2 41/95/2 35/94/2
f 18/128/1 28/129/1 44/130/1 38/131/1
f 77/132/2 76/133/2 42/134/2 40/135/2
f 30/64/4 31/63/4 47/136/4 46/137/4
f 34/138/3 35/139/3 63/140/3 62/141/3
f 36/117/2 37/116/2 53/142/2 52/143/2
f 30/144/5 38/145/5 54/146/5 46/147/5
f 56/148/8 49/149/8 66/150/8 67/151/8
f 61/152/8 50/153/8 51/154/8 57/155/8
f 48/156/8 49/149/8 56/148/8 58/157/8
f 47/158/8 55/159/8 59/160/8 46/161/8
f 54/162/8 60/163/8 52/164/8 53/165/8
f 52/166/3 57/167/3 61/168/3 60/169/3
f 50/170/3 56/171/3 58/172/3 61/168/3
f 46/173/3 54/174/3 60/169/3 59/175/3
f 48/176/3 55/177/3 59/175/3 58/172/3
f 60/169/3 61/168/3 58/172/3 59/175/3
f 31/111/1 39/110/1 55/178/1 47/179/1
f 33/180/3 40/181/3 65/182/3 64/183/3
f 36/184/1 41/185/1 57/186/1 52/187/1
f 63/188/2 69/189/2 71/190/2
f 62/141/3 63/140/3 71/191/3 70/192/3
f 62/193/8 65/194/8 73/195/8 70/196/8
f 51/154/8 50/153/8 68/197/8 69/198/8
f 35/94/2 51/97/2 69/189/2 63/188/2
f 56/171/3 50/170/3 68/199/3 67/200/3
f 49/84/1 33/3/1 64/201/1 66/202/1
f 34/203/8 40/204/8 65/194/8 62/193/8
f 70/205/12 73/206/12 67/207/12 68/208/12
f 72/209/13 73/210/13 67/211/13 66/212/13
f 70/213/13 71/214/13 69/215/13 68/216/13
f 66/202/1 64/201/1 72/217/1
f 64/183/3 65/182/3 73/218/3 72/219/3
f 89/220/2 87/221/2 76/133/2 77/132/2
f 77/222/14 74/223/14 91/224/14
f 87/225/4 86/226/4 75/119/4 76/118/4
f 86/227/1 88/228/1 74/2/1 75/1/1
f 85/229/2 82/230/2 79/127/2 80/126/2
f 84/231/1 83/232/1 81/107/1 78/106/1
f 82/233/4 84/234/4 78/70/4 79/69/4
f 21/235/4 29/236/4 84/234/4 82/233/4
f 16/32/5 4/31/5 85/237/5 83/238/5
f 29/239/1 16/240/1 83/232/1 84/231/1
f 4/9/2 21/8/2 82/230/2 85/229/2
f 15/19/1 2/18/1 88/228/1 86/227/1
f 26/241/4 15/242/4 86/226/4 87/225/4
f 2/35/5 20/34/5 89/243/5 88/244/5
f 20/245/2 26/246/2 87/221/2 89/220/2
f 88/247/15 90/248/15 91/249/15 74/250/15
f 93/251/16 85/252/16 80/253/16 92/254/16
f 80/255/17 81/256/17 92/257/17
f 89/220/2 77/132/2 91/258/2 90/259/2
f 83/260/18 85/261/18 93/262/18
f 88/263/19 89/264/19 90/265/19
f 81/107/1 83/232/1 93/266/1 92/267/1
f 30/268/3 38/269/3 44/270/3 43/271/3
f 36/272/3 41/273/3 45/274/3 44/270/3
f 42/275/3 32/276/3 39/277/3 43/271/3
f 42/275/3 45/274/3 34/278/3 40/279/3
f 44/270/3 45/274/3 42/275/3 43/271/3
