# Blender v2.83.4 OBJ File: 'belts_machines.blend'
# www.blender.org
mtllib lift_floor.mtl
o lift_floor_Cube.003
v 1.000000 -0.750674 -1.000000
v 1.000000 -0.750674 1.000000
v -1.000000 -0.750674 -1.000000
v -1.000000 -0.750674 1.000000
v -1.000000 -1.000674 1.000000
v 1.000000 -1.000674 -1.000000
v 1.000000 -1.000674 1.000000
v -1.000000 -1.000674 -1.000000
vt 0.916667 0.500000
vt 0.833333 0.500000
vt 0.833333 0.000000
vt 0.916667 0.000000
vt 1.000000 0.500000
vt 0.916667 0.500000
vt 0.916667 0.000000
vt 1.000000 0.000000
vt 0.750000 0.500000
vt 0.666667 0.500000
vt 0.666666 0.000000
vt 0.750000 0.000000
vt 0.833333 0.000000
vt 0.833333 0.500000
vt 0.750000 0.500000
vt 0.000000 0.500000
vt 0.666666 0.500000
vt 0.666666 1.000000
vt 0.000000 1.000000
vt 0.666666 0.000000
vt 0.666666 0.500000
vt 0.000000 0.500000
vt 0.000000 0.000000
vn 0.0000 0.0000 -1.0000
vn -1.0000 0.0000 0.0000
vn 1.0000 0.0000 0.0000
vn 0.0000 0.0000 1.0000
vn 0.0000 -1.0000 0.0000
vn 0.0000 1.0000 0.0000
usemtl Material.014
s off
f 8/1/1 3/2/1 1/3/1 6/4/1
f 5/5/2 4/6/2 3/7/2 8/8/2
f 6/9/3 1/10/3 2/11/3 7/12/3
f 7/12/4 2/13/4 4/14/4 5/15/4
f 8/16/5 6/17/5 7/18/5 5/19/5
f 1/20/6 3/21/6 4/22/6 2/23/6
