# Blender v2.83.4 OBJ File: 'weapons.blend'
# www.blender.org
mtllib rotating_turret.mtl
o rotating_turret_Cube.002
v -1.011655 -0.434454 0.983178
v -1.011655 -0.186793 0.983178
v -0.978423 -0.434454 -1.016546
v -0.978423 -0.186793 -1.016546
v 0.988069 -0.434454 1.016409
v 0.988069 -0.186793 1.016409
v 1.021301 -0.434454 -0.983315
v 1.021301 -0.186793 -0.983315
v 0.021439 -0.434454 -0.999931
v 0.021439 -0.186793 -0.999931
v -0.011793 -0.434454 0.999793
v -0.011793 -0.186793 0.999793
v 0.521370 -0.186793 -0.991623
v 0.488138 -0.434454 1.008101
v 0.521370 -0.434454 -0.991623
v 0.488138 -0.186793 1.008101
v -0.478492 -0.434454 -1.008239
v -0.511724 -0.186793 0.991485
v -0.478492 -0.186793 -1.008239
v -0.511724 -0.434454 0.991485
v 0.771335 -0.186793 -0.987469
v 0.738104 -0.434454 1.012255
v 0.771335 -0.434454 -0.987469
v 0.738104 -0.186793 1.012255
v -0.728458 -0.434454 -1.012392
v -0.761689 -0.186793 0.987332
v -0.728458 -0.186793 -1.012392
v -0.761689 -0.434454 0.987332
v -0.995039 -0.434454 -0.016684
v -0.995039 -0.186793 -0.016684
v 1.004685 -0.434454 0.016547
v 1.004685 -0.186793 0.016547
v 0.004823 -0.186793 -0.000069
v 0.004823 -0.434454 -0.000069
v 0.504754 -0.186793 0.008239
v 0.504754 -0.434454 0.008239
v -0.495108 -0.434454 -0.008377
v -0.495108 -0.186793 -0.008377
v 0.754720 -0.186793 0.012393
v 0.754720 -0.434454 0.012393
v -0.745073 -0.434454 -0.012530
v -0.745073 -0.186793 -0.012530
v -0.986731 -0.186793 -0.516615
v 1.012993 -0.434454 -0.483384
v -0.986731 -0.434454 -0.516615
v 1.012993 -0.186793 -0.483384
v 0.013131 -0.186793 -0.500000
v 0.013131 -0.434454 -0.500000
v 0.513062 -0.186793 -0.491692
v 0.513062 -0.434454 -0.491692
v -0.486800 -0.434454 -0.508307
v -0.486800 -0.186793 -0.508307
v 0.763027 -0.186793 -0.487538
v 0.763027 -0.434454 -0.487538
v -0.736766 -0.434454 -0.512461
v -0.736766 -0.186793 -0.512461
v -1.003347 -0.434454 0.483247
v 0.996377 -0.186793 0.516478
v -0.003485 -0.186793 0.499862
v -0.003485 -0.434454 0.499862
v 0.496446 -0.186793 0.508170
v 0.496446 -0.434454 0.508170
v -0.503416 -0.434454 0.491554
v -0.503416 -0.186793 0.491554
v 0.746412 -0.186793 0.512324
v 0.746412 -0.434454 0.512324
v -0.753381 -0.434454 0.487401
v -0.753381 -0.186793 0.487401
v -1.003347 -0.186793 0.483247
v 0.996377 -0.434454 0.516478
v -1.003347 0.532986 0.483247
v -0.995039 0.532986 -0.016684
v 1.012993 0.532986 -0.483384
v 1.004685 0.532986 0.016547
v 0.763027 0.532986 -0.487538
v 0.754720 0.532986 0.012393
v -0.736766 0.532986 -0.512461
v -0.745073 0.532986 -0.012530
v -0.986731 0.532986 -0.516615
v 0.996377 0.532986 0.516478
v 0.746412 0.532986 0.512324
v -0.753381 0.532986 0.487401
v 1.004685 0.972435 0.016547
v -0.995039 0.972435 -0.016684
v 0.754720 0.972435 0.012393
v -0.745073 0.972435 -0.012530
v 1.000531 -0.186793 0.266513
v -0.999193 0.532986 0.233281
v 0.000669 -0.434454 0.249897
v 1.000531 -0.434454 0.266513
v -0.999193 -0.434454 0.233281
v -0.999193 -0.186793 0.233281
v 0.500600 -0.434454 0.258205
v -0.499262 -0.434454 0.241589
v 0.750566 -0.434454 0.262359
v -0.749227 -0.434454 0.237435
v 1.000531 0.532986 0.266513
v 1.000531 0.972435 0.266513
v -0.999193 0.972435 0.233281
v -0.990885 -0.434454 -0.266650
v 1.008839 -0.186793 -0.233418
v 0.008977 -0.434454 -0.250034
v 0.508908 -0.434454 -0.241726
v -0.490954 -0.434454 -0.258342
v 0.758874 -0.434454 -0.237572
v -0.740919 -0.434454 -0.262496
v 1.008839 0.532986 -0.233418
v -0.990885 -0.186793 -0.266650
v 1.008839 -0.434454 -0.233418
v -0.990885 0.532986 -0.266650
v 1.008839 0.972435 -0.233418
v -0.990885 0.972435 -0.266650
v 0.009010 -0.186793 -0.252046
v -0.490920 -0.186793 -0.260354
v 0.758907 -0.186793 -0.239584
v -0.740886 -0.186793 -0.264508
v 0.758907 0.532986 -0.239584
v -0.740886 0.532986 -0.264508
v 0.758907 0.972435 -0.239584
v -0.740886 0.972435 -0.264508
v 0.000669 -0.186793 0.249897
v 0.500600 -0.186793 0.258205
v -0.499262 -0.186793 0.241589
v 0.750566 -0.186793 0.262359
v -0.749227 -0.186793 0.237435
v 0.750566 0.532986 0.262359
v -0.749227 0.532986 0.237435
v 0.750566 0.972435 0.262359
v -0.749227 0.972435 0.237435
vt 0.731580 0.578910
vt 0.678399 0.578910
vt 0.678399 0.463128
vt 0.731580 0.463128
vt 0.784492 0.594763
vt 0.731580 0.594763
vt 0.731580 0.536872
vt 0.784492 0.536872
vt 0.731580 0.115782
vt 0.678399 0.115782
vt 0.678399 0.000000
vt 0.731580 0.000000
vt 0.784492 0.942109
vt 0.837401 0.942109
vt 0.837401 1.000000
vt 0.784492 1.000000
vt 0.322103 0.521019
vt 0.322103 0.463128
vt 0.429471 0.463128
vt 0.429471 0.521019
vt 0.107368 0.405237
vt 0.107368 0.463128
vt 0.000000 0.463128
vt 0.000000 0.405237
vt 0.107368 0.115782
vt 0.107368 0.231564
vt 0.000000 0.231564
vt 0.000000 0.115782
vt 0.322103 0.810475
vt 0.322103 0.694693
vt 0.429471 0.694692
vt 0.429471 0.810475
vt 0.784492 0.652654
vt 0.837401 0.652654
vt 0.837401 0.768436
vt 0.784492 0.768436
vt 0.784492 0.884218
vt 0.731580 0.884218
vt 0.731580 0.768436
vt 0.784492 0.768436
vt 0.784492 0.594763
vt 0.837401 0.594763
vt 0.107368 0.057891
vt 0.000000 0.057891
vt 0.322103 0.578910
vt 0.429471 0.578910
vt 0.731580 0.652654
vt 0.784492 0.652654
vt 0.784492 0.942109
vt 0.731581 0.942109
vt 0.322103 0.868366
vt 0.429471 0.868366
vt 0.107368 0.347346
vt 0.000000 0.347346
vt 0.837401 0.884218
vt 0.784492 0.884218
vt 0.107368 0.000000
vt 0.000000 0.000000
vt 0.784492 0.536872
vt 0.837401 0.536872
vt 0.322103 0.926257
vt 0.429471 0.926257
vt 0.784492 1.000000
vt 0.731581 1.000000
vt 0.268852 0.347346
vt 0.268852 0.405237
vt 0.214736 0.405237
vt 0.214736 0.347346
vt 0.161052 0.926257
vt 0.161052 0.868366
vt 0.214736 0.868366
vt 0.214736 0.926257
vt 0.161052 0.578910
vt 0.161052 0.521019
vt 0.214736 0.521019
vt 0.214736 0.578910
vt 0.785264 0.268436
vt 0.838948 0.268436
vt 0.838948 0.435111
vt 0.785264 0.435111
vt 0.268852 0.231564
vt 0.214736 0.231564
vt 0.161052 0.810475
vt 0.214736 0.810475
vt 0.161052 0.694693
vt 0.214736 0.694693
vt 0.523837 0.636802
vt 0.523837 0.694693
vt 0.429471 0.694693
vt 0.429471 0.636802
vt 0.161052 0.463128
vt 0.214736 0.463128
vt 0.731580 0.289455
vt 0.678399 0.289455
vt 0.678399 0.231564
vt 0.731580 0.231564
vt 0.731580 0.752584
vt 0.678399 0.752584
vt 0.678399 0.694693
vt 0.731580 0.694693
vt 0.731580 0.463128
vt 0.678399 0.463128
vt 0.678399 0.347346
vt 0.731580 0.347346
vt 0.000000 0.521019
vt 0.000000 0.463128
vt 0.107368 0.463128
vt 0.107368 0.521019
vt 0.429471 0.405237
vt 0.429471 0.463128
vt 0.322103 0.463128
vt 0.322103 0.405237
vt 0.429471 0.115782
vt 0.429471 0.231564
vt 0.322103 0.231564
vt 0.322103 0.115782
vt 0.000000 0.810475
vt 0.000000 0.694693
vt 0.107368 0.694693
vt 0.107368 0.810475
vt 0.429471 0.057891
vt 0.322103 0.057891
vt 0.000000 0.578911
vt 0.107368 0.578910
vt 0.000000 0.868366
vt 0.107368 0.868366
vt 0.429471 0.347346
vt 0.322103 0.347346
vt 0.429471 0.000000
vt 0.322103 0.000000
vt 0.000000 0.926257
vt 0.107368 0.926257
vt 0.731580 0.636801
vt 0.678399 0.636801
vt 0.731580 0.926257
vt 0.678399 0.926257
vt 0.678399 0.810475
vt 0.731580 0.810475
vt 0.161052 0.347346
vt 0.161052 0.405237
vt 0.268419 0.926257
vt 0.268419 0.868366
vt 0.268419 0.578910
vt 0.268419 0.521019
vt 0.523837 0.810475
vt 0.523837 0.752584
vt 0.161052 0.231564
vt 0.268419 0.810475
vt 0.268419 0.694693
vt 0.161052 0.057891
vt 0.161052 0.115782
vt 0.523837 0.173673
vt 0.523837 0.231564
vt 0.429471 0.231564
vt 0.429471 0.173673
vt 0.268419 0.463128
vt 0.731580 0.173673
vt 0.678399 0.173673
vt 0.891085 0.809783
vt 0.837401 0.809783
vt 0.837401 0.643961
vt 0.891085 0.643961
vt 0.944769 0.809783
vt 0.891085 0.809783
vt 0.891085 0.643961
vt 0.944769 0.643961
vt 0.892632 0.000000
vt 0.946316 0.000000
vt 0.946316 0.166675
vt 0.892632 0.166675
vt 0.893064 0.268436
vt 0.946316 0.268436
vt 0.946316 0.435111
vt 0.893064 0.435111
vt 0.523837 0.347346
vt 0.523837 0.289455
vt 0.998453 0.809773
vt 0.944769 0.809773
vt 0.944769 0.643945
vt 0.998453 0.643945
vt 0.784832 0.000000
vt 0.838948 0.000000
vt 0.838948 0.166675
vt 0.784832 0.166675
vt 0.946316 0.000000
vt 1.000000 0.000000
vt 1.000000 0.165828
vt 0.946316 0.165828
vt 0.523837 0.115782
vt 0.838948 0.268436
vt 0.784832 0.268436
vt 0.838948 0.536872
vt 0.785264 0.536872
vt 0.892632 0.268436
vt 0.429471 0.752584
vt 0.837401 0.536872
vt 0.891085 0.536872
vt 0.429471 0.289455
vt 0.523837 0.578910
vt 0.893064 0.536872
vt 0.731580 0.000000
vt 0.731580 0.166675
vt 0.214736 0.115782
vt 0.214736 0.057891
vt 0.731580 0.268436
vt 0.731580 0.435111
vt 1.000000 0.272854
vt 0.946316 0.272901
vt 0.837401 0.868140
vt 0.837401 0.810249
vt 0.891085 0.809783
vt 0.891085 0.868140
vt 0.891085 0.926031
vt 0.837401 0.926031
vt 0.891085 0.809783
vt 0.944769 0.809783
vt 0.944769 0.867674
vt 0.944769 0.926031
vt 0.891085 0.925565
vt 0.891085 0.867674
vt 0.891085 0.536872
vt 0.944769 0.536872
vt 0.944769 0.536872
vt 0.998453 0.536918
vt 0.268851 0.057891
vn -0.9999 0.0000 -0.0166
vn 0.0166 0.0000 -0.9999
vn 0.9999 0.0000 0.0166
vn -0.0166 0.0000 0.9999
vn 0.0000 -1.0000 0.0000
vn 0.0000 1.0000 0.0000
vn -0.0144 0.4945 0.8691
vn 0.0180 0.4930 -0.8699
vn 0.0110 0.4930 -0.8700
usemtl Material.003
s off
f 45/1/1 43/2/1 4/3/1 3/4/1
f 23/5/2 21/6/2 8/7/2 7/8/2
f 70/9/3 58/10/3 6/11/3 5/12/3
f 28/13/4 26/14/4 2/15/4 1/16/4
f 66/17/5 70/18/5 5/19/5 22/20/5
f 68/21/6 69/22/6 2/23/6 26/24/6
f 61/25/6 59/26/6 12/27/6 16/28/6
f 63/29/5 60/30/5 11/31/5 20/32/5
f 14/33/4 16/34/4 12/35/4 11/36/4
f 17/37/2 19/38/2 10/39/2 9/40/2
f 22/41/4 24/42/4 16/34/4 14/33/4
f 65/43/6 61/25/6 16/28/6 24/44/6
f 60/30/5 62/45/5 14/46/5 11/31/5
f 9/40/2 10/39/2 13/47/2 15/48/2
f 25/49/2 27/50/2 19/38/2 17/37/2
f 67/51/5 63/29/5 20/32/5 28/52/5
f 59/26/6 64/53/6 18/54/6 12/27/6
f 11/36/4 12/35/4 18/55/4 20/56/4
f 58/57/6 65/43/6 24/44/6 6/58/6
f 5/59/4 6/60/4 24/42/4 22/41/4
f 62/45/5 66/17/5 22/20/5 14/46/5
f 15/48/2 13/47/2 21/6/2 23/5/2
f 57/61/5 67/51/5 28/52/5 1/62/5
f 3/63/2 4/64/2 27/50/2 25/49/2
f 64/53/6 68/21/6 26/24/6 18/54/6
f 20/56/4 18/55/4 26/14/4 28/13/4
f 114/65/6 116/66/6 42/67/6 38/68/6
f 100/69/5 106/70/5 41/71/5 29/72/5
f 103/73/5 105/74/5 40/75/5 36/76/5
f 125/77/3 42/78/3 78/79/3 127/80/3
f 113/81/6 114/65/6 38/68/6 33/82/6
f 106/70/5 104/83/5 37/84/5 41/71/5
f 102/85/5 103/73/5 36/76/5 34/86/5
f 104/83/5 102/85/5 34/86/5 37/84/5
f 110/87/1 72/88/1 84/89/1 112/90/1
f 105/74/5 109/91/5 31/92/5 40/75/5
f 109/93/3 101/94/3 32/95/3 31/96/3
f 91/97/1 92/98/1 30/99/1 29/100/1
f 7/101/3 8/102/3 46/103/3 44/104/3
f 23/105/5 7/106/5 44/107/5 54/108/5
f 27/109/6 4/110/6 43/111/6 56/112/6
f 13/113/6 10/114/6 47/115/6 49/116/6
f 17/117/5 9/118/5 48/119/5 51/120/5
f 21/121/6 13/113/6 49/116/6 53/122/6
f 9/118/5 15/123/5 50/124/5 48/119/5
f 25/125/5 17/117/5 51/120/5 55/126/5
f 10/114/6 19/127/6 52/128/6 47/115/6
f 8/129/6 21/121/6 53/122/6 46/130/6
f 15/123/5 23/105/5 54/108/5 50/124/5
f 3/131/5 25/125/5 55/126/5 45/132/5
f 19/127/6 27/109/6 56/112/6 52/128/6
f 100/133/1 108/134/1 43/2/1 45/1/1
f 1/135/1 2/136/1 69/137/1 57/138/1
f 123/139/6 125/140/6 68/21/6 64/53/6
f 91/141/5 96/142/5 67/51/5 57/61/5
f 93/143/5 95/144/5 66/17/5 62/45/5
f 92/98/1 69/137/1 71/145/1 88/146/1
f 121/147/6 123/139/6 64/53/6 59/26/6
f 96/142/5 94/148/5 63/29/5 67/51/5
f 89/149/5 93/143/5 62/45/5 60/30/5
f 124/150/6 122/151/6 61/25/6 65/43/6
f 94/148/5 89/149/5 60/30/5 63/29/5
f 122/151/6 121/147/6 59/26/6 61/25/6
f 97/152/3 74/153/3 83/154/3 98/155/3
f 95/144/5 90/156/5 70/18/5 66/17/5
f 90/157/3 87/158/3 58/10/3 70/9/3
f 108/134/1 30/99/1 72/88/1 110/87/1
f 65/159/4 58/160/4 80/161/4 81/162/4
f 87/158/3 32/95/3 74/153/3 97/152/3
f 69/163/4 68/164/4 82/165/4 71/166/4
f 124/167/1 65/168/1 81/169/1 126/170/1
f 116/171/3 56/172/3 77/173/3 118/174/3
f 101/94/3 46/103/3 73/175/3 107/176/3
f 56/177/2 43/178/2 79/179/2 77/180/2
f 115/181/1 39/182/1 76/183/1 117/184/1
f 46/185/2 53/186/2 75/187/2 73/188/2
f 80/189/3 97/152/3 98/155/3
f 117/184/1 76/183/1 85/190/1 119/191/1
f 127/80/3 78/79/3 86/192/3 129/193/3
f 81/169/1 128/194/1 126/170/1
f 72/88/1 88/146/1 99/195/1 84/89/1
f 58/10/3 87/158/3 97/152/3 80/189/3
f 31/96/3 32/95/3 87/158/3 90/157/3
f 40/75/5 31/92/5 90/156/5 95/144/5
f 80/161/7 98/196/7 128/197/7 81/162/7
f 37/84/5 34/86/5 89/149/5 94/148/5
f 34/86/5 36/76/5 93/143/5 89/149/5
f 41/71/5 37/84/5 94/148/5 96/142/5
f 30/99/1 92/98/1 88/146/1 72/88/1
f 36/76/5 40/75/5 95/144/5 93/143/5
f 29/72/5 41/71/5 96/142/5 91/141/5
f 57/138/1 69/137/1 92/98/1 91/97/1
f 74/153/3 107/176/3 111/198/3 83/154/3
f 32/95/3 101/94/3 107/176/3 74/153/3
f 43/2/1 108/134/1 110/87/1 79/199/1
f 29/100/1 30/99/1 108/134/1 100/133/1
f 44/104/3 46/103/3 101/94/3 109/93/3
f 54/108/5 44/107/5 109/91/5 105/74/5
f 51/120/5 48/119/5 102/85/5 104/83/5
f 48/119/5 50/124/5 103/73/5 102/85/5
f 55/126/5 51/120/5 104/83/5 106/70/5
f 50/124/5 54/108/5 105/74/5 103/73/5
f 45/132/5 55/126/5 106/70/5 100/69/5
f 78/79/3 118/174/3 120/200/3 86/192/3
f 111/198/3 107/176/3 73/175/3
f 53/201/1 115/181/1 117/184/1 75/202/1
f 42/78/3 116/171/3 118/174/3 78/79/3
f 47/115/6 52/128/6 114/65/6 113/81/6
f 52/128/6 56/112/6 116/66/6 114/65/6
f 76/183/1 126/170/1 128/194/1 85/190/1
f 39/182/1 124/167/1 126/170/1 76/183/1
f 35/203/6 33/82/6 121/147/6 122/151/6
f 39/204/6 35/203/6 122/151/6 124/150/6
f 33/82/6 38/68/6 123/139/6 121/147/6
f 38/68/6 42/67/6 125/140/6 123/139/6
f 68/205/3 125/77/3 127/80/3 82/206/3
f 117/184/1 119/191/1 75/202/1
f 75/187/8 119/207/8 111/208/8 73/188/8
f 83/209/6 111/210/6 119/211/6 85/212/6 128/213/6 98/214/6
f 99/215/6 129/216/6 86/217/6 120/218/6 112/219/6 84/220/6
f 88/146/1 71/145/1 99/195/1
f 82/206/3 127/80/3 129/193/3
f 82/165/7 129/221/7 99/222/7 71/166/7
f 118/174/3 77/173/3 120/200/3
f 79/199/1 110/87/1 112/90/1
f 77/180/9 79/179/9 112/223/9 120/224/9
f 35/203/6 49/116/6 47/115/6 33/82/6
f 115/225/6 53/122/6 49/116/6 35/203/6 39/204/6
